%
M48
M72
T01C0.00787
T02C0.01000
T03C0.02008
T04C0.02756
T05C0.03543
%
T01
X57750Y76766
X57750Y80266
X73250Y84766
X77250Y84166
X87250Y84166
X96750Y84166
X107750Y84166
X118250Y84166
X128750Y84166
X139150Y84166
X149250Y84166
X159550Y84166
X175750Y84266
X188250Y88266
X192250Y92266
X187750Y94766
X195750Y88766
X203250Y87566
X207250Y92266
X215150Y92466
X221250Y92266
X230250Y92266
X218850Y87766
X212950Y87666
X207250Y79266
X198750Y79266
X218250Y78766
X223550Y79266
X231250Y75266
X233750Y78966
X215250Y68366
X207250Y68266
X199750Y70266
X222750Y67266
T02
X221050Y70666
X226550Y71166
X196050Y69166
X186550Y78166
X232550Y86166
T03
X57384Y68732
X62384Y68732
X67384Y68732
X72384Y68732
X72384Y89599
X67384Y89599
X62384Y89599
X57384Y89599
T04
X198711Y97373
T05
X231389Y61940
M30
