G75*
%MOIN*%
%OFA0B0*%
%FSLAX25Y25*%
%IPPOS*%
%LPD*%
%AMOC8*
5,1,8,0,0,1.08239X$1,22.5*
%
%ADD10C,0.00500*%
%ADD11C,0.00394*%
%ADD12C,0.01600*%
D10*
X0056430Y0072666D02*
X0073430Y0072666D01*
X0073430Y0085666D01*
X0056430Y0085666D01*
X0056430Y0072666D01*
X0077800Y0076916D02*
X0077800Y0082420D01*
X0079635Y0080585D01*
X0081470Y0082420D01*
X0081470Y0076916D01*
X0083325Y0076916D02*
X0083325Y0082420D01*
X0086995Y0082420D01*
X0088849Y0082420D02*
X0092519Y0082420D01*
X0094374Y0081503D02*
X0095292Y0082420D01*
X0097127Y0082420D01*
X0098044Y0081503D01*
X0098044Y0080585D01*
X0094374Y0076916D01*
X0098044Y0076916D01*
X0106341Y0077833D02*
X0107258Y0076916D01*
X0106341Y0077833D02*
X0106341Y0081503D01*
X0105424Y0080585D02*
X0107258Y0080585D01*
X0109107Y0079668D02*
X0109107Y0077833D01*
X0110024Y0076916D01*
X0111859Y0076916D01*
X0112777Y0077833D01*
X0112777Y0079668D01*
X0111859Y0080585D01*
X0110024Y0080585D01*
X0109107Y0079668D01*
X0120156Y0079668D02*
X0123826Y0079668D01*
X0125681Y0079668D02*
X0127516Y0079668D01*
X0125681Y0076916D02*
X0125681Y0082420D01*
X0129351Y0082420D01*
X0131206Y0082420D02*
X0134875Y0082420D01*
X0131206Y0082420D02*
X0131206Y0076916D01*
X0131206Y0079668D02*
X0133040Y0079668D01*
X0142255Y0082420D02*
X0145925Y0076916D01*
X0145925Y0082420D01*
X0148697Y0080585D02*
X0150532Y0080585D01*
X0151450Y0079668D01*
X0151450Y0076916D01*
X0148697Y0076916D01*
X0147780Y0077833D01*
X0148697Y0078750D01*
X0151450Y0078750D01*
X0153304Y0076916D02*
X0153304Y0080585D01*
X0156057Y0080585D01*
X0156974Y0079668D01*
X0156974Y0076916D01*
X0158829Y0077833D02*
X0159747Y0076916D01*
X0161582Y0076916D01*
X0162499Y0077833D01*
X0162499Y0079668D01*
X0161582Y0080585D01*
X0159747Y0080585D01*
X0158829Y0079668D01*
X0158829Y0077833D01*
X0164354Y0079668D02*
X0168024Y0079668D01*
X0169879Y0080585D02*
X0171714Y0080585D01*
X0170796Y0081503D02*
X0170796Y0077833D01*
X0171714Y0076916D01*
X0173562Y0077833D02*
X0174479Y0076916D01*
X0176314Y0076916D01*
X0177232Y0077833D01*
X0177232Y0079668D01*
X0176314Y0080585D01*
X0174479Y0080585D01*
X0173562Y0079668D01*
X0173562Y0077833D01*
X0179086Y0076916D02*
X0181839Y0076916D01*
X0182756Y0077833D01*
X0182756Y0079668D01*
X0181839Y0080585D01*
X0179086Y0080585D01*
X0179086Y0075081D01*
X0190136Y0078750D02*
X0191971Y0076916D01*
X0193806Y0078750D01*
X0193806Y0082420D01*
X0195661Y0080585D02*
X0197496Y0082420D01*
X0197496Y0076916D01*
X0199330Y0076916D02*
X0195661Y0076916D01*
X0201185Y0076916D02*
X0202103Y0076916D01*
X0202103Y0077833D01*
X0201185Y0077833D01*
X0201185Y0076916D01*
X0203948Y0076916D02*
X0207617Y0076916D01*
X0205783Y0076916D02*
X0205783Y0082420D01*
X0203948Y0080585D01*
X0190136Y0082420D02*
X0190136Y0078750D01*
X0142255Y0076916D02*
X0142255Y0082420D01*
X0122909Y0082420D02*
X0122909Y0076916D01*
X0120156Y0079668D02*
X0122909Y0082420D01*
X0090684Y0079668D02*
X0088849Y0079668D01*
X0085160Y0079668D02*
X0083325Y0079668D01*
X0088849Y0076916D02*
X0088849Y0082420D01*
D11*
X0190837Y0093632D02*
X0190837Y0096585D01*
X0196546Y0096585D01*
X0196743Y0098751D02*
X0190837Y0098751D01*
X0190837Y0096585D01*
X0190837Y0093632D02*
X0195365Y0093632D01*
X0195365Y0064499D01*
X0194971Y0064499D01*
X0197924Y0061546D01*
X0228633Y0061546D01*
X0234144Y0061546D02*
X0239263Y0061546D01*
X0239263Y0059381D01*
X0221940Y0059381D01*
X0208160Y0059381D02*
X0193003Y0059381D01*
X0190837Y0061546D01*
X0190837Y0064499D01*
X0194971Y0064499D01*
X0235129Y0064499D02*
X0239263Y0064499D01*
X0239263Y0061546D01*
X0235129Y0064499D02*
X0235129Y0093632D01*
X0239263Y0093632D01*
X0239263Y0096585D01*
X0201074Y0096585D01*
X0200680Y0098751D02*
X0208160Y0098751D01*
X0221940Y0098751D02*
X0239263Y0098751D01*
X0239263Y0096585D01*
D12*
X0071853Y0083732D02*
X0071855Y0083779D01*
X0071861Y0083825D01*
X0071870Y0083871D01*
X0071884Y0083915D01*
X0071901Y0083959D01*
X0071922Y0084000D01*
X0071946Y0084040D01*
X0071973Y0084078D01*
X0072004Y0084113D01*
X0072037Y0084146D01*
X0072073Y0084176D01*
X0072112Y0084202D01*
X0072152Y0084226D01*
X0072194Y0084245D01*
X0072238Y0084262D01*
X0072283Y0084274D01*
X0072329Y0084283D01*
X0072375Y0084288D01*
X0072422Y0084289D01*
X0072468Y0084286D01*
X0072514Y0084279D01*
X0072560Y0084268D01*
X0072604Y0084254D01*
X0072647Y0084236D01*
X0072688Y0084214D01*
X0072728Y0084189D01*
X0072765Y0084161D01*
X0072800Y0084130D01*
X0072832Y0084096D01*
X0072861Y0084059D01*
X0072886Y0084021D01*
X0072909Y0083980D01*
X0072928Y0083937D01*
X0072943Y0083893D01*
X0072955Y0083848D01*
X0072963Y0083802D01*
X0072967Y0083755D01*
X0072967Y0083709D01*
X0072963Y0083662D01*
X0072955Y0083616D01*
X0072943Y0083571D01*
X0072928Y0083527D01*
X0072909Y0083484D01*
X0072886Y0083443D01*
X0072861Y0083405D01*
X0072832Y0083368D01*
X0072800Y0083334D01*
X0072765Y0083303D01*
X0072728Y0083275D01*
X0072689Y0083250D01*
X0072647Y0083228D01*
X0072604Y0083210D01*
X0072560Y0083196D01*
X0072514Y0083185D01*
X0072468Y0083178D01*
X0072422Y0083175D01*
X0072375Y0083176D01*
X0072329Y0083181D01*
X0072283Y0083190D01*
X0072238Y0083202D01*
X0072194Y0083219D01*
X0072152Y0083238D01*
X0072112Y0083262D01*
X0072073Y0083288D01*
X0072037Y0083318D01*
X0072004Y0083351D01*
X0071973Y0083386D01*
X0071946Y0083424D01*
X0071922Y0083464D01*
X0071901Y0083505D01*
X0071884Y0083549D01*
X0071870Y0083593D01*
X0071861Y0083639D01*
X0071855Y0083685D01*
X0071853Y0083732D01*
M02*
