G75*
%MOIN*%
%OFA0B0*%
%FSLAX25Y25*%
%IPPOS*%
%LPD*%
%AMOC8*
5,1,8,0,0,1.08239X$1,22.5*
%
%ADD10C,0.00600*%
%ADD11R,0.04331X0.03937*%
%ADD12R,0.11811X0.03937*%
%ADD13C,0.00000*%
%ADD14R,0.02992X0.03150*%
%ADD15C,0.03012*%
%ADD16C,0.01587*%
%ADD17C,0.00800*%
%ADD18C,0.02000*%
D10*
X0167410Y0072564D02*
X0167564Y0072562D01*
X0167717Y0072556D01*
X0167871Y0072546D01*
X0168024Y0072533D01*
X0168177Y0072515D01*
X0168329Y0072493D01*
X0168481Y0072468D01*
X0168632Y0072439D01*
X0168782Y0072405D01*
X0168932Y0072368D01*
X0169080Y0072328D01*
X0169227Y0072283D01*
X0169373Y0072235D01*
X0169518Y0072183D01*
X0169662Y0072127D01*
X0169803Y0072067D01*
X0169944Y0072004D01*
X0170083Y0071938D01*
X0170219Y0071868D01*
X0170355Y0071794D01*
X0170488Y0071717D01*
X0170619Y0071637D01*
X0170748Y0071553D01*
X0170875Y0071466D01*
X0171000Y0071376D01*
X0171122Y0071282D01*
X0171242Y0071186D01*
X0171359Y0071086D01*
X0171474Y0070984D01*
X0171586Y0070879D01*
X0171585Y0070878D02*
X0187193Y0055351D01*
X0189587Y0056628D02*
X0208244Y0056628D01*
X0208244Y0056166D02*
X0190050Y0056166D01*
X0187550Y0058666D01*
X0187550Y0063366D01*
X0199104Y0063366D01*
X0201052Y0064172D01*
X0202543Y0065663D01*
X0202543Y0065663D01*
X0203350Y0067611D01*
X0203350Y0068666D01*
X0203374Y0068847D01*
X0203555Y0069161D01*
X0203869Y0069342D01*
X0204050Y0069366D01*
X0219663Y0069366D01*
X0220263Y0068766D01*
X0221837Y0068766D01*
X0222950Y0069879D01*
X0222950Y0071453D01*
X0222537Y0071866D01*
X0224550Y0071866D01*
X0224650Y0071852D01*
X0224650Y0070379D01*
X0225763Y0069266D01*
X0227337Y0069266D01*
X0228450Y0070379D01*
X0228450Y0071953D01*
X0227337Y0073066D01*
X0227264Y0073066D01*
X0226966Y0073581D01*
X0226966Y0073581D01*
X0226561Y0073815D01*
X0226577Y0073814D01*
X0227550Y0073411D01*
X0228295Y0072666D01*
X0228698Y0071692D01*
X0228750Y0071166D01*
X0228750Y0070255D01*
X0229661Y0068677D01*
X0229661Y0068677D01*
X0231239Y0067766D01*
X0234819Y0067766D01*
X0234819Y0066724D01*
X0235346Y0066197D01*
X0240423Y0066197D01*
X0240950Y0066724D01*
X0240950Y0071407D01*
X0240423Y0071934D01*
X0235346Y0071934D01*
X0234819Y0071407D01*
X0234819Y0070366D01*
X0232150Y0070366D01*
X0231943Y0070393D01*
X0231584Y0070600D01*
X0231377Y0070959D01*
X0231350Y0071166D01*
X0231350Y0072220D01*
X0230543Y0074168D01*
X0229052Y0075659D01*
X0227104Y0076466D01*
X0195022Y0076466D01*
X0195281Y0076724D01*
X0195281Y0080966D01*
X0229584Y0080966D01*
X0231496Y0081757D01*
X0232958Y0083220D01*
X0233430Y0084358D01*
X0234450Y0085379D01*
X0234450Y0086953D01*
X0234241Y0087162D01*
X0234319Y0087297D01*
X0234819Y0087586D01*
X0234819Y0086724D01*
X0235346Y0086197D01*
X0240423Y0086197D01*
X0240950Y0086724D01*
X0240950Y0091407D01*
X0240423Y0091934D01*
X0235346Y0091934D01*
X0234819Y0091407D01*
X0234819Y0090366D01*
X0234325Y0090366D01*
X0232375Y0089240D01*
X0231607Y0087910D01*
X0230650Y0086953D01*
X0230650Y0085379D01*
X0231036Y0084992D01*
X0230878Y0084610D01*
X0230106Y0083837D01*
X0229096Y0083419D01*
X0228550Y0083366D01*
X0187550Y0083366D01*
X0187550Y0101166D01*
X0188050Y0101666D01*
X0208244Y0101666D01*
X0208244Y0097590D01*
X0208772Y0097063D01*
X0221328Y0097063D01*
X0221855Y0097590D01*
X0221855Y0101666D01*
X0239050Y0101666D01*
X0241550Y0099166D01*
X0241550Y0057666D01*
X0240050Y0056166D01*
X0221855Y0056166D01*
X0221855Y0060541D01*
X0221328Y0061068D01*
X0208772Y0061068D01*
X0208244Y0060541D01*
X0208244Y0056166D01*
X0208244Y0057227D02*
X0188989Y0057227D01*
X0188390Y0057825D02*
X0208244Y0057825D01*
X0208244Y0058424D02*
X0187792Y0058424D01*
X0187550Y0059022D02*
X0208244Y0059022D01*
X0208244Y0059621D02*
X0187550Y0059621D01*
X0187550Y0060219D02*
X0208244Y0060219D01*
X0208522Y0060818D02*
X0187550Y0060818D01*
X0187550Y0061416D02*
X0228717Y0061416D01*
X0228717Y0061408D02*
X0229124Y0060426D01*
X0229875Y0059675D01*
X0230857Y0059268D01*
X0231920Y0059268D01*
X0232902Y0059675D01*
X0233653Y0060426D01*
X0234060Y0061408D01*
X0234060Y0062471D01*
X0233653Y0063453D01*
X0232902Y0064204D01*
X0231920Y0064611D01*
X0230857Y0064611D01*
X0229875Y0064204D01*
X0229124Y0063453D01*
X0228717Y0062471D01*
X0228717Y0061408D01*
X0228717Y0062015D02*
X0187550Y0062015D01*
X0187550Y0062613D02*
X0228776Y0062613D01*
X0229024Y0063212D02*
X0187550Y0063212D01*
X0187550Y0065966D02*
X0187550Y0071866D01*
X0189609Y0071866D01*
X0189150Y0071407D01*
X0189150Y0066724D01*
X0189677Y0066197D01*
X0194753Y0066197D01*
X0195281Y0066724D01*
X0195281Y0067266D01*
X0196837Y0067266D01*
X0197950Y0068379D01*
X0197950Y0069953D01*
X0196837Y0071066D01*
X0195281Y0071066D01*
X0195281Y0071407D01*
X0194822Y0071866D01*
X0202993Y0071866D01*
X0201634Y0071081D01*
X0200750Y0069550D01*
X0200750Y0068666D01*
X0200698Y0068139D01*
X0200295Y0067166D01*
X0199550Y0066421D01*
X0198577Y0066017D01*
X0198050Y0065966D01*
X0187550Y0065966D01*
X0187550Y0066205D02*
X0189670Y0066205D01*
X0189150Y0066803D02*
X0187550Y0066803D01*
X0187550Y0067402D02*
X0189150Y0067402D01*
X0189150Y0068000D02*
X0187550Y0068000D01*
X0187550Y0068599D02*
X0189150Y0068599D01*
X0189150Y0069197D02*
X0187550Y0069197D01*
X0187550Y0069796D02*
X0189150Y0069796D01*
X0189150Y0070394D02*
X0187550Y0070394D01*
X0187550Y0070993D02*
X0189150Y0070993D01*
X0189334Y0071591D02*
X0187550Y0071591D01*
X0192315Y0069166D02*
X0196050Y0069166D01*
X0197950Y0069197D02*
X0200750Y0069197D01*
X0200750Y0069550D02*
X0200750Y0069550D01*
X0200892Y0069796D02*
X0197950Y0069796D01*
X0197508Y0070394D02*
X0201237Y0070394D01*
X0201583Y0070993D02*
X0196910Y0070993D01*
X0195096Y0071591D02*
X0202517Y0071591D01*
X0201634Y0071081D02*
X0201634Y0071081D01*
X0203618Y0069197D02*
X0219831Y0069197D01*
X0222269Y0069197D02*
X0229361Y0069197D01*
X0229015Y0069796D02*
X0227867Y0069796D01*
X0228450Y0070394D02*
X0228750Y0070394D01*
X0228750Y0070993D02*
X0228450Y0070993D01*
X0228450Y0071591D02*
X0228708Y0071591D01*
X0228492Y0072190D02*
X0228213Y0072190D01*
X0228172Y0072788D02*
X0227614Y0072788D01*
X0227574Y0073387D02*
X0227078Y0073387D01*
X0224650Y0071591D02*
X0222811Y0071591D01*
X0222950Y0070993D02*
X0224650Y0070993D01*
X0224650Y0070394D02*
X0222950Y0070394D01*
X0222867Y0069796D02*
X0225233Y0069796D01*
X0229796Y0068599D02*
X0203350Y0068599D01*
X0203350Y0068000D02*
X0230833Y0068000D01*
X0233750Y0068966D02*
X0233850Y0069066D01*
X0237550Y0069066D01*
X0237885Y0069066D01*
X0240950Y0069197D02*
X0241550Y0069197D01*
X0241550Y0068599D02*
X0240950Y0068599D01*
X0240950Y0068000D02*
X0241550Y0068000D01*
X0241550Y0067402D02*
X0240950Y0067402D01*
X0240950Y0066803D02*
X0241550Y0066803D01*
X0241550Y0066205D02*
X0240430Y0066205D01*
X0241550Y0065606D02*
X0202486Y0065606D01*
X0202767Y0066205D02*
X0235339Y0066205D01*
X0234819Y0066803D02*
X0203015Y0066803D01*
X0203263Y0067402D02*
X0234819Y0067402D01*
X0232408Y0064409D02*
X0241550Y0064409D01*
X0241550Y0065008D02*
X0201887Y0065008D01*
X0201289Y0064409D02*
X0230369Y0064409D01*
X0229481Y0063810D02*
X0200178Y0063810D01*
X0201052Y0064172D02*
X0201052Y0064172D01*
X0199028Y0066205D02*
X0194761Y0066205D01*
X0195281Y0066803D02*
X0199932Y0066803D01*
X0200393Y0067402D02*
X0196973Y0067402D01*
X0197571Y0068000D02*
X0200641Y0068000D01*
X0200743Y0068599D02*
X0197950Y0068599D01*
X0192315Y0069166D02*
X0192298Y0069164D01*
X0192281Y0069160D01*
X0192265Y0069153D01*
X0192251Y0069143D01*
X0192238Y0069130D01*
X0192228Y0069116D01*
X0192221Y0069100D01*
X0192217Y0069083D01*
X0192215Y0069066D01*
X0195281Y0076978D02*
X0234819Y0076978D01*
X0234819Y0076724D02*
X0235346Y0076197D01*
X0240423Y0076197D01*
X0240950Y0076724D01*
X0240950Y0081407D01*
X0240423Y0081934D01*
X0235346Y0081934D01*
X0234819Y0081407D01*
X0234819Y0080291D01*
X0234452Y0080659D01*
X0233048Y0080659D01*
X0232056Y0079667D01*
X0232056Y0078264D01*
X0233048Y0077272D01*
X0234452Y0077272D01*
X0234819Y0077640D01*
X0234819Y0076724D01*
X0235164Y0076379D02*
X0227313Y0076379D01*
X0228758Y0075781D02*
X0241550Y0075781D01*
X0241550Y0076379D02*
X0240605Y0076379D01*
X0240950Y0076978D02*
X0241550Y0076978D01*
X0241550Y0077576D02*
X0240950Y0077576D01*
X0240950Y0078175D02*
X0241550Y0078175D01*
X0241550Y0078773D02*
X0240950Y0078773D01*
X0240950Y0079372D02*
X0241550Y0079372D01*
X0241550Y0079970D02*
X0240950Y0079970D01*
X0240950Y0080569D02*
X0241550Y0080569D01*
X0241550Y0081167D02*
X0240950Y0081167D01*
X0240591Y0081766D02*
X0241550Y0081766D01*
X0241550Y0082364D02*
X0232103Y0082364D01*
X0231504Y0081766D02*
X0235178Y0081766D01*
X0234819Y0081167D02*
X0230071Y0081167D01*
X0231496Y0081757D02*
X0231496Y0081757D01*
X0232701Y0082963D02*
X0241550Y0082963D01*
X0241550Y0083561D02*
X0233100Y0083561D01*
X0232958Y0083220D02*
X0232958Y0083220D01*
X0233348Y0084160D02*
X0241550Y0084160D01*
X0241550Y0084758D02*
X0233830Y0084758D01*
X0234428Y0085357D02*
X0241550Y0085357D01*
X0241550Y0085955D02*
X0234450Y0085955D01*
X0234450Y0086554D02*
X0234990Y0086554D01*
X0234819Y0087152D02*
X0234250Y0087152D01*
X0231861Y0088349D02*
X0195481Y0088349D01*
X0195481Y0088766D02*
X0192515Y0088766D01*
X0192515Y0089366D01*
X0191915Y0089366D01*
X0191915Y0092134D01*
X0189905Y0092134D01*
X0189625Y0092059D01*
X0189375Y0091914D01*
X0189170Y0091709D01*
X0189025Y0091459D01*
X0188950Y0091179D01*
X0188950Y0089366D01*
X0191915Y0089366D01*
X0191915Y0088766D01*
X0188950Y0088766D01*
X0188950Y0086952D01*
X0189025Y0086672D01*
X0189170Y0086422D01*
X0189375Y0086217D01*
X0189625Y0086072D01*
X0189905Y0085997D01*
X0191915Y0085997D01*
X0191915Y0088766D01*
X0192515Y0088766D01*
X0192515Y0085997D01*
X0194526Y0085997D01*
X0194805Y0086072D01*
X0195056Y0086217D01*
X0195261Y0086422D01*
X0195406Y0086672D01*
X0195481Y0086952D01*
X0195481Y0088766D01*
X0195481Y0089366D02*
X0192515Y0089366D01*
X0192515Y0092134D01*
X0194526Y0092134D01*
X0194805Y0092059D01*
X0195056Y0091914D01*
X0195261Y0091709D01*
X0195406Y0091459D01*
X0195481Y0091179D01*
X0195481Y0089366D01*
X0195481Y0089546D02*
X0232906Y0089546D01*
X0232375Y0089240D02*
X0232375Y0089240D01*
X0232375Y0089240D01*
X0232207Y0088948D02*
X0192515Y0088948D01*
X0192215Y0089066D02*
X0191933Y0088783D01*
X0191415Y0088266D01*
X0188250Y0088266D01*
X0187550Y0088349D02*
X0188950Y0088349D01*
X0188950Y0087751D02*
X0187550Y0087751D01*
X0187550Y0087152D02*
X0188950Y0087152D01*
X0189093Y0086554D02*
X0187550Y0086554D01*
X0187550Y0085955D02*
X0230650Y0085955D01*
X0230672Y0085357D02*
X0187550Y0085357D01*
X0187550Y0084758D02*
X0230940Y0084758D01*
X0230428Y0084160D02*
X0187550Y0084160D01*
X0187550Y0083561D02*
X0229439Y0083561D01*
X0228550Y0082166D02*
X0073229Y0082166D01*
X0074050Y0084266D02*
X0077150Y0084266D01*
X0077167Y0084264D01*
X0077184Y0084260D01*
X0077200Y0084253D01*
X0077214Y0084243D01*
X0077227Y0084230D01*
X0077237Y0084216D01*
X0077244Y0084200D01*
X0077248Y0084183D01*
X0077250Y0084166D01*
X0087250Y0084166D01*
X0096750Y0084166D01*
X0107750Y0084166D01*
X0118250Y0084166D01*
X0128750Y0084166D01*
X0139150Y0084166D01*
X0149250Y0084166D01*
X0159550Y0084166D01*
X0159650Y0084266D01*
X0175750Y0084266D01*
X0167409Y0085949D02*
X0167262Y0085949D01*
X0074735Y0085949D01*
X0074735Y0089492D01*
X0074587Y0089492D01*
X0055198Y0089492D01*
X0055050Y0089492D01*
X0055050Y0069020D01*
X0055198Y0069020D01*
X0074587Y0069020D01*
X0074735Y0069020D01*
X0074735Y0072563D01*
X0167262Y0072563D01*
X0167409Y0072563D01*
X0184050Y0080666D02*
X0184148Y0080664D01*
X0184246Y0080658D01*
X0184344Y0080649D01*
X0184441Y0080635D01*
X0184538Y0080618D01*
X0184634Y0080597D01*
X0184729Y0080572D01*
X0184823Y0080544D01*
X0184915Y0080511D01*
X0185007Y0080476D01*
X0185097Y0080436D01*
X0185185Y0080394D01*
X0185272Y0080347D01*
X0185356Y0080298D01*
X0185439Y0080245D01*
X0185519Y0080189D01*
X0185598Y0080129D01*
X0185674Y0080067D01*
X0185747Y0080002D01*
X0185818Y0079934D01*
X0185886Y0079863D01*
X0185951Y0079790D01*
X0186013Y0079714D01*
X0186073Y0079635D01*
X0186129Y0079555D01*
X0186182Y0079472D01*
X0186231Y0079388D01*
X0186278Y0079301D01*
X0186320Y0079213D01*
X0186360Y0079123D01*
X0186395Y0079031D01*
X0186428Y0078939D01*
X0186456Y0078845D01*
X0186481Y0078750D01*
X0186502Y0078654D01*
X0186519Y0078557D01*
X0186533Y0078460D01*
X0186542Y0078362D01*
X0186548Y0078264D01*
X0186550Y0078166D01*
X0184050Y0080666D02*
X0069649Y0080666D01*
X0072469Y0085846D02*
X0072469Y0087925D01*
X0072391Y0088604D01*
X0067390Y0088604D02*
X0067385Y0088448D01*
X0067383Y0088293D01*
X0067385Y0088137D01*
X0067391Y0087981D01*
X0067402Y0087826D01*
X0067416Y0087671D01*
X0067434Y0087516D01*
X0067456Y0087362D01*
X0067481Y0087209D01*
X0067511Y0087056D01*
X0067545Y0086904D01*
X0067582Y0086753D01*
X0067623Y0086602D01*
X0067668Y0086453D01*
X0067717Y0086305D01*
X0067770Y0086159D01*
X0067826Y0086014D01*
X0067886Y0085870D01*
X0067949Y0085728D01*
X0068016Y0085587D01*
X0068087Y0085448D01*
X0068161Y0085311D01*
X0068238Y0085176D01*
X0068319Y0085043D01*
X0068403Y0084912D01*
X0068491Y0084784D01*
X0068582Y0084657D01*
X0068676Y0084533D01*
X0068773Y0084411D01*
X0068873Y0084292D01*
X0068976Y0084175D01*
X0069082Y0084061D01*
X0069191Y0083950D01*
X0069303Y0083842D01*
X0069417Y0083736D01*
X0069534Y0083633D01*
X0069654Y0083534D01*
X0069776Y0083437D01*
X0069900Y0083343D01*
X0070027Y0083253D01*
X0070156Y0083166D01*
X0070288Y0083082D01*
X0070421Y0083002D01*
X0070556Y0082925D01*
X0070693Y0082851D01*
X0070832Y0082781D01*
X0070973Y0082715D01*
X0071116Y0082652D01*
X0071260Y0082592D01*
X0071405Y0082537D01*
X0071552Y0082485D01*
X0071700Y0082436D01*
X0071849Y0082392D01*
X0071999Y0082351D01*
X0072151Y0082315D01*
X0072303Y0082282D01*
X0072456Y0082252D01*
X0072609Y0082227D01*
X0072764Y0082206D01*
X0072918Y0082188D01*
X0073074Y0082175D01*
X0073229Y0082165D01*
X0074050Y0084265D02*
X0073972Y0084267D01*
X0073895Y0084273D01*
X0073818Y0084282D01*
X0073742Y0084295D01*
X0073666Y0084312D01*
X0073591Y0084333D01*
X0073517Y0084357D01*
X0073445Y0084385D01*
X0073374Y0084417D01*
X0073305Y0084452D01*
X0073237Y0084490D01*
X0073172Y0084531D01*
X0073108Y0084576D01*
X0073047Y0084624D01*
X0072988Y0084675D01*
X0072932Y0084728D01*
X0072879Y0084784D01*
X0072828Y0084843D01*
X0072780Y0084904D01*
X0072735Y0084968D01*
X0072694Y0085033D01*
X0072656Y0085101D01*
X0072621Y0085170D01*
X0072589Y0085241D01*
X0072561Y0085313D01*
X0072537Y0085387D01*
X0072516Y0085462D01*
X0072499Y0085538D01*
X0072486Y0085614D01*
X0072477Y0085691D01*
X0072471Y0085768D01*
X0072469Y0085846D01*
X0069649Y0080665D02*
X0069466Y0080674D01*
X0069284Y0080688D01*
X0069102Y0080707D01*
X0068921Y0080729D01*
X0068740Y0080756D01*
X0068560Y0080788D01*
X0068381Y0080823D01*
X0068202Y0080863D01*
X0068025Y0080908D01*
X0067849Y0080956D01*
X0067674Y0081009D01*
X0067500Y0081066D01*
X0067328Y0081128D01*
X0067157Y0081193D01*
X0066988Y0081262D01*
X0066821Y0081336D01*
X0066656Y0081414D01*
X0066492Y0081495D01*
X0066330Y0081581D01*
X0066171Y0081670D01*
X0066014Y0081763D01*
X0065859Y0081860D01*
X0065706Y0081961D01*
X0065556Y0082065D01*
X0065409Y0082173D01*
X0065264Y0082285D01*
X0065122Y0082400D01*
X0064982Y0082518D01*
X0064846Y0082640D01*
X0064713Y0082765D01*
X0064582Y0082893D01*
X0064455Y0083024D01*
X0064331Y0083158D01*
X0064210Y0083296D01*
X0064093Y0083436D01*
X0063979Y0083579D01*
X0063868Y0083724D01*
X0063761Y0083872D01*
X0063658Y0084023D01*
X0063558Y0084176D01*
X0063463Y0084332D01*
X0063370Y0084490D01*
X0063282Y0084650D01*
X0063198Y0084812D01*
X0063117Y0084976D01*
X0063041Y0085142D01*
X0062968Y0085310D01*
X0062900Y0085480D01*
X0062836Y0085651D01*
X0062776Y0085823D01*
X0062720Y0085997D01*
X0062668Y0086173D01*
X0062621Y0086349D01*
X0062578Y0086527D01*
X0062539Y0086706D01*
X0062504Y0086885D01*
X0062474Y0087065D01*
X0062448Y0087246D01*
X0062427Y0087428D01*
X0062410Y0087610D01*
X0062397Y0087792D01*
X0062389Y0087975D01*
X0062385Y0088158D01*
X0062386Y0088340D01*
X0062391Y0088523D01*
X0167409Y0085949D02*
X0167559Y0085951D01*
X0167708Y0085957D01*
X0167857Y0085966D01*
X0168006Y0085979D01*
X0168155Y0085996D01*
X0168303Y0086017D01*
X0168451Y0086042D01*
X0168598Y0086070D01*
X0168744Y0086102D01*
X0168889Y0086138D01*
X0169033Y0086177D01*
X0169177Y0086220D01*
X0169319Y0086266D01*
X0169460Y0086317D01*
X0169599Y0086370D01*
X0169738Y0086428D01*
X0169874Y0086488D01*
X0170010Y0086552D01*
X0170143Y0086620D01*
X0170275Y0086691D01*
X0170405Y0086765D01*
X0170533Y0086843D01*
X0170658Y0086923D01*
X0170782Y0087007D01*
X0170904Y0087094D01*
X0171023Y0087184D01*
X0171141Y0087278D01*
X0171255Y0087374D01*
X0171368Y0087472D01*
X0171477Y0087574D01*
X0171584Y0087679D01*
X0171585Y0087679D02*
X0187094Y0103117D01*
X0187901Y0101517D02*
X0208244Y0101517D01*
X0208244Y0100918D02*
X0187550Y0100918D01*
X0187550Y0100320D02*
X0208244Y0100320D01*
X0208244Y0099721D02*
X0187550Y0099721D01*
X0187550Y0099123D02*
X0197240Y0099123D01*
X0197768Y0099651D02*
X0196433Y0098316D01*
X0196433Y0096429D01*
X0197768Y0095095D01*
X0199655Y0095095D01*
X0200989Y0096429D01*
X0200989Y0098316D01*
X0199655Y0099651D01*
X0197768Y0099651D01*
X0196641Y0098524D02*
X0187550Y0098524D01*
X0187550Y0097926D02*
X0196433Y0097926D01*
X0196433Y0097327D02*
X0187550Y0097327D01*
X0187550Y0096729D02*
X0196433Y0096729D01*
X0196732Y0096130D02*
X0187550Y0096130D01*
X0187550Y0095532D02*
X0197331Y0095532D01*
X0200092Y0095532D02*
X0241550Y0095532D01*
X0241550Y0096130D02*
X0200690Y0096130D01*
X0200989Y0096729D02*
X0241550Y0096729D01*
X0241550Y0097327D02*
X0221592Y0097327D01*
X0221855Y0097926D02*
X0241550Y0097926D01*
X0241550Y0098524D02*
X0221855Y0098524D01*
X0221855Y0099123D02*
X0241550Y0099123D01*
X0240994Y0099721D02*
X0221855Y0099721D01*
X0221855Y0100320D02*
X0240396Y0100320D01*
X0239797Y0100918D02*
X0221855Y0100918D01*
X0221855Y0101517D02*
X0239199Y0101517D01*
X0240089Y0104847D02*
X0240199Y0104845D01*
X0240309Y0104839D01*
X0240418Y0104830D01*
X0240527Y0104816D01*
X0240636Y0104799D01*
X0240744Y0104778D01*
X0240851Y0104753D01*
X0240957Y0104725D01*
X0241062Y0104693D01*
X0241166Y0104657D01*
X0241269Y0104618D01*
X0241370Y0104575D01*
X0241470Y0104528D01*
X0241568Y0104478D01*
X0241664Y0104425D01*
X0241758Y0104368D01*
X0241850Y0104308D01*
X0241941Y0104245D01*
X0242028Y0104179D01*
X0242114Y0104110D01*
X0242197Y0104038D01*
X0242277Y0103963D01*
X0242355Y0103885D01*
X0242430Y0103805D01*
X0242502Y0103722D01*
X0242571Y0103636D01*
X0242637Y0103549D01*
X0242700Y0103458D01*
X0242760Y0103366D01*
X0242817Y0103272D01*
X0242870Y0103176D01*
X0242920Y0103078D01*
X0242967Y0102978D01*
X0243010Y0102877D01*
X0243049Y0102774D01*
X0243085Y0102670D01*
X0243117Y0102565D01*
X0243145Y0102459D01*
X0243170Y0102352D01*
X0243191Y0102244D01*
X0243208Y0102135D01*
X0243222Y0102026D01*
X0243231Y0101917D01*
X0243237Y0101807D01*
X0243239Y0101697D01*
X0243239Y0056815D01*
X0241550Y0057825D02*
X0221855Y0057825D01*
X0221855Y0057227D02*
X0241111Y0057227D01*
X0240513Y0056628D02*
X0221855Y0056628D01*
X0221855Y0058424D02*
X0241550Y0058424D01*
X0241550Y0059022D02*
X0221855Y0059022D01*
X0221855Y0059621D02*
X0230005Y0059621D01*
X0229330Y0060219D02*
X0221855Y0060219D01*
X0221578Y0060818D02*
X0228961Y0060818D01*
X0232772Y0059621D02*
X0241550Y0059621D01*
X0241550Y0060219D02*
X0233447Y0060219D01*
X0233816Y0060818D02*
X0241550Y0060818D01*
X0241550Y0061416D02*
X0234060Y0061416D01*
X0234060Y0062015D02*
X0241550Y0062015D01*
X0241550Y0062613D02*
X0234001Y0062613D01*
X0233753Y0063212D02*
X0241550Y0063212D01*
X0241550Y0063810D02*
X0233296Y0063810D01*
X0240950Y0069796D02*
X0241550Y0069796D01*
X0241550Y0070394D02*
X0240950Y0070394D01*
X0240950Y0070993D02*
X0241550Y0070993D01*
X0241550Y0071591D02*
X0240766Y0071591D01*
X0241550Y0072190D02*
X0231350Y0072190D01*
X0231350Y0071591D02*
X0235004Y0071591D01*
X0234819Y0070993D02*
X0231373Y0070993D01*
X0231941Y0070394D02*
X0234819Y0070394D01*
X0231115Y0072788D02*
X0241550Y0072788D01*
X0241550Y0073387D02*
X0230867Y0073387D01*
X0230619Y0073985D02*
X0241550Y0073985D01*
X0241550Y0074584D02*
X0230127Y0074584D01*
X0230543Y0074168D02*
X0230543Y0074168D01*
X0229529Y0075182D02*
X0241550Y0075182D01*
X0234819Y0077576D02*
X0234756Y0077576D01*
X0233750Y0078966D02*
X0237785Y0078966D01*
X0237885Y0079066D01*
X0234819Y0080569D02*
X0234542Y0080569D01*
X0232958Y0080569D02*
X0195281Y0080569D01*
X0195281Y0079970D02*
X0232359Y0079970D01*
X0232056Y0079372D02*
X0195281Y0079372D01*
X0195281Y0078773D02*
X0232056Y0078773D01*
X0232146Y0078175D02*
X0195281Y0078175D01*
X0195281Y0077576D02*
X0232744Y0077576D01*
X0229052Y0075659D02*
X0229052Y0075659D01*
X0228550Y0082166D02*
X0228676Y0082168D01*
X0228801Y0082174D01*
X0228926Y0082184D01*
X0229051Y0082198D01*
X0229176Y0082215D01*
X0229300Y0082237D01*
X0229423Y0082262D01*
X0229545Y0082292D01*
X0229666Y0082325D01*
X0229786Y0082362D01*
X0229905Y0082402D01*
X0230022Y0082447D01*
X0230139Y0082495D01*
X0230253Y0082547D01*
X0230366Y0082602D01*
X0230477Y0082661D01*
X0230586Y0082723D01*
X0230693Y0082789D01*
X0230798Y0082858D01*
X0230901Y0082930D01*
X0231002Y0083005D01*
X0231100Y0083084D01*
X0231195Y0083166D01*
X0231288Y0083250D01*
X0231378Y0083338D01*
X0231466Y0083428D01*
X0231550Y0083521D01*
X0231632Y0083616D01*
X0231711Y0083714D01*
X0231786Y0083815D01*
X0231858Y0083918D01*
X0231927Y0084023D01*
X0231993Y0084130D01*
X0232055Y0084239D01*
X0232114Y0084350D01*
X0232169Y0084463D01*
X0232221Y0084577D01*
X0232269Y0084694D01*
X0232314Y0084811D01*
X0232354Y0084930D01*
X0232391Y0085050D01*
X0232424Y0085171D01*
X0232454Y0085293D01*
X0232479Y0085416D01*
X0232501Y0085540D01*
X0232518Y0085665D01*
X0232532Y0085790D01*
X0232542Y0085915D01*
X0232548Y0086040D01*
X0232550Y0086166D01*
X0231448Y0087751D02*
X0195481Y0087751D01*
X0195481Y0087152D02*
X0230850Y0087152D01*
X0230650Y0086554D02*
X0195337Y0086554D01*
X0192515Y0086554D02*
X0191915Y0086554D01*
X0191915Y0087152D02*
X0192515Y0087152D01*
X0192515Y0087751D02*
X0191915Y0087751D01*
X0191915Y0088349D02*
X0192515Y0088349D01*
X0191915Y0088948D02*
X0187550Y0088948D01*
X0187550Y0089546D02*
X0188950Y0089546D01*
X0188950Y0090145D02*
X0187550Y0090145D01*
X0187550Y0090743D02*
X0188950Y0090743D01*
X0188994Y0091342D02*
X0187550Y0091342D01*
X0187550Y0091941D02*
X0189420Y0091941D01*
X0187550Y0092539D02*
X0241550Y0092539D01*
X0241550Y0091941D02*
X0195011Y0091941D01*
X0195437Y0091342D02*
X0234819Y0091342D01*
X0234819Y0090743D02*
X0195481Y0090743D01*
X0195481Y0090145D02*
X0233943Y0090145D01*
X0240950Y0090145D02*
X0241550Y0090145D01*
X0241550Y0090743D02*
X0240950Y0090743D01*
X0240950Y0091342D02*
X0241550Y0091342D01*
X0241550Y0089546D02*
X0240950Y0089546D01*
X0240950Y0088948D02*
X0241550Y0088948D01*
X0241550Y0088349D02*
X0240950Y0088349D01*
X0240950Y0087751D02*
X0241550Y0087751D01*
X0241550Y0087152D02*
X0240950Y0087152D01*
X0240780Y0086554D02*
X0241550Y0086554D01*
X0241550Y0093138D02*
X0187550Y0093138D01*
X0187550Y0093736D02*
X0241550Y0093736D01*
X0241550Y0094335D02*
X0187550Y0094335D01*
X0187550Y0094933D02*
X0241550Y0094933D01*
X0240089Y0104847D02*
X0239941Y0104847D01*
X0191418Y0104847D01*
X0191270Y0104847D01*
X0191270Y0104846D02*
X0191120Y0104844D01*
X0190971Y0104838D01*
X0190822Y0104829D01*
X0190673Y0104816D01*
X0190524Y0104799D01*
X0190376Y0104778D01*
X0190228Y0104753D01*
X0190081Y0104725D01*
X0189935Y0104693D01*
X0189790Y0104658D01*
X0189646Y0104618D01*
X0189502Y0104575D01*
X0189360Y0104529D01*
X0189219Y0104478D01*
X0189080Y0104425D01*
X0188941Y0104367D01*
X0188805Y0104307D01*
X0188670Y0104243D01*
X0188536Y0104175D01*
X0188404Y0104104D01*
X0188274Y0104030D01*
X0188147Y0103952D01*
X0188021Y0103872D01*
X0187897Y0103788D01*
X0187775Y0103701D01*
X0187656Y0103611D01*
X0187538Y0103518D01*
X0187424Y0103422D01*
X0187311Y0103323D01*
X0187202Y0103221D01*
X0187095Y0103117D01*
X0200183Y0099123D02*
X0208244Y0099123D01*
X0208244Y0098524D02*
X0200781Y0098524D01*
X0200989Y0097926D02*
X0208244Y0097926D01*
X0208508Y0097327D02*
X0200989Y0097327D01*
X0192515Y0091941D02*
X0191915Y0091941D01*
X0191915Y0091342D02*
X0192515Y0091342D01*
X0192515Y0090743D02*
X0191915Y0090743D01*
X0191915Y0090145D02*
X0192515Y0090145D01*
X0192515Y0089546D02*
X0191915Y0089546D01*
X0187192Y0055350D02*
X0187304Y0055245D01*
X0187419Y0055143D01*
X0187536Y0055043D01*
X0187656Y0054947D01*
X0187778Y0054853D01*
X0187903Y0054763D01*
X0188030Y0054676D01*
X0188159Y0054592D01*
X0188290Y0054512D01*
X0188423Y0054435D01*
X0188559Y0054361D01*
X0188695Y0054291D01*
X0188834Y0054225D01*
X0188975Y0054162D01*
X0189116Y0054102D01*
X0189260Y0054046D01*
X0189405Y0053994D01*
X0189551Y0053946D01*
X0189698Y0053901D01*
X0189846Y0053861D01*
X0189996Y0053824D01*
X0190146Y0053790D01*
X0190297Y0053761D01*
X0190449Y0053736D01*
X0190601Y0053714D01*
X0190754Y0053696D01*
X0190907Y0053683D01*
X0191061Y0053673D01*
X0191214Y0053667D01*
X0191368Y0053665D01*
X0191369Y0053666D02*
X0191516Y0053666D01*
X0239941Y0053666D01*
X0240089Y0053666D01*
X0240089Y0053665D02*
X0240199Y0053667D01*
X0240309Y0053673D01*
X0240418Y0053682D01*
X0240527Y0053696D01*
X0240636Y0053713D01*
X0240744Y0053734D01*
X0240851Y0053759D01*
X0240957Y0053787D01*
X0241062Y0053819D01*
X0241166Y0053855D01*
X0241269Y0053894D01*
X0241370Y0053937D01*
X0241470Y0053984D01*
X0241568Y0054034D01*
X0241664Y0054087D01*
X0241758Y0054144D01*
X0241850Y0054204D01*
X0241941Y0054267D01*
X0242028Y0054333D01*
X0242114Y0054402D01*
X0242197Y0054474D01*
X0242277Y0054549D01*
X0242355Y0054627D01*
X0242430Y0054707D01*
X0242502Y0054790D01*
X0242571Y0054876D01*
X0242637Y0054963D01*
X0242700Y0055054D01*
X0242760Y0055146D01*
X0242817Y0055240D01*
X0242870Y0055336D01*
X0242920Y0055434D01*
X0242967Y0055534D01*
X0243010Y0055635D01*
X0243049Y0055738D01*
X0243085Y0055842D01*
X0243117Y0055947D01*
X0243145Y0056053D01*
X0243170Y0056160D01*
X0243191Y0056268D01*
X0243208Y0056377D01*
X0243222Y0056486D01*
X0243231Y0056595D01*
X0243237Y0056705D01*
X0243239Y0056815D01*
D11*
X0237885Y0069066D03*
X0237885Y0079066D03*
X0237885Y0089066D03*
X0192215Y0089066D03*
X0192215Y0079066D03*
X0192215Y0069066D03*
D12*
X0215050Y0058199D03*
X0215050Y0099932D03*
D13*
X0197333Y0097373D02*
X0197335Y0097447D01*
X0197341Y0097521D01*
X0197351Y0097594D01*
X0197365Y0097667D01*
X0197382Y0097739D01*
X0197404Y0097809D01*
X0197429Y0097879D01*
X0197458Y0097947D01*
X0197491Y0098013D01*
X0197527Y0098078D01*
X0197567Y0098140D01*
X0197609Y0098201D01*
X0197655Y0098259D01*
X0197704Y0098314D01*
X0197756Y0098367D01*
X0197811Y0098417D01*
X0197868Y0098463D01*
X0197928Y0098507D01*
X0197990Y0098547D01*
X0198054Y0098584D01*
X0198120Y0098618D01*
X0198188Y0098648D01*
X0198257Y0098674D01*
X0198328Y0098697D01*
X0198399Y0098715D01*
X0198472Y0098730D01*
X0198545Y0098741D01*
X0198619Y0098748D01*
X0198693Y0098751D01*
X0198766Y0098750D01*
X0198840Y0098745D01*
X0198914Y0098736D01*
X0198987Y0098723D01*
X0199059Y0098706D01*
X0199130Y0098686D01*
X0199200Y0098661D01*
X0199268Y0098633D01*
X0199335Y0098602D01*
X0199400Y0098566D01*
X0199463Y0098528D01*
X0199524Y0098486D01*
X0199583Y0098440D01*
X0199639Y0098392D01*
X0199692Y0098341D01*
X0199742Y0098287D01*
X0199790Y0098230D01*
X0199834Y0098171D01*
X0199876Y0098109D01*
X0199914Y0098046D01*
X0199948Y0097980D01*
X0199979Y0097913D01*
X0200006Y0097844D01*
X0200029Y0097774D01*
X0200049Y0097703D01*
X0200065Y0097630D01*
X0200077Y0097557D01*
X0200085Y0097484D01*
X0200089Y0097410D01*
X0200089Y0097336D01*
X0200085Y0097262D01*
X0200077Y0097189D01*
X0200065Y0097116D01*
X0200049Y0097043D01*
X0200029Y0096972D01*
X0200006Y0096902D01*
X0199979Y0096833D01*
X0199948Y0096766D01*
X0199914Y0096700D01*
X0199876Y0096637D01*
X0199834Y0096575D01*
X0199790Y0096516D01*
X0199742Y0096459D01*
X0199692Y0096405D01*
X0199639Y0096354D01*
X0199583Y0096306D01*
X0199524Y0096260D01*
X0199463Y0096218D01*
X0199400Y0096180D01*
X0199335Y0096144D01*
X0199268Y0096113D01*
X0199200Y0096085D01*
X0199130Y0096060D01*
X0199059Y0096040D01*
X0198987Y0096023D01*
X0198914Y0096010D01*
X0198840Y0096001D01*
X0198766Y0095996D01*
X0198693Y0095995D01*
X0198619Y0095998D01*
X0198545Y0096005D01*
X0198472Y0096016D01*
X0198399Y0096031D01*
X0198328Y0096049D01*
X0198257Y0096072D01*
X0198188Y0096098D01*
X0198120Y0096128D01*
X0198054Y0096162D01*
X0197990Y0096199D01*
X0197928Y0096239D01*
X0197868Y0096283D01*
X0197811Y0096329D01*
X0197756Y0096379D01*
X0197704Y0096432D01*
X0197655Y0096487D01*
X0197609Y0096545D01*
X0197567Y0096606D01*
X0197527Y0096668D01*
X0197491Y0096733D01*
X0197458Y0096799D01*
X0197429Y0096867D01*
X0197404Y0096937D01*
X0197382Y0097007D01*
X0197365Y0097079D01*
X0197351Y0097152D01*
X0197341Y0097225D01*
X0197335Y0097299D01*
X0197333Y0097373D01*
X0229617Y0061940D02*
X0229619Y0062024D01*
X0229625Y0062107D01*
X0229635Y0062190D01*
X0229649Y0062273D01*
X0229666Y0062355D01*
X0229688Y0062436D01*
X0229713Y0062515D01*
X0229742Y0062594D01*
X0229775Y0062671D01*
X0229811Y0062746D01*
X0229851Y0062820D01*
X0229894Y0062892D01*
X0229941Y0062961D01*
X0229991Y0063028D01*
X0230044Y0063093D01*
X0230100Y0063155D01*
X0230158Y0063215D01*
X0230220Y0063272D01*
X0230284Y0063325D01*
X0230351Y0063376D01*
X0230420Y0063423D01*
X0230491Y0063468D01*
X0230564Y0063508D01*
X0230639Y0063545D01*
X0230716Y0063579D01*
X0230794Y0063609D01*
X0230873Y0063635D01*
X0230954Y0063658D01*
X0231036Y0063676D01*
X0231118Y0063691D01*
X0231201Y0063702D01*
X0231284Y0063709D01*
X0231368Y0063712D01*
X0231452Y0063711D01*
X0231535Y0063706D01*
X0231619Y0063697D01*
X0231701Y0063684D01*
X0231783Y0063668D01*
X0231864Y0063647D01*
X0231945Y0063623D01*
X0232023Y0063595D01*
X0232101Y0063563D01*
X0232177Y0063527D01*
X0232251Y0063488D01*
X0232323Y0063446D01*
X0232393Y0063400D01*
X0232461Y0063351D01*
X0232526Y0063299D01*
X0232589Y0063244D01*
X0232649Y0063186D01*
X0232707Y0063125D01*
X0232761Y0063061D01*
X0232813Y0062995D01*
X0232861Y0062927D01*
X0232906Y0062856D01*
X0232947Y0062783D01*
X0232986Y0062709D01*
X0233020Y0062633D01*
X0233051Y0062555D01*
X0233078Y0062476D01*
X0233102Y0062395D01*
X0233121Y0062314D01*
X0233137Y0062232D01*
X0233149Y0062149D01*
X0233157Y0062065D01*
X0233161Y0061982D01*
X0233161Y0061898D01*
X0233157Y0061815D01*
X0233149Y0061731D01*
X0233137Y0061648D01*
X0233121Y0061566D01*
X0233102Y0061485D01*
X0233078Y0061404D01*
X0233051Y0061325D01*
X0233020Y0061247D01*
X0232986Y0061171D01*
X0232947Y0061097D01*
X0232906Y0061024D01*
X0232861Y0060953D01*
X0232813Y0060885D01*
X0232761Y0060819D01*
X0232707Y0060755D01*
X0232649Y0060694D01*
X0232589Y0060636D01*
X0232526Y0060581D01*
X0232461Y0060529D01*
X0232393Y0060480D01*
X0232323Y0060434D01*
X0232251Y0060392D01*
X0232177Y0060353D01*
X0232101Y0060317D01*
X0232023Y0060285D01*
X0231945Y0060257D01*
X0231864Y0060233D01*
X0231783Y0060212D01*
X0231701Y0060196D01*
X0231619Y0060183D01*
X0231535Y0060174D01*
X0231452Y0060169D01*
X0231368Y0060168D01*
X0231284Y0060171D01*
X0231201Y0060178D01*
X0231118Y0060189D01*
X0231036Y0060204D01*
X0230954Y0060222D01*
X0230873Y0060245D01*
X0230794Y0060271D01*
X0230716Y0060301D01*
X0230639Y0060335D01*
X0230564Y0060372D01*
X0230491Y0060412D01*
X0230420Y0060457D01*
X0230351Y0060504D01*
X0230284Y0060555D01*
X0230220Y0060608D01*
X0230158Y0060665D01*
X0230100Y0060725D01*
X0230044Y0060787D01*
X0229991Y0060852D01*
X0229941Y0060919D01*
X0229894Y0060988D01*
X0229851Y0061060D01*
X0229811Y0061134D01*
X0229775Y0061209D01*
X0229742Y0061286D01*
X0229713Y0061365D01*
X0229688Y0061444D01*
X0229666Y0061525D01*
X0229649Y0061607D01*
X0229635Y0061690D01*
X0229625Y0061773D01*
X0229619Y0061856D01*
X0229617Y0061940D01*
D14*
X0072430Y0070327D03*
X0067391Y0070327D03*
X0062391Y0070327D03*
X0057391Y0070327D03*
X0057391Y0088004D03*
X0062391Y0087923D03*
X0067391Y0088004D03*
X0072391Y0088004D03*
D15*
X0072384Y0089599D03*
X0067384Y0089599D03*
X0062384Y0089599D03*
X0057384Y0089599D03*
X0057384Y0068732D03*
X0062384Y0068732D03*
X0067384Y0068732D03*
X0072384Y0068732D03*
D16*
X0057750Y0076766D03*
X0057750Y0080266D03*
X0073250Y0084766D03*
X0077250Y0084166D03*
X0087250Y0084166D03*
X0096750Y0084166D03*
X0107750Y0084166D03*
X0118250Y0084166D03*
X0128750Y0084166D03*
X0139150Y0084166D03*
X0149250Y0084166D03*
X0159550Y0084166D03*
X0175750Y0084266D03*
X0188250Y0088266D03*
X0192250Y0092266D03*
X0187750Y0094766D03*
X0195750Y0088766D03*
X0203250Y0087566D03*
X0207250Y0092266D03*
X0215150Y0092466D03*
X0221250Y0092266D03*
X0230250Y0092266D03*
X0218850Y0087766D03*
X0212950Y0087666D03*
X0207250Y0079266D03*
X0198750Y0079266D03*
X0218250Y0078766D03*
X0223550Y0079266D03*
X0231250Y0075266D03*
X0233750Y0078966D03*
X0215250Y0068366D03*
X0207250Y0068266D03*
X0199750Y0070266D03*
X0222750Y0067266D03*
D17*
X0221050Y0070666D02*
X0204050Y0070666D01*
X0203963Y0070664D01*
X0203876Y0070658D01*
X0203789Y0070649D01*
X0203703Y0070636D01*
X0203617Y0070619D01*
X0203532Y0070598D01*
X0203449Y0070573D01*
X0203366Y0070545D01*
X0203285Y0070514D01*
X0203205Y0070479D01*
X0203127Y0070440D01*
X0203050Y0070398D01*
X0202975Y0070353D01*
X0202903Y0070304D01*
X0202832Y0070253D01*
X0202764Y0070198D01*
X0202699Y0070141D01*
X0202636Y0070080D01*
X0202575Y0070017D01*
X0202518Y0069952D01*
X0202463Y0069884D01*
X0202412Y0069813D01*
X0202363Y0069741D01*
X0202318Y0069666D01*
X0202276Y0069589D01*
X0202237Y0069511D01*
X0202202Y0069431D01*
X0202171Y0069350D01*
X0202143Y0069267D01*
X0202118Y0069184D01*
X0202097Y0069099D01*
X0202080Y0069013D01*
X0202067Y0068927D01*
X0202058Y0068840D01*
X0202052Y0068753D01*
X0202050Y0068666D01*
X0202048Y0068540D01*
X0202042Y0068415D01*
X0202032Y0068290D01*
X0202018Y0068165D01*
X0202001Y0068040D01*
X0201979Y0067916D01*
X0201954Y0067793D01*
X0201924Y0067671D01*
X0201891Y0067550D01*
X0201854Y0067430D01*
X0201814Y0067311D01*
X0201769Y0067194D01*
X0201721Y0067077D01*
X0201669Y0066963D01*
X0201614Y0066850D01*
X0201555Y0066739D01*
X0201493Y0066630D01*
X0201427Y0066523D01*
X0201358Y0066418D01*
X0201286Y0066315D01*
X0201211Y0066214D01*
X0201132Y0066116D01*
X0201050Y0066021D01*
X0200966Y0065928D01*
X0200878Y0065838D01*
X0200788Y0065750D01*
X0200695Y0065666D01*
X0200600Y0065584D01*
X0200502Y0065505D01*
X0200401Y0065430D01*
X0200298Y0065358D01*
X0200193Y0065289D01*
X0200086Y0065223D01*
X0199977Y0065161D01*
X0199866Y0065102D01*
X0199753Y0065047D01*
X0199639Y0064995D01*
X0199522Y0064947D01*
X0199405Y0064902D01*
X0199286Y0064862D01*
X0199166Y0064825D01*
X0199045Y0064792D01*
X0198923Y0064762D01*
X0198800Y0064737D01*
X0198676Y0064715D01*
X0198551Y0064698D01*
X0198426Y0064684D01*
X0198301Y0064674D01*
X0198176Y0064668D01*
X0198050Y0064666D01*
X0186550Y0064666D01*
X0186390Y0064668D01*
X0186231Y0064674D01*
X0186072Y0064684D01*
X0185913Y0064697D01*
X0185754Y0064715D01*
X0185596Y0064736D01*
X0185439Y0064762D01*
X0185282Y0064791D01*
X0185126Y0064824D01*
X0184971Y0064861D01*
X0184816Y0064901D01*
X0184663Y0064946D01*
X0184511Y0064994D01*
X0184360Y0065046D01*
X0184211Y0065102D01*
X0184063Y0065161D01*
X0183916Y0065224D01*
X0183771Y0065290D01*
X0183628Y0065360D01*
X0183486Y0065434D01*
X0183346Y0065510D01*
X0183208Y0065591D01*
X0183073Y0065674D01*
X0182939Y0065761D01*
X0182807Y0065852D01*
X0182678Y0065945D01*
X0182551Y0066042D01*
X0182426Y0066141D01*
X0182304Y0066244D01*
X0182185Y0066350D01*
X0182068Y0066458D01*
X0181954Y0066570D01*
X0181842Y0066684D01*
X0181734Y0066801D01*
X0181628Y0066920D01*
X0181525Y0067042D01*
X0181426Y0067167D01*
X0181329Y0067294D01*
X0181236Y0067423D01*
X0181145Y0067555D01*
X0181058Y0067689D01*
X0180975Y0067824D01*
X0180894Y0067962D01*
X0180818Y0068102D01*
X0180744Y0068244D01*
X0180674Y0068387D01*
X0180608Y0068532D01*
X0180545Y0068679D01*
X0180486Y0068827D01*
X0180430Y0068976D01*
X0180378Y0069127D01*
X0180330Y0069279D01*
X0180285Y0069432D01*
X0180245Y0069587D01*
X0180208Y0069742D01*
X0180175Y0069898D01*
X0180146Y0070055D01*
X0180120Y0070212D01*
X0180099Y0070370D01*
X0180081Y0070529D01*
X0180068Y0070688D01*
X0180058Y0070847D01*
X0180052Y0071006D01*
X0180050Y0071166D01*
X0182550Y0073166D02*
X0224550Y0073166D01*
X0224637Y0073164D01*
X0224724Y0073158D01*
X0224811Y0073149D01*
X0224897Y0073136D01*
X0224983Y0073119D01*
X0225068Y0073098D01*
X0225151Y0073073D01*
X0225234Y0073045D01*
X0225315Y0073014D01*
X0225395Y0072979D01*
X0225473Y0072940D01*
X0225550Y0072898D01*
X0225625Y0072853D01*
X0225697Y0072804D01*
X0225768Y0072753D01*
X0225836Y0072698D01*
X0225901Y0072641D01*
X0225964Y0072580D01*
X0226025Y0072517D01*
X0226082Y0072452D01*
X0226137Y0072384D01*
X0226188Y0072313D01*
X0226237Y0072241D01*
X0226282Y0072166D01*
X0226324Y0072089D01*
X0226363Y0072011D01*
X0226398Y0071931D01*
X0226429Y0071850D01*
X0226457Y0071767D01*
X0226482Y0071684D01*
X0226503Y0071599D01*
X0226520Y0071513D01*
X0226533Y0071427D01*
X0226542Y0071340D01*
X0226548Y0071253D01*
X0226550Y0071166D01*
X0230050Y0071166D02*
X0230048Y0071292D01*
X0230042Y0071417D01*
X0230032Y0071542D01*
X0230018Y0071667D01*
X0230001Y0071792D01*
X0229979Y0071916D01*
X0229954Y0072039D01*
X0229924Y0072161D01*
X0229891Y0072282D01*
X0229854Y0072402D01*
X0229814Y0072521D01*
X0229769Y0072638D01*
X0229721Y0072755D01*
X0229669Y0072869D01*
X0229614Y0072982D01*
X0229555Y0073093D01*
X0229493Y0073202D01*
X0229427Y0073309D01*
X0229358Y0073414D01*
X0229286Y0073517D01*
X0229211Y0073618D01*
X0229132Y0073716D01*
X0229050Y0073811D01*
X0228966Y0073904D01*
X0228878Y0073994D01*
X0228788Y0074082D01*
X0228695Y0074166D01*
X0228600Y0074248D01*
X0228502Y0074327D01*
X0228401Y0074402D01*
X0228298Y0074474D01*
X0228193Y0074543D01*
X0228086Y0074609D01*
X0227977Y0074671D01*
X0227866Y0074730D01*
X0227753Y0074785D01*
X0227639Y0074837D01*
X0227522Y0074885D01*
X0227405Y0074930D01*
X0227286Y0074970D01*
X0227166Y0075007D01*
X0227045Y0075040D01*
X0226923Y0075070D01*
X0226800Y0075095D01*
X0226676Y0075117D01*
X0226551Y0075134D01*
X0226426Y0075148D01*
X0226301Y0075158D01*
X0226176Y0075164D01*
X0226050Y0075166D01*
X0185550Y0075166D01*
X0185474Y0075168D01*
X0185398Y0075174D01*
X0185323Y0075183D01*
X0185248Y0075197D01*
X0185174Y0075214D01*
X0185101Y0075235D01*
X0185029Y0075259D01*
X0184958Y0075288D01*
X0184889Y0075319D01*
X0184822Y0075354D01*
X0184757Y0075393D01*
X0184693Y0075435D01*
X0184632Y0075480D01*
X0184573Y0075528D01*
X0184517Y0075579D01*
X0184463Y0075633D01*
X0184412Y0075689D01*
X0184364Y0075748D01*
X0184319Y0075809D01*
X0184277Y0075873D01*
X0184238Y0075938D01*
X0184203Y0076005D01*
X0184172Y0076074D01*
X0184143Y0076145D01*
X0184119Y0076217D01*
X0184098Y0076290D01*
X0184081Y0076364D01*
X0184067Y0076439D01*
X0184058Y0076514D01*
X0184052Y0076590D01*
X0184050Y0076666D01*
X0184048Y0076764D01*
X0184042Y0076862D01*
X0184033Y0076960D01*
X0184019Y0077057D01*
X0184002Y0077154D01*
X0183981Y0077250D01*
X0183956Y0077345D01*
X0183928Y0077439D01*
X0183895Y0077531D01*
X0183860Y0077623D01*
X0183820Y0077713D01*
X0183778Y0077801D01*
X0183731Y0077888D01*
X0183682Y0077972D01*
X0183629Y0078055D01*
X0183573Y0078135D01*
X0183513Y0078214D01*
X0183451Y0078290D01*
X0183386Y0078363D01*
X0183318Y0078434D01*
X0183247Y0078502D01*
X0183174Y0078567D01*
X0183098Y0078629D01*
X0183019Y0078689D01*
X0182939Y0078745D01*
X0182856Y0078798D01*
X0182772Y0078847D01*
X0182685Y0078894D01*
X0182597Y0078936D01*
X0182507Y0078976D01*
X0182415Y0079011D01*
X0182323Y0079044D01*
X0182229Y0079072D01*
X0182134Y0079097D01*
X0182038Y0079118D01*
X0181941Y0079135D01*
X0181844Y0079149D01*
X0181746Y0079158D01*
X0181648Y0079164D01*
X0181550Y0079166D01*
X0069550Y0079166D01*
X0071729Y0077666D02*
X0178050Y0077666D01*
X0175050Y0076166D02*
X0077269Y0076166D01*
X0071729Y0077666D02*
X0071598Y0077664D01*
X0071467Y0077658D01*
X0071336Y0077648D01*
X0071206Y0077634D01*
X0071076Y0077617D01*
X0070947Y0077595D01*
X0070818Y0077569D01*
X0070691Y0077540D01*
X0070564Y0077507D01*
X0070438Y0077470D01*
X0070314Y0077429D01*
X0070190Y0077384D01*
X0070069Y0077336D01*
X0069948Y0077284D01*
X0069830Y0077228D01*
X0069713Y0077169D01*
X0069597Y0077106D01*
X0069484Y0077040D01*
X0069373Y0076971D01*
X0069264Y0076898D01*
X0069157Y0076822D01*
X0069053Y0076743D01*
X0068951Y0076660D01*
X0068852Y0076575D01*
X0068755Y0076486D01*
X0068661Y0076395D01*
X0068570Y0076301D01*
X0068481Y0076204D01*
X0068396Y0076105D01*
X0068313Y0076003D01*
X0068234Y0075899D01*
X0068158Y0075792D01*
X0068085Y0075683D01*
X0068016Y0075572D01*
X0067950Y0075459D01*
X0067887Y0075343D01*
X0067828Y0075226D01*
X0067772Y0075108D01*
X0067720Y0074987D01*
X0067672Y0074866D01*
X0067627Y0074742D01*
X0067586Y0074618D01*
X0067549Y0074492D01*
X0067516Y0074365D01*
X0067487Y0074238D01*
X0067461Y0074109D01*
X0067439Y0073980D01*
X0067422Y0073850D01*
X0067408Y0073720D01*
X0067398Y0073589D01*
X0067392Y0073458D01*
X0067390Y0073327D01*
X0067391Y0073327D02*
X0067391Y0069727D01*
X0067384Y0070321D01*
X0067385Y0070321D02*
X0067411Y0070293D01*
X0067435Y0070262D01*
X0067456Y0070229D01*
X0067473Y0070195D01*
X0067488Y0070159D01*
X0067499Y0070121D01*
X0067506Y0070083D01*
X0067510Y0070045D01*
X0067511Y0070006D01*
X0067508Y0069967D01*
X0067501Y0069929D01*
X0067491Y0069892D01*
X0067477Y0069855D01*
X0067460Y0069821D01*
X0067440Y0069787D01*
X0067417Y0069756D01*
X0067391Y0069727D01*
X0072384Y0070281D02*
X0072412Y0070254D01*
X0072438Y0070225D01*
X0072460Y0070194D01*
X0072480Y0070161D01*
X0072495Y0070126D01*
X0072508Y0070089D01*
X0072517Y0070052D01*
X0072522Y0070013D01*
X0072523Y0069975D01*
X0072520Y0069936D01*
X0072514Y0069898D01*
X0072504Y0069861D01*
X0072491Y0069825D01*
X0072474Y0069790D01*
X0072453Y0069757D01*
X0072430Y0069727D01*
X0072384Y0070281D01*
X0072430Y0069727D02*
X0072430Y0071327D01*
X0072385Y0071279D01*
X0072343Y0071228D01*
X0072304Y0071176D01*
X0072267Y0071121D01*
X0072234Y0071064D01*
X0072205Y0071005D01*
X0072179Y0070945D01*
X0072156Y0070883D01*
X0072138Y0070820D01*
X0072122Y0070756D01*
X0072111Y0070691D01*
X0072103Y0070626D01*
X0072099Y0070560D01*
X0072099Y0070494D01*
X0072103Y0070428D01*
X0072111Y0070363D01*
X0072122Y0070298D01*
X0072138Y0070234D01*
X0072156Y0070171D01*
X0072179Y0070109D01*
X0072205Y0070049D01*
X0072234Y0069990D01*
X0072267Y0069933D01*
X0072304Y0069878D01*
X0072343Y0069826D01*
X0072385Y0069775D01*
X0072430Y0069727D01*
X0069550Y0079165D02*
X0069377Y0079163D01*
X0069204Y0079157D01*
X0069031Y0079146D01*
X0068859Y0079132D01*
X0068687Y0079113D01*
X0068516Y0079090D01*
X0068345Y0079063D01*
X0068175Y0079032D01*
X0068005Y0078996D01*
X0067837Y0078957D01*
X0067669Y0078914D01*
X0067503Y0078866D01*
X0067338Y0078815D01*
X0067174Y0078759D01*
X0067011Y0078700D01*
X0066850Y0078636D01*
X0066691Y0078569D01*
X0066533Y0078498D01*
X0066377Y0078424D01*
X0066223Y0078345D01*
X0066071Y0078263D01*
X0065921Y0078177D01*
X0065773Y0078087D01*
X0065627Y0077994D01*
X0065483Y0077898D01*
X0065342Y0077798D01*
X0065203Y0077694D01*
X0065067Y0077588D01*
X0064934Y0077478D01*
X0064803Y0077365D01*
X0064675Y0077248D01*
X0064549Y0077129D01*
X0064427Y0077007D01*
X0064308Y0076881D01*
X0064191Y0076753D01*
X0064078Y0076622D01*
X0063968Y0076489D01*
X0063862Y0076353D01*
X0063758Y0076214D01*
X0063658Y0076073D01*
X0063562Y0075929D01*
X0063469Y0075783D01*
X0063379Y0075635D01*
X0063293Y0075485D01*
X0063211Y0075333D01*
X0063132Y0075179D01*
X0063058Y0075023D01*
X0062987Y0074865D01*
X0062920Y0074706D01*
X0062856Y0074545D01*
X0062797Y0074382D01*
X0062741Y0074218D01*
X0062690Y0074053D01*
X0062642Y0073887D01*
X0062599Y0073719D01*
X0062560Y0073551D01*
X0062524Y0073381D01*
X0062493Y0073211D01*
X0062466Y0073040D01*
X0062443Y0072869D01*
X0062424Y0072697D01*
X0062410Y0072525D01*
X0062399Y0072352D01*
X0062393Y0072179D01*
X0062391Y0072006D01*
X0062391Y0069727D01*
X0062384Y0070321D01*
X0062385Y0070321D02*
X0062411Y0070293D01*
X0062435Y0070262D01*
X0062456Y0070229D01*
X0062473Y0070195D01*
X0062488Y0070159D01*
X0062499Y0070121D01*
X0062506Y0070083D01*
X0062510Y0070045D01*
X0062511Y0070006D01*
X0062508Y0069967D01*
X0062501Y0069929D01*
X0062491Y0069892D01*
X0062477Y0069855D01*
X0062460Y0069821D01*
X0062440Y0069787D01*
X0062417Y0069756D01*
X0062391Y0069727D01*
X0057391Y0069727D02*
X0057384Y0070321D01*
X0057385Y0070321D02*
X0057411Y0070293D01*
X0057435Y0070262D01*
X0057456Y0070229D01*
X0057473Y0070195D01*
X0057488Y0070159D01*
X0057499Y0070121D01*
X0057506Y0070083D01*
X0057510Y0070045D01*
X0057511Y0070006D01*
X0057508Y0069967D01*
X0057501Y0069929D01*
X0057491Y0069892D01*
X0057477Y0069855D01*
X0057460Y0069821D01*
X0057440Y0069787D01*
X0057417Y0069756D01*
X0057391Y0069727D01*
X0057391Y0076406D01*
X0057393Y0076444D01*
X0057399Y0076481D01*
X0057409Y0076517D01*
X0057422Y0076552D01*
X0057439Y0076586D01*
X0057460Y0076617D01*
X0057483Y0076646D01*
X0057510Y0076673D01*
X0057539Y0076696D01*
X0057571Y0076717D01*
X0057604Y0076734D01*
X0057639Y0076747D01*
X0057675Y0076757D01*
X0057712Y0076763D01*
X0057750Y0076765D01*
X0057750Y0076766D02*
X0057750Y0080266D01*
X0057750Y0087645D01*
X0057384Y0088010D02*
X0057391Y0088604D01*
X0057417Y0088575D01*
X0057440Y0088544D01*
X0057460Y0088510D01*
X0057477Y0088476D01*
X0057491Y0088439D01*
X0057501Y0088402D01*
X0057508Y0088364D01*
X0057511Y0088325D01*
X0057510Y0088286D01*
X0057506Y0088248D01*
X0057499Y0088210D01*
X0057488Y0088172D01*
X0057473Y0088136D01*
X0057456Y0088102D01*
X0057435Y0088069D01*
X0057411Y0088038D01*
X0057385Y0088010D01*
X0057750Y0087645D02*
X0057770Y0087693D01*
X0057786Y0087742D01*
X0057799Y0087792D01*
X0057808Y0087843D01*
X0057813Y0087894D01*
X0057815Y0087946D01*
X0057813Y0087998D01*
X0057807Y0088049D01*
X0057798Y0088100D01*
X0057785Y0088150D01*
X0057769Y0088199D01*
X0057749Y0088247D01*
X0057726Y0088293D01*
X0057700Y0088337D01*
X0057670Y0088380D01*
X0057637Y0088420D01*
X0057602Y0088458D01*
X0057564Y0088493D01*
X0057524Y0088525D01*
X0057482Y0088555D01*
X0057437Y0088581D01*
X0057391Y0088604D01*
X0062391Y0088524D02*
X0062417Y0088495D01*
X0062440Y0088464D01*
X0062460Y0088430D01*
X0062477Y0088396D01*
X0062491Y0088359D01*
X0062501Y0088322D01*
X0062508Y0088284D01*
X0062511Y0088245D01*
X0062510Y0088206D01*
X0062506Y0088168D01*
X0062499Y0088130D01*
X0062488Y0088092D01*
X0062473Y0088056D01*
X0062456Y0088022D01*
X0062435Y0087989D01*
X0062411Y0087958D01*
X0062385Y0087930D01*
X0062384Y0087930D02*
X0062391Y0088523D01*
X0067391Y0088604D02*
X0067417Y0088575D01*
X0067440Y0088544D01*
X0067460Y0088510D01*
X0067477Y0088476D01*
X0067491Y0088439D01*
X0067501Y0088402D01*
X0067508Y0088364D01*
X0067511Y0088325D01*
X0067510Y0088286D01*
X0067506Y0088248D01*
X0067499Y0088210D01*
X0067488Y0088172D01*
X0067473Y0088136D01*
X0067456Y0088102D01*
X0067435Y0088069D01*
X0067411Y0088038D01*
X0067385Y0088010D01*
X0067384Y0088010D02*
X0067391Y0088604D01*
X0072391Y0088604D02*
X0072417Y0088575D01*
X0072440Y0088544D01*
X0072460Y0088510D01*
X0072477Y0088476D01*
X0072491Y0088439D01*
X0072501Y0088402D01*
X0072508Y0088364D01*
X0072511Y0088325D01*
X0072510Y0088286D01*
X0072506Y0088248D01*
X0072499Y0088210D01*
X0072488Y0088172D01*
X0072473Y0088136D01*
X0072456Y0088102D01*
X0072435Y0088069D01*
X0072411Y0088038D01*
X0072385Y0088010D01*
X0072384Y0088010D02*
X0072391Y0088604D01*
X0077269Y0076166D02*
X0077131Y0076164D01*
X0076993Y0076158D01*
X0076855Y0076148D01*
X0076717Y0076134D01*
X0076580Y0076117D01*
X0076444Y0076095D01*
X0076308Y0076070D01*
X0076173Y0076040D01*
X0076039Y0076007D01*
X0075906Y0075970D01*
X0075774Y0075929D01*
X0075643Y0075885D01*
X0075513Y0075836D01*
X0075385Y0075784D01*
X0075259Y0075729D01*
X0075134Y0075670D01*
X0075011Y0075607D01*
X0074890Y0075541D01*
X0074770Y0075471D01*
X0074653Y0075398D01*
X0074538Y0075321D01*
X0074425Y0075242D01*
X0074314Y0075159D01*
X0074206Y0075073D01*
X0074100Y0074984D01*
X0073997Y0074892D01*
X0073897Y0074797D01*
X0073799Y0074699D01*
X0073704Y0074599D01*
X0073612Y0074496D01*
X0073523Y0074390D01*
X0073437Y0074282D01*
X0073354Y0074171D01*
X0073275Y0074058D01*
X0073198Y0073943D01*
X0073125Y0073826D01*
X0073055Y0073706D01*
X0072989Y0073585D01*
X0072926Y0073462D01*
X0072867Y0073337D01*
X0072812Y0073211D01*
X0072760Y0073083D01*
X0072711Y0072953D01*
X0072667Y0072822D01*
X0072626Y0072690D01*
X0072589Y0072557D01*
X0072556Y0072423D01*
X0072526Y0072288D01*
X0072501Y0072152D01*
X0072479Y0072016D01*
X0072462Y0071879D01*
X0072448Y0071741D01*
X0072438Y0071603D01*
X0072432Y0071465D01*
X0072430Y0071327D01*
X0175050Y0076166D02*
X0175190Y0076164D01*
X0175330Y0076158D01*
X0175470Y0076148D01*
X0175610Y0076135D01*
X0175749Y0076117D01*
X0175888Y0076095D01*
X0176025Y0076070D01*
X0176163Y0076041D01*
X0176299Y0076008D01*
X0176434Y0075971D01*
X0176568Y0075930D01*
X0176701Y0075885D01*
X0176833Y0075837D01*
X0176963Y0075785D01*
X0177092Y0075730D01*
X0177219Y0075671D01*
X0177345Y0075608D01*
X0177469Y0075542D01*
X0177590Y0075473D01*
X0177710Y0075400D01*
X0177828Y0075323D01*
X0177943Y0075244D01*
X0178057Y0075161D01*
X0178167Y0075075D01*
X0178276Y0074986D01*
X0178382Y0074894D01*
X0178485Y0074799D01*
X0178586Y0074702D01*
X0178683Y0074601D01*
X0178778Y0074498D01*
X0178870Y0074392D01*
X0178959Y0074283D01*
X0179045Y0074173D01*
X0179128Y0074059D01*
X0179207Y0073944D01*
X0179284Y0073826D01*
X0179357Y0073706D01*
X0179426Y0073585D01*
X0179492Y0073461D01*
X0179555Y0073335D01*
X0179614Y0073208D01*
X0179669Y0073079D01*
X0179721Y0072949D01*
X0179769Y0072817D01*
X0179814Y0072684D01*
X0179855Y0072550D01*
X0179892Y0072415D01*
X0179925Y0072279D01*
X0179954Y0072141D01*
X0179979Y0072004D01*
X0180001Y0071865D01*
X0180019Y0071726D01*
X0180032Y0071586D01*
X0180042Y0071446D01*
X0180048Y0071306D01*
X0180050Y0071166D01*
X0181050Y0074666D02*
X0181048Y0074773D01*
X0181042Y0074880D01*
X0181033Y0074987D01*
X0181019Y0075093D01*
X0181002Y0075199D01*
X0180981Y0075304D01*
X0180957Y0075408D01*
X0180928Y0075511D01*
X0180896Y0075613D01*
X0180861Y0075714D01*
X0180822Y0075814D01*
X0180779Y0075912D01*
X0180733Y0076009D01*
X0180683Y0076104D01*
X0180630Y0076197D01*
X0180574Y0076288D01*
X0180514Y0076377D01*
X0180452Y0076464D01*
X0180386Y0076548D01*
X0180317Y0076631D01*
X0180246Y0076710D01*
X0180171Y0076787D01*
X0180094Y0076862D01*
X0180015Y0076933D01*
X0179932Y0077002D01*
X0179848Y0077068D01*
X0179761Y0077130D01*
X0179672Y0077190D01*
X0179581Y0077246D01*
X0179488Y0077299D01*
X0179393Y0077349D01*
X0179296Y0077395D01*
X0179198Y0077438D01*
X0179098Y0077477D01*
X0178997Y0077512D01*
X0178895Y0077544D01*
X0178792Y0077573D01*
X0178688Y0077597D01*
X0178583Y0077618D01*
X0178477Y0077635D01*
X0178371Y0077649D01*
X0178264Y0077658D01*
X0178157Y0077664D01*
X0178050Y0077666D01*
X0181050Y0074666D02*
X0181052Y0074590D01*
X0181058Y0074514D01*
X0181067Y0074439D01*
X0181081Y0074364D01*
X0181098Y0074290D01*
X0181119Y0074217D01*
X0181143Y0074145D01*
X0181172Y0074074D01*
X0181203Y0074005D01*
X0181238Y0073938D01*
X0181277Y0073873D01*
X0181319Y0073809D01*
X0181364Y0073748D01*
X0181412Y0073689D01*
X0181463Y0073633D01*
X0181517Y0073579D01*
X0181573Y0073528D01*
X0181632Y0073480D01*
X0181693Y0073435D01*
X0181757Y0073393D01*
X0181822Y0073354D01*
X0181889Y0073319D01*
X0181958Y0073288D01*
X0182029Y0073259D01*
X0182101Y0073235D01*
X0182174Y0073214D01*
X0182248Y0073197D01*
X0182323Y0073183D01*
X0182398Y0073174D01*
X0182474Y0073168D01*
X0182550Y0073166D01*
X0187415Y0084266D02*
X0175750Y0084266D01*
X0187415Y0084266D02*
X0187546Y0084268D01*
X0187678Y0084274D01*
X0187809Y0084283D01*
X0187939Y0084297D01*
X0188070Y0084314D01*
X0188199Y0084335D01*
X0188328Y0084359D01*
X0188457Y0084388D01*
X0188584Y0084420D01*
X0188710Y0084456D01*
X0188836Y0084495D01*
X0188960Y0084538D01*
X0189083Y0084585D01*
X0189204Y0084635D01*
X0189324Y0084689D01*
X0189442Y0084746D01*
X0189559Y0084807D01*
X0189673Y0084871D01*
X0189786Y0084939D01*
X0189897Y0085009D01*
X0190006Y0085083D01*
X0190112Y0085160D01*
X0190217Y0085240D01*
X0190318Y0085323D01*
X0190418Y0085409D01*
X0190515Y0085497D01*
X0190609Y0085589D01*
X0190701Y0085683D01*
X0190789Y0085780D01*
X0190875Y0085880D01*
X0190958Y0085981D01*
X0191038Y0086086D01*
X0191115Y0086192D01*
X0191189Y0086301D01*
X0191259Y0086412D01*
X0191327Y0086524D01*
X0191391Y0086639D01*
X0191452Y0086756D01*
X0191509Y0086874D01*
X0191563Y0086994D01*
X0191613Y0087115D01*
X0191660Y0087238D01*
X0191703Y0087362D01*
X0191742Y0087488D01*
X0191778Y0087614D01*
X0191810Y0087741D01*
X0191839Y0087870D01*
X0191863Y0087999D01*
X0191884Y0088128D01*
X0191901Y0088259D01*
X0191915Y0088389D01*
X0191924Y0088520D01*
X0191930Y0088652D01*
X0191932Y0088783D01*
X0235450Y0089066D02*
X0237885Y0089066D01*
X0235450Y0089066D02*
X0235344Y0089064D01*
X0235238Y0089058D01*
X0235133Y0089049D01*
X0235028Y0089035D01*
X0234923Y0089018D01*
X0234819Y0088997D01*
X0234716Y0088972D01*
X0234615Y0088943D01*
X0234514Y0088911D01*
X0234414Y0088875D01*
X0234316Y0088835D01*
X0234219Y0088792D01*
X0234124Y0088745D01*
X0234031Y0088695D01*
X0233939Y0088641D01*
X0233850Y0088585D01*
X0233763Y0088525D01*
X0233678Y0088461D01*
X0233595Y0088395D01*
X0233515Y0088326D01*
X0233437Y0088254D01*
X0233362Y0088179D01*
X0233290Y0088101D01*
X0233221Y0088021D01*
X0233155Y0087938D01*
X0233091Y0087853D01*
X0233031Y0087766D01*
X0232975Y0087677D01*
X0232921Y0087585D01*
X0232871Y0087492D01*
X0232824Y0087397D01*
X0232781Y0087300D01*
X0232741Y0087202D01*
X0232705Y0087102D01*
X0232673Y0087001D01*
X0232644Y0086900D01*
X0232619Y0086797D01*
X0232598Y0086693D01*
X0232581Y0086588D01*
X0232567Y0086483D01*
X0232558Y0086378D01*
X0232552Y0086272D01*
X0232550Y0086166D01*
X0230050Y0071166D02*
X0230052Y0071077D01*
X0230058Y0070988D01*
X0230067Y0070899D01*
X0230080Y0070811D01*
X0230097Y0070724D01*
X0230118Y0070637D01*
X0230142Y0070551D01*
X0230170Y0070466D01*
X0230201Y0070383D01*
X0230236Y0070301D01*
X0230275Y0070221D01*
X0230317Y0070142D01*
X0230362Y0070065D01*
X0230410Y0069990D01*
X0230462Y0069917D01*
X0230516Y0069847D01*
X0230574Y0069779D01*
X0230634Y0069713D01*
X0230697Y0069650D01*
X0230763Y0069590D01*
X0230831Y0069532D01*
X0230901Y0069478D01*
X0230974Y0069426D01*
X0231049Y0069378D01*
X0231126Y0069333D01*
X0231205Y0069291D01*
X0231285Y0069252D01*
X0231367Y0069217D01*
X0231450Y0069186D01*
X0231535Y0069158D01*
X0231621Y0069134D01*
X0231708Y0069113D01*
X0231795Y0069096D01*
X0231883Y0069083D01*
X0231972Y0069074D01*
X0232061Y0069068D01*
X0232150Y0069066D01*
X0237550Y0069066D01*
D18*
X0226550Y0071166D03*
X0221050Y0070666D03*
X0196050Y0069166D03*
X0186550Y0078166D03*
X0232550Y0086166D03*
M02*
