G04 #@! TF.GenerationSoftware,KiCad,Pcbnew,(5.1.6-87-g1447494bc)*
G04 #@! TF.CreationDate,2020-12-18T18:28:38-06:00*
G04 #@! TF.ProjectId,mff2-to-4ffnano,6d666632-2d74-46f2-9d34-66666e616e6f,v1.0*
G04 #@! TF.SameCoordinates,Original*
G04 #@! TF.FileFunction,Soldermask,Top*
G04 #@! TF.FilePolarity,Negative*
%FSLAX46Y46*%
G04 Gerber Fmt 4.6, Leading zero omitted, Abs format (unit mm)*
G04 Created by KiCad (PCBNEW (5.1.6-87-g1447494bc)) date 2020-12-18 18:28:38*
%MOMM*%
%LPD*%
G01*
G04 APERTURE LIST*
%ADD10C,0.100000*%
%ADD11C,0.962000*%
%ADD12C,0.900000*%
%ADD13C,1.100000*%
G04 APERTURE END LIST*
D10*
G36*
X122680000Y-128300000D02*
G01*
X122680000Y-129100000D01*
X121920000Y-129100000D01*
X121920000Y-128300000D01*
X122680000Y-128300000D01*
G37*
X122680000Y-128300000D02*
X122680000Y-129100000D01*
X121920000Y-129100000D01*
X121920000Y-128300000D01*
X122680000Y-128300000D01*
G36*
X121420000Y-128300000D02*
G01*
X121420000Y-129100000D01*
X120660000Y-129100000D01*
X120660000Y-128300000D01*
X121420000Y-128300000D01*
G37*
X121420000Y-128300000D02*
X121420000Y-129100000D01*
X120660000Y-129100000D01*
X120660000Y-128300000D01*
X121420000Y-128300000D01*
G36*
X120130000Y-128300000D02*
G01*
X120130000Y-129100000D01*
X119370000Y-129100000D01*
X119370000Y-128300000D01*
X120130000Y-128300000D01*
G37*
X120130000Y-128300000D02*
X120130000Y-129100000D01*
X119370000Y-129100000D01*
X119370000Y-128300000D01*
X120130000Y-128300000D01*
G36*
X118870000Y-128300000D02*
G01*
X118870000Y-129100000D01*
X118110000Y-129100000D01*
X118110000Y-128300000D01*
X118870000Y-128300000D01*
G37*
X118870000Y-128300000D02*
X118870000Y-129100000D01*
X118110000Y-129100000D01*
X118110000Y-128300000D01*
X118870000Y-128300000D01*
G36*
X122680000Y-132700000D02*
G01*
X122680000Y-133500000D01*
X121920000Y-133500000D01*
X121920000Y-132700000D01*
X122680000Y-132700000D01*
G37*
X122680000Y-132700000D02*
X122680000Y-133500000D01*
X121920000Y-133500000D01*
X121920000Y-132700000D01*
X122680000Y-132700000D01*
G36*
X121420000Y-132700000D02*
G01*
X121420000Y-133500000D01*
X120660000Y-133500000D01*
X120660000Y-132700000D01*
X121420000Y-132700000D01*
G37*
X121420000Y-132700000D02*
X121420000Y-133500000D01*
X120660000Y-133500000D01*
X120660000Y-132700000D01*
X121420000Y-132700000D01*
G36*
X120140000Y-132700000D02*
G01*
X120140000Y-133500000D01*
X119380000Y-133500000D01*
X119380000Y-132700000D01*
X120140000Y-132700000D01*
G37*
X120140000Y-132700000D02*
X120140000Y-133500000D01*
X119380000Y-133500000D01*
X119380000Y-132700000D01*
X120140000Y-132700000D01*
G36*
X118880000Y-132700000D02*
G01*
X118880000Y-133500000D01*
X118110000Y-133500000D01*
X118110000Y-132700000D01*
X118880000Y-132700000D01*
G37*
X118880000Y-132700000D02*
X118880000Y-133500000D01*
X118110000Y-133500000D01*
X118110000Y-132700000D01*
X118880000Y-132700000D01*
D11*
X122305000Y-128300000D03*
X121035000Y-128300000D03*
X119765000Y-128300000D03*
X118495000Y-128300000D03*
X122305000Y-133500000D03*
X121035000Y-133500000D03*
X119765000Y-133500000D03*
X118495000Y-133500000D03*
G36*
G01*
X153430001Y-131531600D02*
X152329999Y-131531600D01*
G75*
G02*
X152228400Y-131430001I0J101599D01*
G01*
X152228400Y-130429999D01*
G75*
G02*
X152329999Y-130328400I101599J0D01*
G01*
X153430001Y-130328400D01*
G75*
G02*
X153531600Y-130429999I0J-101599D01*
G01*
X153531600Y-131430001D01*
G75*
G02*
X153430001Y-131531600I-101599J0D01*
G01*
G37*
G36*
G01*
X153430001Y-134071600D02*
X152329999Y-134071600D01*
G75*
G02*
X152228400Y-133970001I0J101599D01*
G01*
X152228400Y-132969999D01*
G75*
G02*
X152329999Y-132868400I101599J0D01*
G01*
X153430001Y-132868400D01*
G75*
G02*
X153531600Y-132969999I0J-101599D01*
G01*
X153531600Y-133970001D01*
G75*
G02*
X153430001Y-134071600I-101599J0D01*
G01*
G37*
G36*
G01*
X153430001Y-128991600D02*
X152329999Y-128991600D01*
G75*
G02*
X152228400Y-128890001I0J101599D01*
G01*
X152228400Y-127889999D01*
G75*
G02*
X152329999Y-127788400I101599J0D01*
G01*
X153430001Y-127788400D01*
G75*
G02*
X153531600Y-127889999I0J-101599D01*
G01*
X153531600Y-128890001D01*
G75*
G02*
X153430001Y-128991600I-101599J0D01*
G01*
G37*
G36*
G01*
X165030001Y-131531600D02*
X163929999Y-131531600D01*
G75*
G02*
X163828400Y-131430001I0J101599D01*
G01*
X163828400Y-130429999D01*
G75*
G02*
X163929999Y-130328400I101599J0D01*
G01*
X165030001Y-130328400D01*
G75*
G02*
X165131600Y-130429999I0J-101599D01*
G01*
X165131600Y-131430001D01*
G75*
G02*
X165030001Y-131531600I-101599J0D01*
G01*
G37*
G36*
G01*
X165030001Y-134071600D02*
X163929999Y-134071600D01*
G75*
G02*
X163828400Y-133970001I0J101599D01*
G01*
X163828400Y-132969999D01*
G75*
G02*
X163929999Y-132868400I101599J0D01*
G01*
X165030001Y-132868400D01*
G75*
G02*
X165131600Y-132969999I0J-101599D01*
G01*
X165131600Y-133970001D01*
G75*
G02*
X165030001Y-134071600I-101599J0D01*
G01*
G37*
G36*
G01*
X165030001Y-128991600D02*
X163929999Y-128991600D01*
G75*
G02*
X163828400Y-128890001I0J101599D01*
G01*
X163828400Y-127889999D01*
G75*
G02*
X163929999Y-127788400I101599J0D01*
G01*
X165030001Y-127788400D01*
G75*
G02*
X165131600Y-127889999I0J-101599D01*
G01*
X165131600Y-128890001D01*
G75*
G02*
X165030001Y-128991600I-101599J0D01*
G01*
G37*
G36*
G01*
X160180001Y-136831600D02*
X157179999Y-136831600D01*
G75*
G02*
X157078400Y-136730001I0J101599D01*
G01*
X157078400Y-135729999D01*
G75*
G02*
X157179999Y-135628400I101599J0D01*
G01*
X160180001Y-135628400D01*
G75*
G02*
X160281600Y-135729999I0J-101599D01*
G01*
X160281600Y-136730001D01*
G75*
G02*
X160180001Y-136831600I-101599J0D01*
G01*
G37*
G36*
G01*
X160180001Y-126231600D02*
X157179999Y-126231600D01*
G75*
G02*
X157078400Y-126130001I0J101599D01*
G01*
X157078400Y-125129999D01*
G75*
G02*
X157179999Y-125028400I101599J0D01*
G01*
X160180001Y-125028400D01*
G75*
G02*
X160281600Y-125129999I0J-101599D01*
G01*
X160281600Y-126130001D01*
G75*
G02*
X160180001Y-126231600I-101599J0D01*
G01*
G37*
D12*
X154530000Y-126280000D03*
D13*
X162830000Y-135280000D03*
M02*
