G04 #@! TF.GenerationSoftware,KiCad,Pcbnew,(5.1.6-87-g1447494bc)*
G04 #@! TF.CreationDate,2020-12-18T18:28:38-06:00*
G04 #@! TF.ProjectId,mff2-to-4ffnano,6d666632-2d74-46f2-9d34-66666e616e6f,v1.0*
G04 #@! TF.SameCoordinates,Original*
G04 #@! TF.FileFunction,Copper,L1,Top*
G04 #@! TF.FilePolarity,Positive*
%FSLAX46Y46*%
G04 Gerber Fmt 4.6, Leading zero omitted, Abs format (unit mm)*
G04 Created by KiCad (PCBNEW (5.1.6-87-g1447494bc)) date 2020-12-18 18:28:38*
%MOMM*%
%LPD*%
G01*
G04 APERTURE LIST*
G04 #@! TA.AperFunction,EtchedComponent*
%ADD10C,0.100000*%
G04 #@! TD*
G04 #@! TA.AperFunction,ComponentPad*
%ADD11C,0.762000*%
G04 #@! TD*
G04 #@! TA.AperFunction,SMDPad,CuDef*
%ADD12R,1.100000X1.000000*%
G04 #@! TD*
G04 #@! TA.AperFunction,SMDPad,CuDef*
%ADD13R,3.000000X1.000000*%
G04 #@! TD*
G04 #@! TA.AperFunction,ViaPad*
%ADD14C,0.609600*%
G04 #@! TD*
G04 #@! TA.AperFunction,Conductor*
%ADD15C,0.152400*%
G04 #@! TD*
G04 #@! TA.AperFunction,Conductor*
%ADD16C,0.254000*%
G04 #@! TD*
G04 APERTURE END LIST*
D10*
G36*
X122680000Y-128300000D02*
G01*
X122680000Y-129100000D01*
X121920000Y-129100000D01*
X121920000Y-128300000D01*
X122680000Y-128300000D01*
G37*
X122680000Y-128300000D02*
X122680000Y-129100000D01*
X121920000Y-129100000D01*
X121920000Y-128300000D01*
X122680000Y-128300000D01*
G36*
X121420000Y-128300000D02*
G01*
X121420000Y-129100000D01*
X120660000Y-129100000D01*
X120660000Y-128300000D01*
X121420000Y-128300000D01*
G37*
X121420000Y-128300000D02*
X121420000Y-129100000D01*
X120660000Y-129100000D01*
X120660000Y-128300000D01*
X121420000Y-128300000D01*
G36*
X120130000Y-128300000D02*
G01*
X120130000Y-129100000D01*
X119370000Y-129100000D01*
X119370000Y-128300000D01*
X120130000Y-128300000D01*
G37*
X120130000Y-128300000D02*
X120130000Y-129100000D01*
X119370000Y-129100000D01*
X119370000Y-128300000D01*
X120130000Y-128300000D01*
G36*
X118870000Y-128300000D02*
G01*
X118870000Y-129100000D01*
X118110000Y-129100000D01*
X118110000Y-128300000D01*
X118870000Y-128300000D01*
G37*
X118870000Y-128300000D02*
X118870000Y-129100000D01*
X118110000Y-129100000D01*
X118110000Y-128300000D01*
X118870000Y-128300000D01*
G36*
X118880000Y-132700000D02*
G01*
X118880000Y-133500000D01*
X118110000Y-133500000D01*
X118110000Y-132700000D01*
X118880000Y-132700000D01*
G37*
X118880000Y-132700000D02*
X118880000Y-133500000D01*
X118110000Y-133500000D01*
X118110000Y-132700000D01*
X118880000Y-132700000D01*
G36*
X120140000Y-132700000D02*
G01*
X120140000Y-133500000D01*
X119380000Y-133500000D01*
X119380000Y-132700000D01*
X120140000Y-132700000D01*
G37*
X120140000Y-132700000D02*
X120140000Y-133500000D01*
X119380000Y-133500000D01*
X119380000Y-132700000D01*
X120140000Y-132700000D01*
G36*
X121420000Y-132700000D02*
G01*
X121420000Y-133500000D01*
X120660000Y-133500000D01*
X120660000Y-132700000D01*
X121420000Y-132700000D01*
G37*
X121420000Y-132700000D02*
X121420000Y-133500000D01*
X120660000Y-133500000D01*
X120660000Y-132700000D01*
X121420000Y-132700000D01*
G36*
X122680000Y-132700000D02*
G01*
X122680000Y-133500000D01*
X121920000Y-133500000D01*
X121920000Y-132700000D01*
X122680000Y-132700000D01*
G37*
X122680000Y-132700000D02*
X122680000Y-133500000D01*
X121920000Y-133500000D01*
X121920000Y-132700000D01*
X122680000Y-132700000D01*
D11*
X122305000Y-128300000D03*
X121035000Y-128300000D03*
X119765000Y-128300000D03*
X118495000Y-128300000D03*
X122305000Y-133500000D03*
X121035000Y-133500000D03*
X119765000Y-133500000D03*
X118495000Y-133500000D03*
D12*
X152880000Y-130930000D03*
X152880000Y-133470000D03*
X152880000Y-128390000D03*
X164480000Y-130930000D03*
X164480000Y-133470000D03*
X164480000Y-128390000D03*
D13*
X158680000Y-136230000D03*
X158680000Y-125630000D03*
D14*
X151540000Y-130650000D03*
X151550006Y-128760000D03*
X162115000Y-132195000D03*
X162110000Y-129700000D03*
X160610000Y-128700000D03*
X160610002Y-130470000D03*
D15*
X119765000Y-131535000D02*
X119954811Y-131345189D01*
X119765000Y-133500000D02*
X119765000Y-131535000D01*
X152464811Y-131345189D02*
X152880000Y-130930000D01*
X119954811Y-131345189D02*
X152464811Y-131345189D01*
X121035000Y-132895000D02*
X121035000Y-133500000D01*
X152880000Y-133470000D02*
X152820000Y-133470000D01*
X121035000Y-131765000D02*
X121035000Y-132895000D01*
X151000000Y-131650000D02*
X121150000Y-131650000D01*
X121150000Y-131650000D02*
X121035000Y-131765000D01*
X152820000Y-133470000D02*
X151000000Y-131650000D01*
X152870000Y-128400000D02*
X152880000Y-128390000D01*
D16*
X152870000Y-128400000D02*
X151910006Y-128400000D01*
X151910006Y-128400000D02*
X151550006Y-128760000D01*
D15*
X151149622Y-131040378D02*
X151540000Y-130650000D01*
X119599622Y-131040378D02*
X151149622Y-131040378D01*
X118495000Y-132145000D02*
X119599622Y-131040378D01*
X118495000Y-133500000D02*
X118495000Y-132145000D01*
D16*
X155210000Y-129840000D02*
X154720000Y-129840000D01*
X161080000Y-129840000D02*
X155210000Y-129840000D01*
X162170000Y-130930000D02*
X161080000Y-129840000D01*
X164480000Y-130930000D02*
X162170000Y-130930000D01*
D15*
X154595189Y-129715189D02*
X154720000Y-129840000D01*
X119765000Y-128300000D02*
X119765000Y-130245000D01*
X151083744Y-129715189D02*
X154595189Y-129715189D01*
X119950756Y-130430756D02*
X150368177Y-130430756D01*
X119765000Y-130245000D02*
X119950756Y-130430756D01*
X150368177Y-130430756D02*
X151083744Y-129715189D01*
X164470000Y-133460000D02*
X164480000Y-133470000D01*
D16*
X163380000Y-133460000D02*
X162115000Y-132195000D01*
X164470000Y-133460000D02*
X163380000Y-133460000D01*
D15*
X154250000Y-129410000D02*
X154340000Y-129320000D01*
X150957868Y-129410000D02*
X154250000Y-129410000D01*
X150247868Y-130120000D02*
X150957868Y-129410000D01*
D16*
X154340000Y-129320000D02*
X160140631Y-129320000D01*
X160140631Y-129320000D02*
X160141243Y-129319388D01*
X161729388Y-129319388D02*
X162110000Y-129700000D01*
X160141243Y-129319388D02*
X161729388Y-129319388D01*
D15*
X150247868Y-130120000D02*
X131220000Y-130120000D01*
X131220000Y-130120000D02*
X131214054Y-130125946D01*
X131214054Y-130125946D02*
X121125946Y-130125946D01*
X121035000Y-130035000D02*
X121035000Y-128503610D01*
X121125946Y-130125946D02*
X121035000Y-130035000D01*
D16*
X160920000Y-128390000D02*
X164480000Y-128390000D01*
X160610000Y-128700000D02*
X160920000Y-128390000D01*
X160540002Y-130400000D02*
X160610002Y-130470000D01*
X154630000Y-130400000D02*
X160540002Y-130400000D01*
X154460000Y-130230000D02*
X154630000Y-130400000D01*
D15*
X118495000Y-129665000D02*
X118495000Y-128300000D01*
X119565567Y-130735567D02*
X118495000Y-129665000D01*
X151210000Y-130020000D02*
X150494433Y-130735567D01*
X150494433Y-130735567D02*
X119565567Y-130735567D01*
X154250000Y-130020000D02*
X151210000Y-130020000D01*
X154460000Y-130230000D02*
X154250000Y-130020000D01*
M02*
