%
M48
M72
T01C0.00787
T02C0.02008
T03C0.02756
T04C0.03543
%
T01
X57750Y63700
X60250Y64200
X57750Y67200
X70750Y70700
X77250Y71100
X87250Y71100
X96750Y71100
X107750Y71100
X118250Y71100
X128750Y71100
X139150Y71100
X149250Y71100
X159550Y71100
X175250Y70700
X182750Y76200
X188250Y75200
X192250Y79200
X195750Y75700
X203250Y74500
X207250Y79200
X212950Y74600
X218850Y74700
X221650Y72100
X226650Y71900
X225950Y68600
X223550Y66200
X218250Y65700
X207250Y66200
X198750Y66200
X186550Y63800
X198750Y55700
X207250Y55200
X215250Y55300
X222750Y54200
X233750Y55900
X231250Y62200
X233750Y65900
X230250Y79200
X221250Y79200
X187750Y81700
T02
X57476Y55667
X62476Y55667
X67476Y55667
X72476Y55667
X72476Y76533
X67476Y76533
X62476Y76533
X57476Y76533
T03
X198711Y84307
T04
X231389Y48874
M30
