G75*
%MOIN*%
%OFA0B0*%
%FSLAX25Y25*%
%IPPOS*%
%LPD*%
%AMOC8*
5,1,8,0,0,1.08239X$1,22.5*
%
%ADD10C,0.00600*%
%ADD11R,0.04331X0.03937*%
%ADD12R,0.11811X0.03937*%
%ADD13C,0.00000*%
%ADD14R,0.03150X0.02992*%
%ADD15C,0.03012*%
%ADD16C,0.01587*%
%ADD17C,0.02000*%
D10*
X0084622Y0059490D02*
X0089445Y0059490D01*
X0089547Y0059498D02*
X0182074Y0059498D01*
X0182221Y0059498D01*
X0186397Y0057812D02*
X0202005Y0042285D01*
X0204862Y0043100D02*
X0202362Y0045600D01*
X0202362Y0058400D01*
X0204021Y0058400D01*
X0203962Y0058341D01*
X0203962Y0053659D01*
X0204489Y0053131D01*
X0209565Y0053131D01*
X0210093Y0053659D01*
X0210093Y0054100D01*
X0211649Y0054100D01*
X0212762Y0055213D01*
X0212762Y0056787D01*
X0211649Y0057900D01*
X0210093Y0057900D01*
X0210093Y0058341D01*
X0210034Y0058400D01*
X0238175Y0058400D01*
X0238675Y0057900D01*
X0240249Y0057900D01*
X0241362Y0059013D01*
X0241362Y0059839D01*
X0241607Y0059414D01*
X0241662Y0059000D01*
X0241662Y0057875D01*
X0242787Y0055925D01*
X0244736Y0054800D01*
X0249631Y0054800D01*
X0249631Y0053659D01*
X0250158Y0053131D01*
X0255235Y0053131D01*
X0255762Y0053659D01*
X0255762Y0058341D01*
X0255235Y0058868D01*
X0250158Y0058868D01*
X0249631Y0058341D01*
X0249631Y0057200D01*
X0245862Y0057200D01*
X0245396Y0057261D01*
X0244589Y0057727D01*
X0244123Y0058534D01*
X0244062Y0059000D01*
X0244062Y0060072D01*
X0242990Y0061928D01*
X0242990Y0061928D01*
X0241134Y0063000D01*
X0202362Y0063000D01*
X0202362Y0068200D01*
X0203359Y0068200D01*
X0204452Y0068831D01*
X0203962Y0068341D01*
X0203962Y0063659D01*
X0204489Y0063131D01*
X0209565Y0063131D01*
X0210093Y0063659D01*
X0210093Y0068341D01*
X0209565Y0068868D01*
X0204516Y0068868D01*
X0204565Y0068897D01*
X0205262Y0070103D01*
X0205262Y0070800D01*
X0205262Y0072000D02*
X0205195Y0071998D01*
X0205128Y0071992D01*
X0205061Y0071983D01*
X0204995Y0071970D01*
X0204930Y0071953D01*
X0204866Y0071933D01*
X0204803Y0071909D01*
X0204741Y0071881D01*
X0204682Y0071850D01*
X0204624Y0071816D01*
X0204568Y0071779D01*
X0204514Y0071738D01*
X0204462Y0071695D01*
X0204413Y0071649D01*
X0204367Y0071600D01*
X0204324Y0071548D01*
X0204283Y0071494D01*
X0204246Y0071438D01*
X0204212Y0071380D01*
X0204181Y0071321D01*
X0204153Y0071259D01*
X0204129Y0071196D01*
X0204109Y0071132D01*
X0204092Y0071067D01*
X0204079Y0071001D01*
X0204070Y0070934D01*
X0204064Y0070867D01*
X0204062Y0070800D01*
X0205262Y0070800D02*
X0244012Y0070800D01*
X0245312Y0071550D01*
X0246062Y0072850D01*
X0246062Y0074400D01*
X0246075Y0074504D01*
X0246179Y0074683D01*
X0246358Y0074786D01*
X0246462Y0074800D01*
X0249631Y0074800D01*
X0249631Y0073659D01*
X0250158Y0073131D01*
X0255235Y0073131D01*
X0255762Y0073659D01*
X0255762Y0078341D01*
X0255235Y0078868D01*
X0250158Y0078868D01*
X0249631Y0078341D01*
X0249631Y0077200D01*
X0245712Y0077200D01*
X0244412Y0076450D01*
X0244412Y0076450D01*
X0244412Y0076450D01*
X0243662Y0075150D01*
X0243662Y0073600D01*
X0243648Y0073496D01*
X0243545Y0073317D01*
X0243365Y0073214D01*
X0243262Y0073200D01*
X0209917Y0073200D01*
X0210073Y0073356D01*
X0210218Y0073607D01*
X0210293Y0073887D01*
X0210293Y0075700D01*
X0207327Y0075700D01*
X0207327Y0076300D01*
X0206727Y0076300D01*
X0206727Y0075700D01*
X0203762Y0075700D01*
X0203762Y0073887D01*
X0203837Y0073607D01*
X0203982Y0073356D01*
X0204186Y0073151D01*
X0204360Y0073051D01*
X0203505Y0072557D01*
X0203505Y0072557D01*
X0203505Y0072557D01*
X0202862Y0071443D01*
X0202862Y0070800D01*
X0202855Y0070748D01*
X0202803Y0070659D01*
X0202714Y0070607D01*
X0202662Y0070600D01*
X0202362Y0070600D01*
X0202362Y0088100D01*
X0202862Y0088600D01*
X0223056Y0088600D01*
X0223056Y0084525D01*
X0223584Y0083998D01*
X0236140Y0083998D01*
X0236667Y0084525D01*
X0236667Y0088600D01*
X0253862Y0088600D01*
X0256362Y0086100D01*
X0256362Y0044600D01*
X0254862Y0043100D01*
X0236667Y0043100D01*
X0236667Y0047475D01*
X0236140Y0048002D01*
X0223584Y0048002D01*
X0223056Y0047475D01*
X0223056Y0043100D01*
X0204862Y0043100D01*
X0204399Y0043563D02*
X0223056Y0043563D01*
X0223056Y0044161D02*
X0203801Y0044161D01*
X0203202Y0044760D02*
X0223056Y0044760D01*
X0223056Y0045358D02*
X0202604Y0045358D01*
X0202362Y0045957D02*
X0223056Y0045957D01*
X0223056Y0046555D02*
X0202362Y0046555D01*
X0202362Y0047154D02*
X0223056Y0047154D01*
X0223334Y0047752D02*
X0202362Y0047752D01*
X0202362Y0048351D02*
X0243529Y0048351D01*
X0243529Y0048343D02*
X0243936Y0047361D01*
X0244687Y0046609D01*
X0245669Y0046202D01*
X0246732Y0046202D01*
X0247714Y0046609D01*
X0248465Y0047361D01*
X0248872Y0048343D01*
X0248872Y0049405D01*
X0248465Y0050387D01*
X0247714Y0051139D01*
X0246732Y0051546D01*
X0245669Y0051546D01*
X0244687Y0051139D01*
X0243936Y0050387D01*
X0243529Y0049405D01*
X0243529Y0048343D01*
X0243529Y0048949D02*
X0202362Y0048949D01*
X0202362Y0049548D02*
X0243588Y0049548D01*
X0243836Y0050146D02*
X0202362Y0050146D01*
X0202362Y0050745D02*
X0244293Y0050745D01*
X0245181Y0051343D02*
X0202362Y0051343D01*
X0202362Y0051942D02*
X0256362Y0051942D01*
X0256362Y0052540D02*
X0202362Y0052540D01*
X0202262Y0052600D02*
X0211462Y0052600D01*
X0210093Y0053737D02*
X0249631Y0053737D01*
X0249631Y0054336D02*
X0211885Y0054336D01*
X0213562Y0054700D02*
X0213560Y0054611D01*
X0213554Y0054522D01*
X0213545Y0054433D01*
X0213532Y0054345D01*
X0213515Y0054258D01*
X0213494Y0054171D01*
X0213470Y0054085D01*
X0213442Y0054000D01*
X0213411Y0053917D01*
X0213376Y0053835D01*
X0213337Y0053755D01*
X0213295Y0053676D01*
X0213250Y0053599D01*
X0213202Y0053524D01*
X0213150Y0053451D01*
X0213096Y0053381D01*
X0213038Y0053313D01*
X0212978Y0053247D01*
X0212915Y0053184D01*
X0212849Y0053124D01*
X0212781Y0053066D01*
X0212711Y0053012D01*
X0212638Y0052960D01*
X0212563Y0052912D01*
X0212486Y0052867D01*
X0212407Y0052825D01*
X0212327Y0052786D01*
X0212245Y0052751D01*
X0212162Y0052720D01*
X0212077Y0052692D01*
X0211991Y0052668D01*
X0211904Y0052647D01*
X0211817Y0052630D01*
X0211729Y0052617D01*
X0211640Y0052608D01*
X0211551Y0052602D01*
X0211462Y0052600D01*
X0209573Y0053139D02*
X0250151Y0053139D01*
X0248662Y0056000D02*
X0252697Y0056000D01*
X0245862Y0056000D01*
X0244504Y0054934D02*
X0212483Y0054934D01*
X0212762Y0055533D02*
X0243467Y0055533D01*
X0242787Y0055925D02*
X0242787Y0055925D01*
X0242668Y0056132D02*
X0212762Y0056132D01*
X0212762Y0056730D02*
X0242323Y0056730D01*
X0241977Y0057329D02*
X0212220Y0057329D01*
X0210093Y0057927D02*
X0238648Y0057927D01*
X0240276Y0057927D02*
X0241662Y0057927D01*
X0241662Y0058526D02*
X0240874Y0058526D01*
X0241362Y0059124D02*
X0241646Y0059124D01*
X0241429Y0059723D02*
X0241362Y0059723D01*
X0242862Y0059000D02*
X0242860Y0059105D01*
X0242854Y0059209D01*
X0242844Y0059314D01*
X0242831Y0059417D01*
X0242813Y0059521D01*
X0242792Y0059623D01*
X0242767Y0059725D01*
X0242738Y0059825D01*
X0242705Y0059925D01*
X0242668Y0060023D01*
X0242628Y0060120D01*
X0242585Y0060215D01*
X0242538Y0060308D01*
X0242487Y0060400D01*
X0242433Y0060490D01*
X0242375Y0060577D01*
X0242315Y0060663D01*
X0242251Y0060746D01*
X0242184Y0060826D01*
X0242115Y0060904D01*
X0242042Y0060980D01*
X0241966Y0061053D01*
X0241888Y0061122D01*
X0241808Y0061189D01*
X0241725Y0061253D01*
X0241639Y0061313D01*
X0241552Y0061371D01*
X0241462Y0061425D01*
X0241370Y0061476D01*
X0241277Y0061523D01*
X0241182Y0061566D01*
X0241085Y0061606D01*
X0240987Y0061643D01*
X0240887Y0061676D01*
X0240787Y0061705D01*
X0240685Y0061730D01*
X0240583Y0061751D01*
X0240479Y0061769D01*
X0240376Y0061782D01*
X0240271Y0061792D01*
X0240167Y0061798D01*
X0240062Y0061800D01*
X0195262Y0061800D01*
X0193662Y0059600D02*
X0193583Y0059602D01*
X0193505Y0059608D01*
X0193427Y0059617D01*
X0193350Y0059631D01*
X0193273Y0059648D01*
X0193198Y0059669D01*
X0193123Y0059694D01*
X0193050Y0059722D01*
X0192978Y0059754D01*
X0192908Y0059789D01*
X0192839Y0059828D01*
X0192773Y0059870D01*
X0192709Y0059915D01*
X0192647Y0059963D01*
X0192588Y0060014D01*
X0192531Y0060069D01*
X0192476Y0060126D01*
X0192425Y0060185D01*
X0192377Y0060247D01*
X0192332Y0060311D01*
X0192290Y0060377D01*
X0192251Y0060446D01*
X0192216Y0060516D01*
X0192184Y0060588D01*
X0192156Y0060661D01*
X0192131Y0060736D01*
X0192110Y0060811D01*
X0192093Y0060888D01*
X0192079Y0060965D01*
X0192070Y0061043D01*
X0192064Y0061121D01*
X0192062Y0061200D01*
X0193662Y0059600D02*
X0239262Y0059600D01*
X0239288Y0059602D01*
X0239314Y0059607D01*
X0239339Y0059615D01*
X0239362Y0059627D01*
X0239384Y0059641D01*
X0239403Y0059659D01*
X0239421Y0059678D01*
X0239435Y0059700D01*
X0239447Y0059723D01*
X0239455Y0059748D01*
X0239460Y0059774D01*
X0239462Y0059800D01*
X0243227Y0061518D02*
X0256362Y0061518D01*
X0256362Y0060920D02*
X0243572Y0060920D01*
X0243918Y0060321D02*
X0256362Y0060321D01*
X0256362Y0059723D02*
X0244062Y0059723D01*
X0244062Y0059124D02*
X0256362Y0059124D01*
X0256362Y0058526D02*
X0255578Y0058526D01*
X0255762Y0057927D02*
X0256362Y0057927D01*
X0256362Y0057329D02*
X0255762Y0057329D01*
X0255762Y0056730D02*
X0256362Y0056730D01*
X0256362Y0056132D02*
X0255762Y0056132D01*
X0255762Y0055533D02*
X0256362Y0055533D01*
X0256362Y0054934D02*
X0255762Y0054934D01*
X0255762Y0054336D02*
X0256362Y0054336D01*
X0256362Y0053737D02*
X0255762Y0053737D01*
X0255242Y0053139D02*
X0256362Y0053139D01*
X0256362Y0051343D02*
X0247220Y0051343D01*
X0248108Y0050745D02*
X0256362Y0050745D01*
X0256362Y0050146D02*
X0248565Y0050146D01*
X0248813Y0049548D02*
X0256362Y0049548D01*
X0256362Y0048949D02*
X0248872Y0048949D01*
X0248872Y0048351D02*
X0256362Y0048351D01*
X0256362Y0047752D02*
X0248628Y0047752D01*
X0248259Y0047154D02*
X0256362Y0047154D01*
X0256362Y0046555D02*
X0247584Y0046555D01*
X0244817Y0046555D02*
X0236667Y0046555D01*
X0236667Y0045957D02*
X0256362Y0045957D01*
X0256362Y0045358D02*
X0236667Y0045358D01*
X0236667Y0044760D02*
X0256362Y0044760D01*
X0255923Y0044161D02*
X0236667Y0044161D01*
X0236667Y0043563D02*
X0255325Y0043563D01*
X0258051Y0043750D02*
X0258049Y0043640D01*
X0258043Y0043530D01*
X0258034Y0043421D01*
X0258020Y0043312D01*
X0258003Y0043203D01*
X0257982Y0043095D01*
X0257957Y0042988D01*
X0257929Y0042882D01*
X0257897Y0042777D01*
X0257861Y0042673D01*
X0257822Y0042570D01*
X0257779Y0042469D01*
X0257732Y0042369D01*
X0257682Y0042271D01*
X0257629Y0042175D01*
X0257572Y0042081D01*
X0257512Y0041989D01*
X0257449Y0041898D01*
X0257383Y0041811D01*
X0257314Y0041725D01*
X0257242Y0041642D01*
X0257167Y0041562D01*
X0257089Y0041484D01*
X0257009Y0041409D01*
X0256926Y0041337D01*
X0256840Y0041268D01*
X0256753Y0041202D01*
X0256662Y0041139D01*
X0256570Y0041079D01*
X0256476Y0041022D01*
X0256380Y0040969D01*
X0256282Y0040919D01*
X0256182Y0040872D01*
X0256081Y0040829D01*
X0255978Y0040790D01*
X0255874Y0040754D01*
X0255769Y0040722D01*
X0255663Y0040694D01*
X0255556Y0040669D01*
X0255448Y0040648D01*
X0255339Y0040631D01*
X0255230Y0040617D01*
X0255121Y0040608D01*
X0255011Y0040602D01*
X0254901Y0040600D01*
X0254753Y0040600D01*
X0206328Y0040600D01*
X0206180Y0040600D01*
X0206026Y0040602D01*
X0205873Y0040608D01*
X0205719Y0040618D01*
X0205566Y0040631D01*
X0205413Y0040649D01*
X0205261Y0040671D01*
X0205109Y0040696D01*
X0204958Y0040725D01*
X0204808Y0040759D01*
X0204658Y0040796D01*
X0204510Y0040836D01*
X0204363Y0040881D01*
X0204217Y0040929D01*
X0204072Y0040981D01*
X0203928Y0041037D01*
X0203787Y0041097D01*
X0203646Y0041160D01*
X0203507Y0041226D01*
X0203371Y0041296D01*
X0203235Y0041370D01*
X0203102Y0041447D01*
X0202971Y0041527D01*
X0202842Y0041611D01*
X0202715Y0041698D01*
X0202590Y0041788D01*
X0202468Y0041882D01*
X0202348Y0041978D01*
X0202231Y0042078D01*
X0202116Y0042180D01*
X0202004Y0042285D01*
X0202362Y0053139D02*
X0204482Y0053139D01*
X0203962Y0053737D02*
X0202362Y0053737D01*
X0201262Y0053600D02*
X0201264Y0053540D01*
X0201269Y0053479D01*
X0201278Y0053420D01*
X0201291Y0053361D01*
X0201307Y0053302D01*
X0201327Y0053245D01*
X0201350Y0053190D01*
X0201377Y0053135D01*
X0201406Y0053083D01*
X0201439Y0053032D01*
X0201475Y0052983D01*
X0201513Y0052937D01*
X0201555Y0052893D01*
X0201599Y0052851D01*
X0201645Y0052813D01*
X0201694Y0052777D01*
X0201745Y0052744D01*
X0201797Y0052715D01*
X0201852Y0052688D01*
X0201907Y0052665D01*
X0201964Y0052645D01*
X0202023Y0052629D01*
X0202082Y0052616D01*
X0202141Y0052607D01*
X0202202Y0052602D01*
X0202262Y0052600D01*
X0202362Y0054336D02*
X0203962Y0054336D01*
X0203962Y0054934D02*
X0202362Y0054934D01*
X0202362Y0055533D02*
X0203962Y0055533D01*
X0203962Y0056132D02*
X0202362Y0056132D01*
X0202362Y0056730D02*
X0203962Y0056730D01*
X0203962Y0057329D02*
X0202362Y0057329D01*
X0202362Y0057927D02*
X0203962Y0057927D01*
X0207027Y0056000D02*
X0210862Y0056000D01*
X0213562Y0055700D02*
X0213562Y0054700D01*
X0201262Y0053600D02*
X0201260Y0053734D01*
X0201254Y0053867D01*
X0201244Y0054001D01*
X0201231Y0054134D01*
X0201213Y0054267D01*
X0201192Y0054399D01*
X0201167Y0054530D01*
X0201138Y0054661D01*
X0201105Y0054791D01*
X0201069Y0054919D01*
X0201029Y0055047D01*
X0200985Y0055173D01*
X0200937Y0055298D01*
X0200886Y0055422D01*
X0200831Y0055544D01*
X0200773Y0055664D01*
X0200711Y0055783D01*
X0200646Y0055900D01*
X0200577Y0056015D01*
X0200505Y0056128D01*
X0200430Y0056238D01*
X0200352Y0056347D01*
X0200270Y0056453D01*
X0200186Y0056557D01*
X0200098Y0056658D01*
X0200008Y0056757D01*
X0199915Y0056853D01*
X0199819Y0056946D01*
X0199720Y0057036D01*
X0199619Y0057124D01*
X0199515Y0057208D01*
X0199409Y0057290D01*
X0199300Y0057368D01*
X0199190Y0057443D01*
X0199077Y0057515D01*
X0198962Y0057584D01*
X0198845Y0057649D01*
X0198726Y0057711D01*
X0198606Y0057769D01*
X0198484Y0057824D01*
X0198360Y0057875D01*
X0198235Y0057923D01*
X0198109Y0057967D01*
X0197981Y0058007D01*
X0197853Y0058043D01*
X0197723Y0058076D01*
X0197592Y0058105D01*
X0197461Y0058130D01*
X0197329Y0058151D01*
X0197196Y0058169D01*
X0197063Y0058182D01*
X0196929Y0058192D01*
X0196796Y0058198D01*
X0196662Y0058200D01*
X0190062Y0058200D01*
X0186862Y0061400D01*
X0083062Y0061400D01*
X0082662Y0063000D02*
X0188262Y0063000D01*
X0188317Y0062998D01*
X0188371Y0062993D01*
X0188425Y0062983D01*
X0188478Y0062970D01*
X0188530Y0062954D01*
X0188581Y0062934D01*
X0188630Y0062910D01*
X0188678Y0062884D01*
X0188723Y0062854D01*
X0188767Y0062821D01*
X0188808Y0062785D01*
X0188847Y0062746D01*
X0188883Y0062705D01*
X0188916Y0062661D01*
X0188946Y0062616D01*
X0188972Y0062568D01*
X0188996Y0062519D01*
X0189016Y0062468D01*
X0189032Y0062416D01*
X0189045Y0062363D01*
X0189055Y0062309D01*
X0189060Y0062255D01*
X0189062Y0062200D01*
X0188862Y0064400D02*
X0188974Y0064398D01*
X0189085Y0064392D01*
X0189196Y0064382D01*
X0189307Y0064369D01*
X0189418Y0064351D01*
X0189527Y0064330D01*
X0189636Y0064305D01*
X0189744Y0064276D01*
X0189851Y0064243D01*
X0189956Y0064207D01*
X0190061Y0064167D01*
X0190164Y0064123D01*
X0190265Y0064076D01*
X0190364Y0064025D01*
X0190462Y0063971D01*
X0190558Y0063914D01*
X0190651Y0063853D01*
X0190743Y0063789D01*
X0190832Y0063722D01*
X0190919Y0063651D01*
X0191003Y0063578D01*
X0191085Y0063502D01*
X0191164Y0063423D01*
X0191240Y0063341D01*
X0191313Y0063257D01*
X0191384Y0063170D01*
X0191451Y0063081D01*
X0191515Y0062989D01*
X0191576Y0062896D01*
X0191633Y0062800D01*
X0191687Y0062702D01*
X0191738Y0062603D01*
X0191785Y0062502D01*
X0191829Y0062399D01*
X0191869Y0062294D01*
X0191905Y0062189D01*
X0191938Y0062082D01*
X0191967Y0061974D01*
X0191992Y0061865D01*
X0192013Y0061756D01*
X0192031Y0061645D01*
X0192044Y0061534D01*
X0192054Y0061423D01*
X0192060Y0061312D01*
X0192062Y0061200D01*
X0193262Y0063800D02*
X0193260Y0063883D01*
X0193254Y0063966D01*
X0193245Y0064049D01*
X0193231Y0064131D01*
X0193214Y0064212D01*
X0193193Y0064293D01*
X0193169Y0064372D01*
X0193140Y0064450D01*
X0193109Y0064527D01*
X0193073Y0064602D01*
X0193035Y0064676D01*
X0192992Y0064748D01*
X0192947Y0064817D01*
X0192898Y0064885D01*
X0192847Y0064950D01*
X0192792Y0065013D01*
X0192735Y0065073D01*
X0192675Y0065130D01*
X0192612Y0065185D01*
X0192547Y0065236D01*
X0192479Y0065285D01*
X0192410Y0065330D01*
X0192338Y0065373D01*
X0192264Y0065411D01*
X0192189Y0065447D01*
X0192112Y0065478D01*
X0192034Y0065507D01*
X0191955Y0065531D01*
X0191874Y0065552D01*
X0191793Y0065569D01*
X0191711Y0065583D01*
X0191628Y0065592D01*
X0191545Y0065598D01*
X0191462Y0065600D01*
X0085062Y0065600D01*
X0085662Y0066800D02*
X0193662Y0066800D01*
X0193735Y0066798D01*
X0193808Y0066792D01*
X0193881Y0066783D01*
X0193953Y0066769D01*
X0194024Y0066752D01*
X0194095Y0066731D01*
X0194164Y0066707D01*
X0194231Y0066679D01*
X0194298Y0066647D01*
X0194362Y0066612D01*
X0194424Y0066574D01*
X0194485Y0066533D01*
X0194543Y0066488D01*
X0194599Y0066440D01*
X0194652Y0066390D01*
X0194702Y0066337D01*
X0194750Y0066281D01*
X0194795Y0066223D01*
X0194836Y0066162D01*
X0194874Y0066100D01*
X0194909Y0066036D01*
X0194941Y0065969D01*
X0194969Y0065902D01*
X0194993Y0065833D01*
X0195014Y0065762D01*
X0195031Y0065691D01*
X0195045Y0065619D01*
X0195054Y0065546D01*
X0195060Y0065473D01*
X0195062Y0065400D01*
X0195064Y0065321D01*
X0195070Y0065243D01*
X0195079Y0065165D01*
X0195093Y0065088D01*
X0195110Y0065011D01*
X0195131Y0064936D01*
X0195156Y0064861D01*
X0195184Y0064788D01*
X0195216Y0064716D01*
X0195251Y0064646D01*
X0195290Y0064577D01*
X0195332Y0064511D01*
X0195377Y0064447D01*
X0195425Y0064385D01*
X0195476Y0064326D01*
X0195531Y0064269D01*
X0195588Y0064214D01*
X0195647Y0064163D01*
X0195709Y0064115D01*
X0195773Y0064070D01*
X0195839Y0064028D01*
X0195908Y0063989D01*
X0195978Y0063954D01*
X0196050Y0063922D01*
X0196123Y0063894D01*
X0196198Y0063869D01*
X0196273Y0063848D01*
X0196350Y0063831D01*
X0196427Y0063817D01*
X0196505Y0063808D01*
X0196583Y0063802D01*
X0196662Y0063800D01*
X0201362Y0063800D01*
X0202362Y0063912D02*
X0203962Y0063912D01*
X0203962Y0064511D02*
X0202362Y0064511D01*
X0202362Y0065109D02*
X0203962Y0065109D01*
X0203962Y0065708D02*
X0202362Y0065708D01*
X0202362Y0066306D02*
X0203962Y0066306D01*
X0203962Y0066905D02*
X0202362Y0066905D01*
X0202362Y0067503D02*
X0203962Y0067503D01*
X0203962Y0068102D02*
X0202362Y0068102D01*
X0202662Y0069400D02*
X0199062Y0069400D01*
X0088462Y0069400D01*
X0086462Y0068000D02*
X0196662Y0068000D01*
X0196749Y0067998D01*
X0196836Y0067992D01*
X0196923Y0067983D01*
X0197009Y0067970D01*
X0197095Y0067953D01*
X0197180Y0067932D01*
X0197263Y0067907D01*
X0197346Y0067879D01*
X0197427Y0067848D01*
X0197507Y0067813D01*
X0197585Y0067774D01*
X0197662Y0067732D01*
X0197737Y0067687D01*
X0197809Y0067638D01*
X0197880Y0067587D01*
X0197948Y0067532D01*
X0198013Y0067475D01*
X0198076Y0067414D01*
X0198137Y0067351D01*
X0198194Y0067286D01*
X0198249Y0067218D01*
X0198300Y0067147D01*
X0198349Y0067075D01*
X0198394Y0067000D01*
X0198436Y0066923D01*
X0198475Y0066845D01*
X0198510Y0066765D01*
X0198541Y0066684D01*
X0198569Y0066601D01*
X0198594Y0066518D01*
X0198615Y0066433D01*
X0198632Y0066347D01*
X0198645Y0066261D01*
X0198654Y0066174D01*
X0198660Y0066087D01*
X0198662Y0066000D01*
X0195262Y0061800D02*
X0195175Y0061802D01*
X0195088Y0061808D01*
X0195001Y0061817D01*
X0194915Y0061830D01*
X0194829Y0061847D01*
X0194744Y0061868D01*
X0194661Y0061893D01*
X0194578Y0061921D01*
X0194497Y0061952D01*
X0194417Y0061987D01*
X0194339Y0062026D01*
X0194262Y0062068D01*
X0194187Y0062113D01*
X0194115Y0062162D01*
X0194044Y0062213D01*
X0193976Y0062268D01*
X0193911Y0062325D01*
X0193848Y0062386D01*
X0193787Y0062449D01*
X0193730Y0062514D01*
X0193675Y0062582D01*
X0193624Y0062653D01*
X0193575Y0062725D01*
X0193530Y0062800D01*
X0193488Y0062877D01*
X0193449Y0062955D01*
X0193414Y0063035D01*
X0193383Y0063116D01*
X0193355Y0063199D01*
X0193330Y0063282D01*
X0193309Y0063367D01*
X0193292Y0063453D01*
X0193279Y0063539D01*
X0193270Y0063626D01*
X0193264Y0063713D01*
X0193262Y0063800D01*
X0188862Y0064400D02*
X0083662Y0064400D01*
X0082662Y0063000D02*
X0082493Y0063002D01*
X0082324Y0063008D01*
X0082155Y0063018D01*
X0081986Y0063033D01*
X0081818Y0063051D01*
X0081651Y0063073D01*
X0081484Y0063100D01*
X0081317Y0063130D01*
X0081152Y0063165D01*
X0080987Y0063203D01*
X0080823Y0063246D01*
X0080660Y0063292D01*
X0080499Y0063343D01*
X0080339Y0063397D01*
X0080180Y0063455D01*
X0080022Y0063517D01*
X0079866Y0063582D01*
X0079712Y0063652D01*
X0079560Y0063725D01*
X0079409Y0063802D01*
X0079260Y0063882D01*
X0079113Y0063966D01*
X0078969Y0064054D01*
X0078826Y0064145D01*
X0078686Y0064239D01*
X0078548Y0064337D01*
X0078412Y0064438D01*
X0078279Y0064542D01*
X0078148Y0064650D01*
X0078020Y0064760D01*
X0077895Y0064874D01*
X0077772Y0064991D01*
X0077653Y0065110D01*
X0077536Y0065233D01*
X0077422Y0065358D01*
X0077312Y0065486D01*
X0077204Y0065617D01*
X0077100Y0065750D01*
X0076999Y0065886D01*
X0076901Y0066024D01*
X0076807Y0066164D01*
X0076716Y0066307D01*
X0076628Y0066451D01*
X0076544Y0066598D01*
X0076464Y0066747D01*
X0076387Y0066898D01*
X0076314Y0067050D01*
X0076244Y0067204D01*
X0076179Y0067360D01*
X0076117Y0067518D01*
X0076059Y0067677D01*
X0076005Y0067837D01*
X0075954Y0067998D01*
X0075908Y0068161D01*
X0075865Y0068325D01*
X0075827Y0068490D01*
X0075792Y0068655D01*
X0075762Y0068822D01*
X0075735Y0068989D01*
X0075713Y0069156D01*
X0075695Y0069324D01*
X0075680Y0069493D01*
X0075670Y0069662D01*
X0075664Y0069831D01*
X0075662Y0070000D01*
X0075662Y0072257D01*
X0073062Y0071400D02*
X0073062Y0073200D01*
X0075662Y0072257D02*
X0075652Y0072404D01*
X0075639Y0072552D01*
X0075621Y0072698D01*
X0075600Y0072844D01*
X0075575Y0072990D01*
X0075546Y0073135D01*
X0075513Y0073279D01*
X0075477Y0073422D01*
X0075436Y0073564D01*
X0075392Y0073705D01*
X0075345Y0073845D01*
X0075294Y0073984D01*
X0075239Y0074121D01*
X0075180Y0074256D01*
X0075118Y0074391D01*
X0075053Y0074523D01*
X0074984Y0074654D01*
X0074912Y0074783D01*
X0074836Y0074909D01*
X0074757Y0075034D01*
X0074675Y0075157D01*
X0074590Y0075278D01*
X0074501Y0075396D01*
X0074409Y0075512D01*
X0074315Y0075625D01*
X0074217Y0075736D01*
X0074117Y0075845D01*
X0074014Y0075951D01*
X0073908Y0076054D01*
X0073799Y0076154D01*
X0073688Y0076251D01*
X0073575Y0076345D01*
X0073459Y0076437D01*
X0073340Y0076525D01*
X0073219Y0076610D01*
X0073096Y0076692D01*
X0072971Y0076771D01*
X0072844Y0076846D01*
X0072715Y0076918D01*
X0072585Y0076987D01*
X0072452Y0077052D01*
X0072318Y0077114D01*
X0072182Y0077172D01*
X0072045Y0077227D01*
X0071906Y0077278D01*
X0071766Y0077325D01*
X0071625Y0077369D01*
X0071483Y0077409D01*
X0071340Y0077445D01*
X0071196Y0077478D01*
X0071051Y0077506D01*
X0070905Y0077531D01*
X0070759Y0077552D01*
X0070612Y0077570D01*
X0070465Y0077583D01*
X0070318Y0077593D01*
X0070170Y0077598D01*
X0070022Y0077600D01*
X0069875Y0077598D01*
X0069727Y0077592D01*
X0068778Y0077592D01*
X0068779Y0077592D02*
X0068815Y0077627D01*
X0068855Y0077658D01*
X0068896Y0077686D01*
X0068939Y0077711D01*
X0068985Y0077733D01*
X0069031Y0077751D01*
X0069079Y0077766D01*
X0069128Y0077777D01*
X0069178Y0077785D01*
X0069228Y0077789D01*
X0069278Y0077789D01*
X0069328Y0077785D01*
X0069378Y0077777D01*
X0069427Y0077766D01*
X0069475Y0077751D01*
X0069521Y0077733D01*
X0069567Y0077711D01*
X0069610Y0077686D01*
X0069651Y0077658D01*
X0069691Y0077627D01*
X0069727Y0077592D01*
X0070281Y0077638D01*
X0070254Y0077610D01*
X0070225Y0077584D01*
X0070194Y0077562D01*
X0070161Y0077542D01*
X0070126Y0077527D01*
X0070089Y0077514D01*
X0070052Y0077505D01*
X0070013Y0077500D01*
X0069975Y0077499D01*
X0069936Y0077502D01*
X0069898Y0077508D01*
X0069861Y0077518D01*
X0069825Y0077531D01*
X0069790Y0077548D01*
X0069757Y0077569D01*
X0069727Y0077592D01*
X0069741Y0077592D01*
X0069727Y0077592D02*
X0069691Y0077627D01*
X0069651Y0077658D01*
X0069610Y0077686D01*
X0069567Y0077711D01*
X0069521Y0077733D01*
X0069475Y0077751D01*
X0069427Y0077766D01*
X0069378Y0077777D01*
X0069328Y0077785D01*
X0069278Y0077789D01*
X0069228Y0077789D01*
X0069178Y0077785D01*
X0069128Y0077777D01*
X0069079Y0077766D01*
X0069031Y0077751D01*
X0068985Y0077733D01*
X0068939Y0077711D01*
X0068896Y0077686D01*
X0068855Y0077658D01*
X0068815Y0077627D01*
X0068779Y0077592D01*
X0068815Y0077627D01*
X0068855Y0077658D01*
X0068896Y0077686D01*
X0068939Y0077711D01*
X0068985Y0077733D01*
X0069031Y0077751D01*
X0069079Y0077766D01*
X0069128Y0077777D01*
X0069178Y0077785D01*
X0069228Y0077789D01*
X0069278Y0077789D01*
X0069328Y0077785D01*
X0069378Y0077777D01*
X0069427Y0077766D01*
X0069475Y0077751D01*
X0069521Y0077733D01*
X0069567Y0077711D01*
X0069610Y0077686D01*
X0069651Y0077658D01*
X0069691Y0077627D01*
X0069727Y0077592D01*
X0068839Y0075360D02*
X0068839Y0094750D01*
X0068839Y0094897D02*
X0089311Y0094897D01*
X0089311Y0094750D02*
X0089311Y0075360D01*
X0083462Y0074400D02*
X0083464Y0074260D01*
X0083470Y0074120D01*
X0083480Y0073980D01*
X0083493Y0073840D01*
X0083511Y0073701D01*
X0083533Y0073562D01*
X0083558Y0073425D01*
X0083587Y0073287D01*
X0083620Y0073151D01*
X0083657Y0073016D01*
X0083698Y0072882D01*
X0083743Y0072749D01*
X0083791Y0072617D01*
X0083843Y0072487D01*
X0083898Y0072358D01*
X0083957Y0072231D01*
X0084020Y0072105D01*
X0084086Y0071981D01*
X0084155Y0071860D01*
X0084228Y0071740D01*
X0084305Y0071622D01*
X0084384Y0071507D01*
X0084467Y0071393D01*
X0084553Y0071283D01*
X0084642Y0071174D01*
X0084734Y0071068D01*
X0084829Y0070965D01*
X0084926Y0070864D01*
X0085027Y0070767D01*
X0085130Y0070672D01*
X0085236Y0070580D01*
X0085345Y0070491D01*
X0085455Y0070405D01*
X0085569Y0070322D01*
X0085684Y0070243D01*
X0085802Y0070166D01*
X0085922Y0070093D01*
X0086043Y0070024D01*
X0086167Y0069958D01*
X0086293Y0069895D01*
X0086420Y0069836D01*
X0086549Y0069781D01*
X0086679Y0069729D01*
X0086811Y0069681D01*
X0086944Y0069636D01*
X0087078Y0069595D01*
X0087213Y0069558D01*
X0087349Y0069525D01*
X0087487Y0069496D01*
X0087624Y0069471D01*
X0087763Y0069449D01*
X0087902Y0069431D01*
X0088042Y0069418D01*
X0088182Y0069408D01*
X0088322Y0069402D01*
X0088462Y0069400D01*
X0088962Y0071100D02*
X0092062Y0071100D01*
X0102062Y0071100D01*
X0111562Y0071100D01*
X0122562Y0071100D01*
X0133062Y0071100D01*
X0143562Y0071100D01*
X0153962Y0071100D01*
X0164062Y0071100D01*
X0174362Y0071100D01*
X0174364Y0071061D01*
X0174370Y0071022D01*
X0174379Y0070984D01*
X0174392Y0070947D01*
X0174409Y0070911D01*
X0174429Y0070878D01*
X0174453Y0070846D01*
X0174479Y0070817D01*
X0174508Y0070791D01*
X0174540Y0070767D01*
X0174573Y0070747D01*
X0174609Y0070730D01*
X0174646Y0070717D01*
X0174684Y0070708D01*
X0174723Y0070702D01*
X0174762Y0070700D01*
X0190062Y0070700D01*
X0190174Y0070702D01*
X0190285Y0070708D01*
X0190396Y0070718D01*
X0190507Y0070731D01*
X0190618Y0070749D01*
X0190727Y0070770D01*
X0190836Y0070795D01*
X0190944Y0070824D01*
X0191051Y0070857D01*
X0191156Y0070893D01*
X0191261Y0070933D01*
X0191364Y0070977D01*
X0191465Y0071024D01*
X0191564Y0071075D01*
X0191662Y0071129D01*
X0191758Y0071186D01*
X0191851Y0071247D01*
X0191943Y0071311D01*
X0192032Y0071378D01*
X0192119Y0071449D01*
X0192203Y0071522D01*
X0192285Y0071598D01*
X0192364Y0071677D01*
X0192440Y0071759D01*
X0192513Y0071843D01*
X0192584Y0071930D01*
X0192651Y0072019D01*
X0192715Y0072111D01*
X0192776Y0072204D01*
X0192833Y0072300D01*
X0192887Y0072398D01*
X0192938Y0072497D01*
X0192985Y0072598D01*
X0193029Y0072701D01*
X0193069Y0072806D01*
X0193105Y0072911D01*
X0193138Y0073018D01*
X0193167Y0073126D01*
X0193192Y0073235D01*
X0193213Y0073344D01*
X0193231Y0073455D01*
X0193244Y0073566D01*
X0193254Y0073677D01*
X0193260Y0073788D01*
X0193262Y0073900D01*
X0193264Y0073995D01*
X0193270Y0074090D01*
X0193280Y0074184D01*
X0193293Y0074279D01*
X0193311Y0074372D01*
X0193332Y0074465D01*
X0193358Y0074556D01*
X0193387Y0074647D01*
X0193419Y0074736D01*
X0193456Y0074824D01*
X0193496Y0074910D01*
X0193539Y0074995D01*
X0193586Y0075077D01*
X0193637Y0075158D01*
X0193690Y0075236D01*
X0193747Y0075313D01*
X0193807Y0075386D01*
X0193870Y0075458D01*
X0193936Y0075526D01*
X0194004Y0075592D01*
X0194076Y0075655D01*
X0194149Y0075715D01*
X0194226Y0075772D01*
X0194304Y0075825D01*
X0194385Y0075876D01*
X0194467Y0075923D01*
X0194552Y0075966D01*
X0194638Y0076006D01*
X0194726Y0076043D01*
X0194815Y0076075D01*
X0194906Y0076104D01*
X0194997Y0076130D01*
X0195090Y0076151D01*
X0195183Y0076169D01*
X0195278Y0076182D01*
X0195372Y0076192D01*
X0195467Y0076198D01*
X0195562Y0076200D01*
X0197562Y0076200D01*
X0202162Y0076200D01*
X0202362Y0076481D02*
X0203762Y0076481D01*
X0203762Y0076300D02*
X0206727Y0076300D01*
X0206727Y0079068D01*
X0204717Y0079068D01*
X0204437Y0078994D01*
X0204186Y0078849D01*
X0203982Y0078644D01*
X0203837Y0078393D01*
X0203762Y0078113D01*
X0203762Y0076300D01*
X0203762Y0077079D02*
X0202362Y0077079D01*
X0202362Y0077678D02*
X0203762Y0077678D01*
X0203806Y0078276D02*
X0202362Y0078276D01*
X0202362Y0078875D02*
X0204232Y0078875D01*
X0202362Y0079473D02*
X0256362Y0079473D01*
X0256362Y0078875D02*
X0209823Y0078875D01*
X0209868Y0078849D02*
X0209617Y0078994D01*
X0209337Y0079068D01*
X0207327Y0079068D01*
X0207327Y0076300D01*
X0210293Y0076300D01*
X0210293Y0078113D01*
X0210218Y0078393D01*
X0210073Y0078644D01*
X0209868Y0078849D01*
X0210249Y0078276D02*
X0249631Y0078276D01*
X0249631Y0077678D02*
X0210293Y0077678D01*
X0210293Y0077079D02*
X0245503Y0077079D01*
X0244466Y0076481D02*
X0210293Y0076481D01*
X0210293Y0075284D02*
X0243739Y0075284D01*
X0243662Y0074685D02*
X0210293Y0074685D01*
X0210293Y0074087D02*
X0243662Y0074087D01*
X0243644Y0073488D02*
X0210149Y0073488D01*
X0207327Y0075882D02*
X0244085Y0075882D01*
X0244862Y0074400D02*
X0244862Y0073600D01*
X0246062Y0073488D02*
X0249802Y0073488D01*
X0249631Y0074087D02*
X0246062Y0074087D01*
X0244862Y0074400D02*
X0244864Y0074479D01*
X0244870Y0074557D01*
X0244879Y0074635D01*
X0244893Y0074712D01*
X0244910Y0074789D01*
X0244931Y0074864D01*
X0244956Y0074939D01*
X0244984Y0075012D01*
X0245016Y0075084D01*
X0245051Y0075154D01*
X0245090Y0075223D01*
X0245132Y0075289D01*
X0245177Y0075353D01*
X0245225Y0075415D01*
X0245276Y0075474D01*
X0245331Y0075531D01*
X0245388Y0075586D01*
X0245447Y0075637D01*
X0245509Y0075685D01*
X0245573Y0075730D01*
X0245639Y0075772D01*
X0245708Y0075811D01*
X0245778Y0075846D01*
X0245850Y0075878D01*
X0245923Y0075906D01*
X0245998Y0075931D01*
X0246073Y0075952D01*
X0246150Y0075969D01*
X0246227Y0075983D01*
X0246305Y0075992D01*
X0246383Y0075998D01*
X0246462Y0076000D01*
X0252697Y0076000D01*
X0255762Y0075882D02*
X0256362Y0075882D01*
X0256362Y0075284D02*
X0255762Y0075284D01*
X0255762Y0074685D02*
X0256362Y0074685D01*
X0256362Y0074087D02*
X0255762Y0074087D01*
X0255591Y0073488D02*
X0256362Y0073488D01*
X0256362Y0072890D02*
X0246062Y0072890D01*
X0245739Y0072291D02*
X0256362Y0072291D01*
X0256362Y0071693D02*
X0245394Y0071693D01*
X0245312Y0071550D02*
X0245312Y0071550D01*
X0245312Y0071550D01*
X0244522Y0071094D02*
X0256362Y0071094D01*
X0256362Y0070496D02*
X0205262Y0070496D01*
X0205143Y0069897D02*
X0256362Y0069897D01*
X0256362Y0069299D02*
X0204797Y0069299D01*
X0204565Y0068897D02*
X0204565Y0068897D01*
X0204565Y0068897D01*
X0204321Y0068700D02*
X0204225Y0068700D01*
X0202662Y0069400D02*
X0202735Y0069402D01*
X0202808Y0069408D01*
X0202881Y0069417D01*
X0202953Y0069431D01*
X0203024Y0069448D01*
X0203095Y0069469D01*
X0203164Y0069493D01*
X0203231Y0069521D01*
X0203298Y0069553D01*
X0203362Y0069588D01*
X0203424Y0069626D01*
X0203485Y0069667D01*
X0203543Y0069712D01*
X0203599Y0069760D01*
X0203652Y0069810D01*
X0203702Y0069863D01*
X0203750Y0069919D01*
X0203795Y0069977D01*
X0203836Y0070038D01*
X0203874Y0070100D01*
X0203909Y0070164D01*
X0203941Y0070231D01*
X0203969Y0070298D01*
X0203993Y0070367D01*
X0204014Y0070438D01*
X0204031Y0070509D01*
X0204045Y0070581D01*
X0204054Y0070654D01*
X0204060Y0070727D01*
X0204062Y0070800D01*
X0202862Y0071094D02*
X0202362Y0071094D01*
X0202362Y0071693D02*
X0203006Y0071693D01*
X0203352Y0072291D02*
X0202362Y0072291D01*
X0202362Y0072890D02*
X0204082Y0072890D01*
X0203905Y0073488D02*
X0202362Y0073488D01*
X0202362Y0074087D02*
X0203762Y0074087D01*
X0203762Y0074685D02*
X0202362Y0074685D01*
X0203162Y0075200D02*
X0203160Y0075260D01*
X0203155Y0075321D01*
X0203146Y0075380D01*
X0203133Y0075439D01*
X0203117Y0075498D01*
X0203097Y0075555D01*
X0203074Y0075610D01*
X0203047Y0075665D01*
X0203018Y0075717D01*
X0202985Y0075768D01*
X0202949Y0075817D01*
X0202911Y0075863D01*
X0202869Y0075907D01*
X0202825Y0075949D01*
X0202779Y0075987D01*
X0202730Y0076023D01*
X0202679Y0076056D01*
X0202627Y0076085D01*
X0202572Y0076112D01*
X0202517Y0076135D01*
X0202460Y0076155D01*
X0202401Y0076171D01*
X0202342Y0076184D01*
X0202283Y0076193D01*
X0202222Y0076198D01*
X0202162Y0076200D01*
X0202362Y0075882D02*
X0206727Y0075882D01*
X0207027Y0076000D02*
X0206227Y0075200D01*
X0203162Y0075200D01*
X0203062Y0075200D01*
X0202362Y0075284D02*
X0203762Y0075284D01*
X0206727Y0076481D02*
X0207327Y0076481D01*
X0207327Y0077079D02*
X0206727Y0077079D01*
X0206727Y0077678D02*
X0207327Y0077678D01*
X0207327Y0078276D02*
X0206727Y0078276D01*
X0206727Y0078875D02*
X0207327Y0078875D01*
X0202362Y0080072D02*
X0256362Y0080072D01*
X0256362Y0080670D02*
X0202362Y0080670D01*
X0202362Y0081269D02*
X0256362Y0081269D01*
X0256362Y0081868D02*
X0202362Y0081868D01*
X0202362Y0082466D02*
X0212143Y0082466D01*
X0212580Y0082029D02*
X0214467Y0082029D01*
X0215801Y0083364D01*
X0215801Y0085251D01*
X0214467Y0086585D01*
X0212580Y0086585D01*
X0211245Y0085251D01*
X0211245Y0083364D01*
X0212580Y0082029D01*
X0211544Y0083065D02*
X0202362Y0083065D01*
X0202362Y0083663D02*
X0211245Y0083663D01*
X0211245Y0084262D02*
X0202362Y0084262D01*
X0202362Y0084860D02*
X0211245Y0084860D01*
X0211453Y0085459D02*
X0202362Y0085459D01*
X0202362Y0086057D02*
X0212052Y0086057D01*
X0214995Y0086057D02*
X0223056Y0086057D01*
X0223056Y0085459D02*
X0215593Y0085459D01*
X0215801Y0084860D02*
X0223056Y0084860D01*
X0223320Y0084262D02*
X0215801Y0084262D01*
X0215801Y0083663D02*
X0256362Y0083663D01*
X0256362Y0083065D02*
X0215502Y0083065D01*
X0214904Y0082466D02*
X0256362Y0082466D01*
X0256362Y0084262D02*
X0236404Y0084262D01*
X0236667Y0084860D02*
X0256362Y0084860D01*
X0256362Y0085459D02*
X0236667Y0085459D01*
X0236667Y0086057D02*
X0256362Y0086057D01*
X0255806Y0086656D02*
X0236667Y0086656D01*
X0236667Y0087254D02*
X0255208Y0087254D01*
X0254609Y0087853D02*
X0236667Y0087853D01*
X0236667Y0088451D02*
X0254011Y0088451D01*
X0254901Y0091781D02*
X0255011Y0091779D01*
X0255121Y0091773D01*
X0255230Y0091764D01*
X0255339Y0091750D01*
X0255448Y0091733D01*
X0255556Y0091712D01*
X0255663Y0091687D01*
X0255769Y0091659D01*
X0255874Y0091627D01*
X0255978Y0091591D01*
X0256081Y0091552D01*
X0256182Y0091509D01*
X0256282Y0091462D01*
X0256380Y0091412D01*
X0256476Y0091359D01*
X0256570Y0091302D01*
X0256662Y0091242D01*
X0256753Y0091179D01*
X0256840Y0091113D01*
X0256926Y0091044D01*
X0257009Y0090972D01*
X0257089Y0090897D01*
X0257167Y0090819D01*
X0257242Y0090739D01*
X0257314Y0090656D01*
X0257383Y0090570D01*
X0257449Y0090483D01*
X0257512Y0090392D01*
X0257572Y0090300D01*
X0257629Y0090206D01*
X0257682Y0090110D01*
X0257732Y0090012D01*
X0257779Y0089912D01*
X0257822Y0089811D01*
X0257861Y0089708D01*
X0257897Y0089604D01*
X0257929Y0089499D01*
X0257957Y0089393D01*
X0257982Y0089286D01*
X0258003Y0089178D01*
X0258020Y0089069D01*
X0258034Y0088960D01*
X0258043Y0088851D01*
X0258049Y0088741D01*
X0258051Y0088631D01*
X0258050Y0088631D02*
X0258050Y0043750D01*
X0244142Y0047154D02*
X0236667Y0047154D01*
X0236390Y0047752D02*
X0243773Y0047752D01*
X0245280Y0057329D02*
X0249631Y0057329D01*
X0249631Y0057927D02*
X0244474Y0057927D01*
X0244128Y0058526D02*
X0249815Y0058526D01*
X0245862Y0056000D02*
X0245755Y0056002D01*
X0245648Y0056008D01*
X0245541Y0056017D01*
X0245435Y0056031D01*
X0245329Y0056048D01*
X0245224Y0056069D01*
X0245120Y0056093D01*
X0245017Y0056122D01*
X0244915Y0056154D01*
X0244814Y0056189D01*
X0244714Y0056228D01*
X0244616Y0056271D01*
X0244519Y0056317D01*
X0244424Y0056367D01*
X0244331Y0056420D01*
X0244240Y0056476D01*
X0244151Y0056536D01*
X0244064Y0056598D01*
X0243980Y0056664D01*
X0243897Y0056733D01*
X0243818Y0056804D01*
X0243741Y0056879D01*
X0243666Y0056956D01*
X0243595Y0057035D01*
X0243526Y0057118D01*
X0243460Y0057202D01*
X0243398Y0057289D01*
X0243338Y0057378D01*
X0243282Y0057469D01*
X0243229Y0057562D01*
X0243179Y0057657D01*
X0243133Y0057754D01*
X0243090Y0057852D01*
X0243051Y0057952D01*
X0243016Y0058053D01*
X0242984Y0058155D01*
X0242955Y0058258D01*
X0242931Y0058362D01*
X0242910Y0058467D01*
X0242893Y0058573D01*
X0242879Y0058679D01*
X0242870Y0058786D01*
X0242864Y0058893D01*
X0242862Y0059000D01*
X0242990Y0061928D02*
X0242990Y0061928D01*
X0242664Y0062117D02*
X0256362Y0062117D01*
X0256362Y0062715D02*
X0241627Y0062715D01*
X0246868Y0065198D02*
X0247860Y0064206D01*
X0249263Y0064206D01*
X0249631Y0064574D01*
X0249631Y0063659D01*
X0250158Y0063131D01*
X0255235Y0063131D01*
X0255762Y0063659D01*
X0255762Y0068341D01*
X0255235Y0068868D01*
X0250158Y0068868D01*
X0249631Y0068341D01*
X0249631Y0067226D01*
X0249263Y0067594D01*
X0247860Y0067594D01*
X0246868Y0066602D01*
X0246868Y0065198D01*
X0246957Y0065109D02*
X0210093Y0065109D01*
X0210093Y0064511D02*
X0247556Y0064511D01*
X0246868Y0065708D02*
X0210093Y0065708D01*
X0210093Y0066306D02*
X0246868Y0066306D01*
X0247171Y0066905D02*
X0210093Y0066905D01*
X0210093Y0067503D02*
X0247770Y0067503D01*
X0249354Y0067503D02*
X0249631Y0067503D01*
X0249631Y0068102D02*
X0210093Y0068102D01*
X0209734Y0068700D02*
X0249990Y0068700D01*
X0248562Y0065900D02*
X0252597Y0065900D01*
X0252697Y0066000D01*
X0255762Y0065708D02*
X0256362Y0065708D01*
X0256362Y0066306D02*
X0255762Y0066306D01*
X0255762Y0066905D02*
X0256362Y0066905D01*
X0256362Y0067503D02*
X0255762Y0067503D01*
X0255762Y0068102D02*
X0256362Y0068102D01*
X0256362Y0068700D02*
X0255403Y0068700D01*
X0255762Y0065109D02*
X0256362Y0065109D01*
X0256362Y0064511D02*
X0255762Y0064511D01*
X0255762Y0063912D02*
X0256362Y0063912D01*
X0256362Y0063314D02*
X0255417Y0063314D01*
X0249976Y0063314D02*
X0209748Y0063314D01*
X0210093Y0063912D02*
X0249631Y0063912D01*
X0249631Y0064511D02*
X0249568Y0064511D01*
X0243262Y0072000D02*
X0205262Y0072000D01*
X0204307Y0063314D02*
X0202362Y0063314D01*
X0182221Y0072883D02*
X0091397Y0072883D01*
X0091649Y0072891D02*
X0091716Y0072891D01*
X0091962Y0071200D02*
X0091979Y0071198D01*
X0091996Y0071194D01*
X0092012Y0071187D01*
X0092026Y0071177D01*
X0092039Y0071164D01*
X0092049Y0071150D01*
X0092056Y0071134D01*
X0092060Y0071117D01*
X0092062Y0071100D01*
X0088962Y0071100D02*
X0088861Y0071102D01*
X0088760Y0071108D01*
X0088660Y0071117D01*
X0088560Y0071130D01*
X0088460Y0071147D01*
X0088361Y0071168D01*
X0088263Y0071192D01*
X0088166Y0071220D01*
X0088070Y0071252D01*
X0087976Y0071287D01*
X0087882Y0071325D01*
X0087791Y0071367D01*
X0087700Y0071413D01*
X0087612Y0071462D01*
X0087526Y0071514D01*
X0087441Y0071569D01*
X0087359Y0071628D01*
X0087279Y0071689D01*
X0087201Y0071753D01*
X0087126Y0071821D01*
X0087053Y0071891D01*
X0086983Y0071964D01*
X0086915Y0072039D01*
X0086851Y0072117D01*
X0086790Y0072197D01*
X0086731Y0072279D01*
X0086676Y0072364D01*
X0086624Y0072450D01*
X0086575Y0072538D01*
X0086529Y0072629D01*
X0086487Y0072720D01*
X0086449Y0072814D01*
X0086414Y0072908D01*
X0086382Y0073004D01*
X0086354Y0073101D01*
X0086330Y0073199D01*
X0086309Y0073298D01*
X0086292Y0073398D01*
X0086279Y0073498D01*
X0086270Y0073598D01*
X0086264Y0073699D01*
X0086262Y0073800D01*
X0086262Y0076632D01*
X0086264Y0076692D01*
X0086269Y0076753D01*
X0086278Y0076812D01*
X0086291Y0076871D01*
X0086307Y0076930D01*
X0086327Y0076987D01*
X0086350Y0077042D01*
X0086377Y0077097D01*
X0086406Y0077149D01*
X0086439Y0077200D01*
X0086475Y0077249D01*
X0086513Y0077295D01*
X0086555Y0077339D01*
X0086599Y0077381D01*
X0086645Y0077419D01*
X0086694Y0077455D01*
X0086745Y0077488D01*
X0086797Y0077517D01*
X0086852Y0077544D01*
X0086907Y0077567D01*
X0086964Y0077587D01*
X0087023Y0077603D01*
X0087082Y0077616D01*
X0087141Y0077625D01*
X0087202Y0077630D01*
X0087262Y0077632D01*
X0089592Y0077632D01*
X0088604Y0082632D02*
X0088466Y0082638D01*
X0088327Y0082641D01*
X0088189Y0082640D01*
X0088050Y0082634D01*
X0087912Y0082625D01*
X0087774Y0082612D01*
X0087636Y0082595D01*
X0087499Y0082574D01*
X0087363Y0082549D01*
X0087228Y0082520D01*
X0087093Y0082487D01*
X0086959Y0082451D01*
X0086827Y0082411D01*
X0086695Y0082367D01*
X0086565Y0082319D01*
X0086437Y0082267D01*
X0086309Y0082212D01*
X0086184Y0082153D01*
X0086060Y0082091D01*
X0085938Y0082025D01*
X0085818Y0081956D01*
X0085700Y0081883D01*
X0085584Y0081807D01*
X0085471Y0081728D01*
X0085359Y0081645D01*
X0085251Y0081560D01*
X0085144Y0081471D01*
X0085040Y0081379D01*
X0084939Y0081285D01*
X0084841Y0081187D01*
X0084745Y0081087D01*
X0084652Y0080984D01*
X0084563Y0080878D01*
X0084476Y0080770D01*
X0084392Y0080660D01*
X0084312Y0080547D01*
X0084235Y0080432D01*
X0084161Y0080314D01*
X0084091Y0080195D01*
X0084024Y0080074D01*
X0083960Y0079950D01*
X0083900Y0079826D01*
X0083844Y0079699D01*
X0083791Y0079571D01*
X0083742Y0079441D01*
X0083697Y0079310D01*
X0083655Y0079178D01*
X0083617Y0079045D01*
X0083583Y0078910D01*
X0083553Y0078775D01*
X0083527Y0078639D01*
X0083505Y0078502D01*
X0083486Y0078365D01*
X0083472Y0078227D01*
X0083461Y0078089D01*
X0083462Y0078089D02*
X0083462Y0074400D01*
X0068839Y0075273D02*
X0068844Y0074892D01*
X0068857Y0074510D01*
X0068880Y0074130D01*
X0068913Y0073750D01*
X0068954Y0073371D01*
X0069005Y0072993D01*
X0069064Y0072616D01*
X0069133Y0072241D01*
X0069211Y0071867D01*
X0069298Y0071496D01*
X0069393Y0071127D01*
X0069498Y0070760D01*
X0069611Y0070396D01*
X0069734Y0070034D01*
X0069865Y0069676D01*
X0070004Y0069321D01*
X0070152Y0068970D01*
X0070309Y0068622D01*
X0070474Y0068278D01*
X0070647Y0067938D01*
X0070828Y0067603D01*
X0071018Y0067272D01*
X0071215Y0066945D01*
X0071420Y0066624D01*
X0071633Y0066307D01*
X0071853Y0065996D01*
X0072081Y0065690D01*
X0072316Y0065390D01*
X0072559Y0065095D01*
X0072808Y0064807D01*
X0073065Y0064525D01*
X0073328Y0064248D01*
X0073597Y0063979D01*
X0073874Y0063716D01*
X0074156Y0063459D01*
X0074444Y0063210D01*
X0074739Y0062967D01*
X0075039Y0062732D01*
X0075345Y0062504D01*
X0075656Y0062284D01*
X0075973Y0062071D01*
X0076294Y0061866D01*
X0076621Y0061669D01*
X0076952Y0061479D01*
X0077287Y0061298D01*
X0077627Y0061125D01*
X0077971Y0060960D01*
X0078319Y0060803D01*
X0078670Y0060655D01*
X0079025Y0060516D01*
X0079383Y0060385D01*
X0079745Y0060262D01*
X0080109Y0060149D01*
X0080476Y0060044D01*
X0080845Y0059949D01*
X0081216Y0059862D01*
X0081590Y0059784D01*
X0081965Y0059715D01*
X0082342Y0059656D01*
X0082720Y0059605D01*
X0083099Y0059564D01*
X0083479Y0059531D01*
X0083859Y0059508D01*
X0084241Y0059495D01*
X0084622Y0059490D01*
X0083662Y0064400D02*
X0083505Y0064402D01*
X0083348Y0064408D01*
X0083191Y0064417D01*
X0083035Y0064431D01*
X0082879Y0064448D01*
X0082723Y0064469D01*
X0082568Y0064494D01*
X0082413Y0064523D01*
X0082260Y0064556D01*
X0082107Y0064592D01*
X0081955Y0064632D01*
X0081804Y0064676D01*
X0081654Y0064723D01*
X0081506Y0064774D01*
X0081359Y0064829D01*
X0081213Y0064887D01*
X0081068Y0064949D01*
X0080926Y0065014D01*
X0080784Y0065083D01*
X0080645Y0065156D01*
X0080507Y0065231D01*
X0080372Y0065311D01*
X0080238Y0065393D01*
X0080106Y0065479D01*
X0079977Y0065567D01*
X0079850Y0065659D01*
X0079725Y0065755D01*
X0079602Y0065853D01*
X0079482Y0065954D01*
X0079364Y0066058D01*
X0079249Y0066165D01*
X0079137Y0066275D01*
X0079027Y0066387D01*
X0078920Y0066502D01*
X0078816Y0066620D01*
X0078715Y0066740D01*
X0078617Y0066863D01*
X0078521Y0066988D01*
X0078429Y0067115D01*
X0078341Y0067244D01*
X0078255Y0067376D01*
X0078173Y0067510D01*
X0078093Y0067645D01*
X0078018Y0067783D01*
X0077945Y0067922D01*
X0077876Y0068064D01*
X0077811Y0068206D01*
X0077749Y0068351D01*
X0077691Y0068497D01*
X0077636Y0068644D01*
X0077585Y0068792D01*
X0077538Y0068942D01*
X0077494Y0069093D01*
X0077454Y0069245D01*
X0077418Y0069398D01*
X0077385Y0069551D01*
X0077356Y0069706D01*
X0077331Y0069861D01*
X0077310Y0070017D01*
X0077293Y0070173D01*
X0077279Y0070329D01*
X0077270Y0070486D01*
X0077264Y0070643D01*
X0077262Y0070800D01*
X0077262Y0079200D01*
X0077260Y0079315D01*
X0077254Y0079429D01*
X0077245Y0079544D01*
X0077231Y0079657D01*
X0077214Y0079771D01*
X0077193Y0079884D01*
X0077169Y0079996D01*
X0077140Y0080107D01*
X0077108Y0080217D01*
X0077072Y0080326D01*
X0077033Y0080433D01*
X0076990Y0080540D01*
X0076943Y0080645D01*
X0076893Y0080748D01*
X0076840Y0080849D01*
X0076783Y0080949D01*
X0076723Y0081047D01*
X0076659Y0081142D01*
X0076593Y0081236D01*
X0076523Y0081327D01*
X0076451Y0081416D01*
X0076375Y0081502D01*
X0076297Y0081586D01*
X0076216Y0081667D01*
X0076132Y0081745D01*
X0076046Y0081821D01*
X0075957Y0081893D01*
X0075866Y0081963D01*
X0075772Y0082029D01*
X0075677Y0082093D01*
X0075579Y0082153D01*
X0075479Y0082210D01*
X0075378Y0082263D01*
X0075275Y0082313D01*
X0075170Y0082360D01*
X0075063Y0082403D01*
X0074956Y0082442D01*
X0074847Y0082478D01*
X0074737Y0082510D01*
X0074626Y0082539D01*
X0074514Y0082563D01*
X0074401Y0082584D01*
X0074287Y0082601D01*
X0074174Y0082615D01*
X0074059Y0082624D01*
X0073945Y0082630D01*
X0073830Y0082632D01*
X0069727Y0082632D01*
X0070321Y0082638D01*
X0070293Y0082612D01*
X0070262Y0082588D01*
X0070229Y0082567D01*
X0070195Y0082550D01*
X0070159Y0082535D01*
X0070121Y0082524D01*
X0070083Y0082517D01*
X0070045Y0082513D01*
X0070006Y0082512D01*
X0069967Y0082515D01*
X0069929Y0082522D01*
X0069892Y0082532D01*
X0069855Y0082546D01*
X0069821Y0082563D01*
X0069787Y0082583D01*
X0069756Y0082606D01*
X0069727Y0082632D01*
X0069756Y0082606D01*
X0069787Y0082583D01*
X0069821Y0082563D01*
X0069855Y0082546D01*
X0069892Y0082532D01*
X0069929Y0082522D01*
X0069967Y0082515D01*
X0070006Y0082512D01*
X0070045Y0082513D01*
X0070083Y0082517D01*
X0070121Y0082524D01*
X0070159Y0082535D01*
X0070195Y0082550D01*
X0070229Y0082567D01*
X0070262Y0082588D01*
X0070293Y0082612D01*
X0070321Y0082638D01*
X0070293Y0082612D01*
X0070262Y0082588D01*
X0070229Y0082567D01*
X0070195Y0082550D01*
X0070159Y0082535D01*
X0070121Y0082524D01*
X0070083Y0082517D01*
X0070045Y0082513D01*
X0070006Y0082512D01*
X0069967Y0082515D01*
X0069929Y0082522D01*
X0069892Y0082532D01*
X0069855Y0082546D01*
X0069821Y0082563D01*
X0069787Y0082583D01*
X0069756Y0082606D01*
X0069727Y0082632D01*
X0072230Y0087632D02*
X0072390Y0087630D01*
X0072550Y0087624D01*
X0072710Y0087615D01*
X0072870Y0087601D01*
X0073029Y0087584D01*
X0073188Y0087562D01*
X0073347Y0087537D01*
X0073504Y0087508D01*
X0073661Y0087476D01*
X0073817Y0087439D01*
X0073972Y0087399D01*
X0074126Y0087355D01*
X0074279Y0087307D01*
X0074431Y0087256D01*
X0074582Y0087201D01*
X0074731Y0087142D01*
X0074879Y0087080D01*
X0075025Y0087014D01*
X0075169Y0086945D01*
X0075312Y0086872D01*
X0075453Y0086796D01*
X0075592Y0086717D01*
X0075729Y0086634D01*
X0075864Y0086547D01*
X0075997Y0086458D01*
X0076128Y0086365D01*
X0076257Y0086270D01*
X0076383Y0086171D01*
X0076507Y0086069D01*
X0076628Y0085964D01*
X0076746Y0085856D01*
X0076863Y0085746D01*
X0076976Y0085633D01*
X0077086Y0085516D01*
X0077194Y0085398D01*
X0077299Y0085277D01*
X0077401Y0085153D01*
X0077500Y0085027D01*
X0077595Y0084898D01*
X0077688Y0084767D01*
X0077777Y0084634D01*
X0077864Y0084499D01*
X0077947Y0084362D01*
X0078026Y0084223D01*
X0078102Y0084082D01*
X0078175Y0083939D01*
X0078244Y0083795D01*
X0078310Y0083649D01*
X0078372Y0083501D01*
X0078431Y0083352D01*
X0078486Y0083201D01*
X0078537Y0083049D01*
X0078585Y0082896D01*
X0078629Y0082742D01*
X0078669Y0082587D01*
X0078706Y0082431D01*
X0078738Y0082274D01*
X0078767Y0082117D01*
X0078792Y0081958D01*
X0078814Y0081799D01*
X0078831Y0081640D01*
X0078845Y0081480D01*
X0078854Y0081320D01*
X0078860Y0081160D01*
X0078862Y0081000D01*
X0078862Y0071800D01*
X0080462Y0072000D02*
X0080462Y0084489D01*
X0080464Y0084671D01*
X0080471Y0084853D01*
X0080482Y0085035D01*
X0080497Y0085217D01*
X0080517Y0085398D01*
X0080541Y0085579D01*
X0080570Y0085759D01*
X0080603Y0085938D01*
X0080640Y0086116D01*
X0080681Y0086294D01*
X0080727Y0086470D01*
X0080777Y0086646D01*
X0080831Y0086820D01*
X0080890Y0086992D01*
X0080952Y0087163D01*
X0081019Y0087333D01*
X0081090Y0087501D01*
X0081164Y0087667D01*
X0081243Y0087832D01*
X0081326Y0087994D01*
X0081413Y0088154D01*
X0081503Y0088312D01*
X0081597Y0088468D01*
X0081695Y0088622D01*
X0081797Y0088773D01*
X0081902Y0088922D01*
X0082011Y0089068D01*
X0082124Y0089212D01*
X0082240Y0089352D01*
X0082359Y0089490D01*
X0082481Y0089625D01*
X0082607Y0089757D01*
X0082736Y0089886D01*
X0082868Y0090012D01*
X0083003Y0090134D01*
X0083141Y0090253D01*
X0083281Y0090369D01*
X0083425Y0090482D01*
X0083571Y0090591D01*
X0083720Y0090696D01*
X0083871Y0090798D01*
X0084025Y0090896D01*
X0084181Y0090990D01*
X0084339Y0091080D01*
X0084499Y0091167D01*
X0084661Y0091250D01*
X0084826Y0091329D01*
X0084992Y0091403D01*
X0085160Y0091474D01*
X0085330Y0091541D01*
X0085501Y0091603D01*
X0085673Y0091662D01*
X0085847Y0091716D01*
X0086023Y0091766D01*
X0086199Y0091812D01*
X0086377Y0091853D01*
X0086555Y0091890D01*
X0086734Y0091923D01*
X0086914Y0091952D01*
X0087095Y0091976D01*
X0087276Y0091996D01*
X0087458Y0092011D01*
X0087640Y0092022D01*
X0087822Y0092029D01*
X0088004Y0092031D01*
X0088004Y0092032D02*
X0088562Y0092032D01*
X0089162Y0092632D01*
X0089592Y0092632D01*
X0089162Y0092632D02*
X0088604Y0092632D01*
X0088010Y0092638D01*
X0088038Y0092612D01*
X0088069Y0092588D01*
X0088102Y0092567D01*
X0088136Y0092550D01*
X0088172Y0092535D01*
X0088210Y0092524D01*
X0088248Y0092517D01*
X0088286Y0092513D01*
X0088325Y0092512D01*
X0088364Y0092515D01*
X0088402Y0092522D01*
X0088439Y0092532D01*
X0088476Y0092546D01*
X0088510Y0092563D01*
X0088544Y0092583D01*
X0088575Y0092606D01*
X0088604Y0092632D01*
X0088004Y0092032D01*
X0088523Y0087632D02*
X0089592Y0087632D01*
X0088604Y0082632D02*
X0088575Y0082606D01*
X0088544Y0082583D01*
X0088510Y0082563D01*
X0088476Y0082546D01*
X0088439Y0082532D01*
X0088402Y0082522D01*
X0088364Y0082515D01*
X0088325Y0082512D01*
X0088286Y0082513D01*
X0088248Y0082517D01*
X0088210Y0082524D01*
X0088172Y0082535D01*
X0088136Y0082550D01*
X0088102Y0082567D01*
X0088069Y0082588D01*
X0088038Y0082612D01*
X0088010Y0082638D01*
X0089586Y0082638D01*
X0089592Y0082632D01*
X0088604Y0082632D01*
X0088010Y0082638D01*
X0088604Y0082631D02*
X0088640Y0082665D01*
X0088679Y0082697D01*
X0088720Y0082725D01*
X0088763Y0082750D01*
X0088808Y0082773D01*
X0088854Y0082792D01*
X0088901Y0082808D01*
X0088949Y0082820D01*
X0088999Y0082829D01*
X0089048Y0082834D01*
X0089098Y0082836D01*
X0089148Y0082834D01*
X0089197Y0082829D01*
X0089247Y0082820D01*
X0089295Y0082808D01*
X0089342Y0082792D01*
X0089388Y0082773D01*
X0089433Y0082750D01*
X0089476Y0082725D01*
X0089517Y0082697D01*
X0089556Y0082665D01*
X0089592Y0082631D01*
X0088523Y0087632D02*
X0088364Y0087637D01*
X0088206Y0087639D01*
X0088047Y0087637D01*
X0087888Y0087630D01*
X0087730Y0087620D01*
X0087571Y0087606D01*
X0087414Y0087587D01*
X0087256Y0087565D01*
X0087100Y0087539D01*
X0086944Y0087509D01*
X0086789Y0087475D01*
X0086634Y0087438D01*
X0086481Y0087396D01*
X0086329Y0087351D01*
X0086178Y0087302D01*
X0086028Y0087249D01*
X0085880Y0087192D01*
X0085733Y0087132D01*
X0085588Y0087068D01*
X0085444Y0087001D01*
X0085302Y0086930D01*
X0085162Y0086855D01*
X0085023Y0086777D01*
X0084887Y0086695D01*
X0084753Y0086611D01*
X0084621Y0086522D01*
X0084491Y0086431D01*
X0084363Y0086336D01*
X0084238Y0086239D01*
X0084116Y0086138D01*
X0083996Y0086034D01*
X0083878Y0085927D01*
X0083763Y0085817D01*
X0083651Y0085705D01*
X0083542Y0085589D01*
X0083436Y0085471D01*
X0083333Y0085351D01*
X0083233Y0085227D01*
X0083136Y0085102D01*
X0083042Y0084974D01*
X0082951Y0084843D01*
X0082863Y0084711D01*
X0082779Y0084576D01*
X0082699Y0084439D01*
X0082621Y0084301D01*
X0082547Y0084160D01*
X0082477Y0084018D01*
X0082410Y0083874D01*
X0082347Y0083728D01*
X0082288Y0083581D01*
X0082232Y0083432D01*
X0082180Y0083282D01*
X0082132Y0083131D01*
X0082087Y0082978D01*
X0082047Y0082825D01*
X0082010Y0082670D01*
X0081977Y0082515D01*
X0081948Y0082359D01*
X0081923Y0082202D01*
X0081901Y0082045D01*
X0081884Y0081887D01*
X0081871Y0081729D01*
X0081861Y0081570D01*
X0081862Y0081570D02*
X0081862Y0072600D01*
X0073062Y0071400D02*
X0073065Y0071158D01*
X0073074Y0070917D01*
X0073088Y0070676D01*
X0073109Y0070435D01*
X0073135Y0070195D01*
X0073167Y0069955D01*
X0073205Y0069716D01*
X0073248Y0069479D01*
X0073298Y0069242D01*
X0073353Y0069007D01*
X0073413Y0068773D01*
X0073480Y0068541D01*
X0073551Y0068310D01*
X0073629Y0068081D01*
X0073712Y0067854D01*
X0073800Y0067629D01*
X0073894Y0067406D01*
X0073993Y0067186D01*
X0074098Y0066968D01*
X0074207Y0066753D01*
X0074322Y0066540D01*
X0074442Y0066330D01*
X0074567Y0066124D01*
X0074697Y0065920D01*
X0074832Y0065719D01*
X0074972Y0065522D01*
X0075116Y0065328D01*
X0075265Y0065138D01*
X0075419Y0064952D01*
X0075577Y0064769D01*
X0075739Y0064590D01*
X0075906Y0064415D01*
X0076077Y0064244D01*
X0076252Y0064077D01*
X0076431Y0063915D01*
X0076614Y0063757D01*
X0076800Y0063603D01*
X0076990Y0063454D01*
X0077184Y0063310D01*
X0077381Y0063170D01*
X0077582Y0063035D01*
X0077786Y0062905D01*
X0077992Y0062780D01*
X0078202Y0062660D01*
X0078415Y0062545D01*
X0078630Y0062436D01*
X0078848Y0062331D01*
X0079068Y0062232D01*
X0079291Y0062138D01*
X0079516Y0062050D01*
X0079743Y0061967D01*
X0079972Y0061889D01*
X0080203Y0061818D01*
X0080435Y0061751D01*
X0080669Y0061691D01*
X0080904Y0061636D01*
X0081141Y0061586D01*
X0081378Y0061543D01*
X0081617Y0061505D01*
X0081857Y0061473D01*
X0082097Y0061447D01*
X0082338Y0061426D01*
X0082579Y0061412D01*
X0082820Y0061403D01*
X0083062Y0061400D01*
X0085062Y0065600D02*
X0084907Y0065602D01*
X0084753Y0065608D01*
X0084599Y0065617D01*
X0084445Y0065631D01*
X0084291Y0065648D01*
X0084138Y0065669D01*
X0083985Y0065694D01*
X0083833Y0065723D01*
X0083682Y0065755D01*
X0083532Y0065792D01*
X0083383Y0065832D01*
X0083235Y0065875D01*
X0083087Y0065923D01*
X0082941Y0065974D01*
X0082797Y0066029D01*
X0082654Y0066087D01*
X0082512Y0066149D01*
X0082372Y0066214D01*
X0082233Y0066283D01*
X0082097Y0066355D01*
X0081962Y0066431D01*
X0081829Y0066510D01*
X0081698Y0066592D01*
X0081569Y0066677D01*
X0081443Y0066766D01*
X0081318Y0066858D01*
X0081196Y0066953D01*
X0081077Y0067051D01*
X0080960Y0067151D01*
X0080845Y0067255D01*
X0080733Y0067362D01*
X0080624Y0067471D01*
X0080517Y0067583D01*
X0080413Y0067698D01*
X0080313Y0067815D01*
X0080215Y0067934D01*
X0080120Y0068056D01*
X0080028Y0068181D01*
X0079939Y0068307D01*
X0079854Y0068436D01*
X0079772Y0068567D01*
X0079693Y0068700D01*
X0079617Y0068835D01*
X0079545Y0068971D01*
X0079476Y0069110D01*
X0079411Y0069250D01*
X0079349Y0069392D01*
X0079291Y0069535D01*
X0079236Y0069679D01*
X0079185Y0069825D01*
X0079137Y0069973D01*
X0079094Y0070121D01*
X0079054Y0070270D01*
X0079017Y0070420D01*
X0078985Y0070571D01*
X0078956Y0070723D01*
X0078931Y0070876D01*
X0078910Y0071029D01*
X0078893Y0071183D01*
X0078879Y0071337D01*
X0078870Y0071491D01*
X0078864Y0071645D01*
X0078862Y0071800D01*
X0080462Y0072000D02*
X0080464Y0071857D01*
X0080470Y0071714D01*
X0080480Y0071571D01*
X0080494Y0071428D01*
X0080511Y0071286D01*
X0080533Y0071144D01*
X0080558Y0071003D01*
X0080588Y0070863D01*
X0080621Y0070723D01*
X0080658Y0070585D01*
X0080699Y0070448D01*
X0080744Y0070312D01*
X0080792Y0070177D01*
X0080844Y0070043D01*
X0080900Y0069911D01*
X0080959Y0069781D01*
X0081022Y0069652D01*
X0081089Y0069525D01*
X0081159Y0069400D01*
X0081232Y0069277D01*
X0081309Y0069156D01*
X0081389Y0069037D01*
X0081472Y0068920D01*
X0081558Y0068806D01*
X0081648Y0068694D01*
X0081741Y0068585D01*
X0081836Y0068478D01*
X0081935Y0068374D01*
X0082036Y0068273D01*
X0082140Y0068174D01*
X0082247Y0068079D01*
X0082356Y0067986D01*
X0082468Y0067896D01*
X0082582Y0067810D01*
X0082699Y0067727D01*
X0082818Y0067647D01*
X0082939Y0067570D01*
X0083062Y0067497D01*
X0083187Y0067427D01*
X0083314Y0067360D01*
X0083443Y0067297D01*
X0083573Y0067238D01*
X0083705Y0067182D01*
X0083839Y0067130D01*
X0083974Y0067082D01*
X0084110Y0067037D01*
X0084247Y0066996D01*
X0084385Y0066959D01*
X0084525Y0066926D01*
X0084665Y0066896D01*
X0084806Y0066871D01*
X0084948Y0066849D01*
X0085090Y0066832D01*
X0085233Y0066818D01*
X0085376Y0066808D01*
X0085519Y0066802D01*
X0085662Y0066800D01*
X0086462Y0068000D02*
X0086328Y0068002D01*
X0086195Y0068008D01*
X0086061Y0068018D01*
X0085928Y0068031D01*
X0085795Y0068049D01*
X0085663Y0068070D01*
X0085532Y0068095D01*
X0085401Y0068124D01*
X0085271Y0068157D01*
X0085143Y0068193D01*
X0085015Y0068233D01*
X0084889Y0068277D01*
X0084764Y0068325D01*
X0084640Y0068376D01*
X0084518Y0068431D01*
X0084398Y0068489D01*
X0084279Y0068551D01*
X0084162Y0068616D01*
X0084047Y0068685D01*
X0083934Y0068757D01*
X0083824Y0068832D01*
X0083715Y0068910D01*
X0083609Y0068992D01*
X0083505Y0069076D01*
X0083404Y0069164D01*
X0083305Y0069254D01*
X0083209Y0069347D01*
X0083116Y0069443D01*
X0083026Y0069542D01*
X0082938Y0069643D01*
X0082854Y0069747D01*
X0082772Y0069853D01*
X0082694Y0069962D01*
X0082619Y0070072D01*
X0082547Y0070185D01*
X0082478Y0070300D01*
X0082413Y0070417D01*
X0082351Y0070536D01*
X0082293Y0070656D01*
X0082238Y0070778D01*
X0082187Y0070902D01*
X0082139Y0071027D01*
X0082095Y0071153D01*
X0082055Y0071281D01*
X0082019Y0071409D01*
X0081986Y0071539D01*
X0081957Y0071670D01*
X0081932Y0071801D01*
X0081911Y0071933D01*
X0081893Y0072066D01*
X0081880Y0072199D01*
X0081870Y0072333D01*
X0081864Y0072466D01*
X0081862Y0072600D01*
X0089312Y0075356D02*
X0089311Y0075260D01*
X0089315Y0075163D01*
X0089322Y0075066D01*
X0089333Y0074970D01*
X0089348Y0074875D01*
X0089366Y0074780D01*
X0089389Y0074686D01*
X0089415Y0074593D01*
X0089445Y0074501D01*
X0089479Y0074410D01*
X0089517Y0074321D01*
X0089557Y0074233D01*
X0089602Y0074147D01*
X0089650Y0074063D01*
X0089701Y0073981D01*
X0089755Y0073901D01*
X0089813Y0073823D01*
X0089874Y0073748D01*
X0089937Y0073675D01*
X0090004Y0073605D01*
X0090073Y0073538D01*
X0090145Y0073473D01*
X0090220Y0073411D01*
X0090297Y0073353D01*
X0090376Y0073297D01*
X0090458Y0073245D01*
X0090541Y0073196D01*
X0090626Y0073151D01*
X0090714Y0073109D01*
X0090802Y0073070D01*
X0090893Y0073035D01*
X0090984Y0073004D01*
X0091077Y0072977D01*
X0091171Y0072953D01*
X0091265Y0072933D01*
X0091361Y0072917D01*
X0091457Y0072905D01*
X0091553Y0072896D01*
X0091650Y0072892D01*
X0080462Y0084489D02*
X0080460Y0084686D01*
X0080452Y0084882D01*
X0080441Y0085079D01*
X0080424Y0085275D01*
X0080403Y0085470D01*
X0080377Y0085665D01*
X0080346Y0085860D01*
X0080310Y0086053D01*
X0080270Y0086246D01*
X0080225Y0086438D01*
X0080176Y0086628D01*
X0080122Y0086817D01*
X0080064Y0087005D01*
X0080000Y0087191D01*
X0079933Y0087376D01*
X0079861Y0087559D01*
X0079785Y0087741D01*
X0079704Y0087920D01*
X0079619Y0088097D01*
X0079529Y0088273D01*
X0079436Y0088446D01*
X0079338Y0088617D01*
X0079236Y0088785D01*
X0079131Y0088951D01*
X0079021Y0089114D01*
X0078907Y0089275D01*
X0078789Y0089433D01*
X0078668Y0089587D01*
X0078543Y0089739D01*
X0078414Y0089888D01*
X0078282Y0090034D01*
X0078146Y0090176D01*
X0078007Y0090315D01*
X0077865Y0090451D01*
X0077719Y0090583D01*
X0077570Y0090712D01*
X0077418Y0090837D01*
X0077264Y0090958D01*
X0077106Y0091076D01*
X0076945Y0091190D01*
X0076782Y0091300D01*
X0076616Y0091405D01*
X0076448Y0091507D01*
X0076277Y0091605D01*
X0076104Y0091698D01*
X0075928Y0091788D01*
X0075751Y0091873D01*
X0075572Y0091954D01*
X0075390Y0092030D01*
X0075207Y0092102D01*
X0075022Y0092169D01*
X0074836Y0092233D01*
X0074648Y0092291D01*
X0074459Y0092345D01*
X0074269Y0092394D01*
X0074077Y0092439D01*
X0073884Y0092479D01*
X0073691Y0092515D01*
X0073496Y0092546D01*
X0073301Y0092572D01*
X0073106Y0092593D01*
X0072910Y0092610D01*
X0072713Y0092621D01*
X0072517Y0092629D01*
X0072320Y0092631D01*
X0072320Y0092632D02*
X0069727Y0092632D01*
X0070321Y0092638D01*
X0070293Y0092612D01*
X0070262Y0092588D01*
X0070229Y0092567D01*
X0070195Y0092550D01*
X0070159Y0092535D01*
X0070121Y0092524D01*
X0070083Y0092517D01*
X0070045Y0092513D01*
X0070006Y0092512D01*
X0069967Y0092515D01*
X0069929Y0092522D01*
X0069892Y0092532D01*
X0069855Y0092546D01*
X0069821Y0092563D01*
X0069787Y0092583D01*
X0069756Y0092606D01*
X0069727Y0092632D01*
X0069727Y0087632D02*
X0069756Y0087606D01*
X0069787Y0087583D01*
X0069821Y0087563D01*
X0069855Y0087546D01*
X0069892Y0087532D01*
X0069929Y0087522D01*
X0069967Y0087515D01*
X0070006Y0087512D01*
X0070045Y0087513D01*
X0070083Y0087517D01*
X0070121Y0087524D01*
X0070159Y0087535D01*
X0070195Y0087550D01*
X0070229Y0087567D01*
X0070262Y0087588D01*
X0070293Y0087612D01*
X0070321Y0087638D01*
X0069727Y0087632D01*
X0072230Y0087632D01*
X0182221Y0072884D02*
X0182371Y0072886D01*
X0182520Y0072892D01*
X0182669Y0072901D01*
X0182818Y0072914D01*
X0182967Y0072931D01*
X0183115Y0072952D01*
X0183263Y0072977D01*
X0183410Y0073005D01*
X0183556Y0073037D01*
X0183701Y0073073D01*
X0183845Y0073112D01*
X0183989Y0073155D01*
X0184131Y0073201D01*
X0184272Y0073252D01*
X0184411Y0073305D01*
X0184550Y0073363D01*
X0184686Y0073423D01*
X0184822Y0073487D01*
X0184955Y0073555D01*
X0185087Y0073626D01*
X0185217Y0073700D01*
X0185345Y0073778D01*
X0185470Y0073858D01*
X0185594Y0073942D01*
X0185716Y0074029D01*
X0185835Y0074119D01*
X0185953Y0074213D01*
X0186067Y0074309D01*
X0186180Y0074407D01*
X0186289Y0074509D01*
X0186396Y0074614D01*
X0186397Y0074613D02*
X0201906Y0090051D01*
X0202713Y0088451D02*
X0223056Y0088451D01*
X0223056Y0087853D02*
X0202362Y0087853D01*
X0202362Y0087254D02*
X0223056Y0087254D01*
X0223056Y0086656D02*
X0202362Y0086656D01*
X0201907Y0090051D02*
X0202014Y0090155D01*
X0202123Y0090257D01*
X0202236Y0090356D01*
X0202350Y0090452D01*
X0202468Y0090545D01*
X0202587Y0090635D01*
X0202709Y0090722D01*
X0202833Y0090806D01*
X0202959Y0090886D01*
X0203086Y0090964D01*
X0203216Y0091038D01*
X0203348Y0091109D01*
X0203482Y0091177D01*
X0203617Y0091241D01*
X0203753Y0091301D01*
X0203892Y0091359D01*
X0204031Y0091412D01*
X0204172Y0091463D01*
X0204314Y0091509D01*
X0204458Y0091552D01*
X0204602Y0091592D01*
X0204747Y0091627D01*
X0204893Y0091659D01*
X0205040Y0091687D01*
X0205188Y0091712D01*
X0205336Y0091733D01*
X0205485Y0091750D01*
X0205634Y0091763D01*
X0205783Y0091772D01*
X0205932Y0091778D01*
X0206082Y0091780D01*
X0206082Y0091781D02*
X0206230Y0091781D01*
X0254753Y0091781D01*
X0254901Y0091781D01*
X0255762Y0078276D02*
X0256362Y0078276D01*
X0256362Y0077678D02*
X0255762Y0077678D01*
X0255762Y0077079D02*
X0256362Y0077079D01*
X0256362Y0076481D02*
X0255762Y0076481D01*
X0249631Y0074685D02*
X0246183Y0074685D01*
X0244862Y0073600D02*
X0244860Y0073521D01*
X0244854Y0073443D01*
X0244845Y0073365D01*
X0244831Y0073288D01*
X0244814Y0073211D01*
X0244793Y0073136D01*
X0244768Y0073061D01*
X0244740Y0072988D01*
X0244708Y0072916D01*
X0244673Y0072846D01*
X0244634Y0072777D01*
X0244592Y0072711D01*
X0244547Y0072647D01*
X0244499Y0072585D01*
X0244448Y0072526D01*
X0244393Y0072469D01*
X0244336Y0072414D01*
X0244277Y0072363D01*
X0244215Y0072315D01*
X0244151Y0072270D01*
X0244085Y0072228D01*
X0244016Y0072189D01*
X0243946Y0072154D01*
X0243874Y0072122D01*
X0243801Y0072094D01*
X0243726Y0072069D01*
X0243651Y0072048D01*
X0243574Y0072031D01*
X0243497Y0072017D01*
X0243419Y0072008D01*
X0243341Y0072002D01*
X0243262Y0072000D01*
X0186397Y0057813D02*
X0186285Y0057918D01*
X0186170Y0058020D01*
X0186053Y0058120D01*
X0185933Y0058216D01*
X0185811Y0058310D01*
X0185686Y0058400D01*
X0185559Y0058487D01*
X0185430Y0058571D01*
X0185299Y0058651D01*
X0185166Y0058728D01*
X0185030Y0058802D01*
X0184894Y0058872D01*
X0184755Y0058938D01*
X0184614Y0059001D01*
X0184473Y0059061D01*
X0184329Y0059117D01*
X0184184Y0059169D01*
X0184038Y0059217D01*
X0183891Y0059262D01*
X0183743Y0059302D01*
X0183593Y0059339D01*
X0183443Y0059373D01*
X0183292Y0059402D01*
X0183140Y0059427D01*
X0182988Y0059449D01*
X0182835Y0059467D01*
X0182682Y0059480D01*
X0182528Y0059490D01*
X0182375Y0059496D01*
X0182221Y0059498D01*
D11*
X0207027Y0056000D03*
X0207027Y0066000D03*
X0207027Y0076000D03*
X0252697Y0076000D03*
X0252697Y0066000D03*
X0252697Y0056000D03*
D12*
X0229862Y0045134D03*
X0229862Y0086866D03*
D13*
X0212145Y0084307D02*
X0212147Y0084381D01*
X0212153Y0084455D01*
X0212163Y0084528D01*
X0212177Y0084601D01*
X0212194Y0084673D01*
X0212216Y0084743D01*
X0212241Y0084813D01*
X0212270Y0084881D01*
X0212303Y0084947D01*
X0212339Y0085012D01*
X0212379Y0085074D01*
X0212421Y0085135D01*
X0212467Y0085193D01*
X0212516Y0085248D01*
X0212568Y0085301D01*
X0212623Y0085351D01*
X0212680Y0085397D01*
X0212740Y0085441D01*
X0212802Y0085481D01*
X0212866Y0085518D01*
X0212932Y0085552D01*
X0213000Y0085582D01*
X0213069Y0085608D01*
X0213140Y0085631D01*
X0213211Y0085649D01*
X0213284Y0085664D01*
X0213357Y0085675D01*
X0213431Y0085682D01*
X0213505Y0085685D01*
X0213578Y0085684D01*
X0213652Y0085679D01*
X0213726Y0085670D01*
X0213799Y0085657D01*
X0213871Y0085640D01*
X0213942Y0085620D01*
X0214012Y0085595D01*
X0214080Y0085567D01*
X0214147Y0085536D01*
X0214212Y0085500D01*
X0214275Y0085462D01*
X0214336Y0085420D01*
X0214395Y0085374D01*
X0214451Y0085326D01*
X0214504Y0085275D01*
X0214554Y0085221D01*
X0214602Y0085164D01*
X0214646Y0085105D01*
X0214688Y0085043D01*
X0214726Y0084980D01*
X0214760Y0084914D01*
X0214791Y0084847D01*
X0214818Y0084778D01*
X0214841Y0084708D01*
X0214861Y0084637D01*
X0214877Y0084564D01*
X0214889Y0084491D01*
X0214897Y0084418D01*
X0214901Y0084344D01*
X0214901Y0084270D01*
X0214897Y0084196D01*
X0214889Y0084123D01*
X0214877Y0084050D01*
X0214861Y0083977D01*
X0214841Y0083906D01*
X0214818Y0083836D01*
X0214791Y0083767D01*
X0214760Y0083700D01*
X0214726Y0083634D01*
X0214688Y0083571D01*
X0214646Y0083509D01*
X0214602Y0083450D01*
X0214554Y0083393D01*
X0214504Y0083339D01*
X0214451Y0083288D01*
X0214395Y0083240D01*
X0214336Y0083194D01*
X0214275Y0083152D01*
X0214212Y0083114D01*
X0214147Y0083078D01*
X0214080Y0083047D01*
X0214012Y0083019D01*
X0213942Y0082994D01*
X0213871Y0082974D01*
X0213799Y0082957D01*
X0213726Y0082944D01*
X0213652Y0082935D01*
X0213578Y0082930D01*
X0213505Y0082929D01*
X0213431Y0082932D01*
X0213357Y0082939D01*
X0213284Y0082950D01*
X0213211Y0082965D01*
X0213140Y0082983D01*
X0213069Y0083006D01*
X0213000Y0083032D01*
X0212932Y0083062D01*
X0212866Y0083096D01*
X0212802Y0083133D01*
X0212740Y0083173D01*
X0212680Y0083217D01*
X0212623Y0083263D01*
X0212568Y0083313D01*
X0212516Y0083366D01*
X0212467Y0083421D01*
X0212421Y0083479D01*
X0212379Y0083540D01*
X0212339Y0083602D01*
X0212303Y0083667D01*
X0212270Y0083733D01*
X0212241Y0083801D01*
X0212216Y0083871D01*
X0212194Y0083941D01*
X0212177Y0084013D01*
X0212163Y0084086D01*
X0212153Y0084159D01*
X0212147Y0084233D01*
X0212145Y0084307D01*
X0244428Y0048874D02*
X0244430Y0048958D01*
X0244436Y0049041D01*
X0244446Y0049124D01*
X0244460Y0049207D01*
X0244477Y0049289D01*
X0244499Y0049370D01*
X0244524Y0049449D01*
X0244553Y0049528D01*
X0244586Y0049605D01*
X0244622Y0049680D01*
X0244662Y0049754D01*
X0244705Y0049826D01*
X0244752Y0049895D01*
X0244802Y0049962D01*
X0244855Y0050027D01*
X0244911Y0050089D01*
X0244969Y0050149D01*
X0245031Y0050206D01*
X0245095Y0050259D01*
X0245162Y0050310D01*
X0245231Y0050357D01*
X0245302Y0050402D01*
X0245375Y0050442D01*
X0245450Y0050479D01*
X0245527Y0050513D01*
X0245605Y0050543D01*
X0245684Y0050569D01*
X0245765Y0050592D01*
X0245847Y0050610D01*
X0245929Y0050625D01*
X0246012Y0050636D01*
X0246095Y0050643D01*
X0246179Y0050646D01*
X0246263Y0050645D01*
X0246346Y0050640D01*
X0246430Y0050631D01*
X0246512Y0050618D01*
X0246594Y0050602D01*
X0246675Y0050581D01*
X0246756Y0050557D01*
X0246834Y0050529D01*
X0246912Y0050497D01*
X0246988Y0050461D01*
X0247062Y0050422D01*
X0247134Y0050380D01*
X0247204Y0050334D01*
X0247272Y0050285D01*
X0247337Y0050233D01*
X0247400Y0050178D01*
X0247460Y0050120D01*
X0247518Y0050059D01*
X0247572Y0049995D01*
X0247624Y0049929D01*
X0247672Y0049861D01*
X0247717Y0049790D01*
X0247758Y0049717D01*
X0247797Y0049643D01*
X0247831Y0049567D01*
X0247862Y0049489D01*
X0247889Y0049410D01*
X0247913Y0049329D01*
X0247932Y0049248D01*
X0247948Y0049166D01*
X0247960Y0049083D01*
X0247968Y0048999D01*
X0247972Y0048916D01*
X0247972Y0048832D01*
X0247968Y0048749D01*
X0247960Y0048665D01*
X0247948Y0048582D01*
X0247932Y0048500D01*
X0247913Y0048419D01*
X0247889Y0048338D01*
X0247862Y0048259D01*
X0247831Y0048181D01*
X0247797Y0048105D01*
X0247758Y0048031D01*
X0247717Y0047958D01*
X0247672Y0047887D01*
X0247624Y0047819D01*
X0247572Y0047753D01*
X0247518Y0047689D01*
X0247460Y0047628D01*
X0247400Y0047570D01*
X0247337Y0047515D01*
X0247272Y0047463D01*
X0247204Y0047414D01*
X0247134Y0047368D01*
X0247062Y0047326D01*
X0246988Y0047287D01*
X0246912Y0047251D01*
X0246834Y0047219D01*
X0246756Y0047191D01*
X0246675Y0047167D01*
X0246594Y0047146D01*
X0246512Y0047130D01*
X0246430Y0047117D01*
X0246346Y0047108D01*
X0246263Y0047103D01*
X0246179Y0047102D01*
X0246095Y0047105D01*
X0246012Y0047112D01*
X0245929Y0047123D01*
X0245847Y0047138D01*
X0245765Y0047156D01*
X0245684Y0047179D01*
X0245605Y0047205D01*
X0245527Y0047235D01*
X0245450Y0047269D01*
X0245375Y0047306D01*
X0245302Y0047346D01*
X0245231Y0047391D01*
X0245162Y0047438D01*
X0245095Y0047489D01*
X0245031Y0047542D01*
X0244969Y0047599D01*
X0244911Y0047659D01*
X0244855Y0047721D01*
X0244802Y0047786D01*
X0244752Y0047853D01*
X0244705Y0047922D01*
X0244662Y0047994D01*
X0244622Y0048068D01*
X0244586Y0048143D01*
X0244553Y0048220D01*
X0244524Y0048299D01*
X0244499Y0048378D01*
X0244477Y0048459D01*
X0244460Y0048541D01*
X0244446Y0048624D01*
X0244436Y0048707D01*
X0244430Y0048790D01*
X0244428Y0048874D01*
D14*
X0088004Y0077632D03*
X0088004Y0082632D03*
X0087923Y0087632D03*
X0088004Y0092632D03*
X0070327Y0092632D03*
X0070327Y0087632D03*
X0070327Y0082632D03*
X0070327Y0077592D03*
D15*
X0068732Y0077638D03*
X0068732Y0082638D03*
X0068732Y0087638D03*
X0068732Y0092638D03*
X0089599Y0092638D03*
X0089599Y0087638D03*
X0089599Y0082638D03*
X0089599Y0077638D03*
D16*
X0092062Y0071100D03*
X0102062Y0071100D03*
X0111562Y0071100D03*
X0122562Y0071100D03*
X0133062Y0071100D03*
X0143562Y0071100D03*
X0153962Y0071100D03*
X0164062Y0071100D03*
X0174362Y0071100D03*
X0197562Y0076200D03*
X0203062Y0075200D03*
X0210562Y0075700D03*
X0207062Y0079200D03*
X0202562Y0081700D03*
X0218062Y0074500D03*
X0227762Y0074600D03*
X0233662Y0074700D03*
X0236062Y0079200D03*
X0245062Y0079200D03*
X0222062Y0079200D03*
X0222062Y0066200D03*
X0213562Y0066200D03*
X0201362Y0063800D03*
X0213562Y0055700D03*
X0222062Y0055200D03*
X0230062Y0055300D03*
X0237562Y0054200D03*
X0246062Y0062200D03*
X0248562Y0065900D03*
X0238362Y0066200D03*
X0233062Y0065700D03*
D17*
X0239462Y0059800D03*
X0210862Y0056000D03*
X0189062Y0062200D03*
X0198662Y0066000D03*
X0199062Y0069400D03*
X0081362Y0092100D03*
X0073062Y0073200D03*
M02*
