%
M48
M72
T01C0.00787
T02C0.01000
T03C0.02008
T04C0.02756
T05C0.03543
%
T01
X92062Y71100
X102062Y71100
X111562Y71100
X122562Y71100
X133062Y71100
X143562Y71100
X153962Y71100
X164062Y71100
X174362Y71100
X197562Y76200
X203062Y75200
X210562Y75700
X207062Y79200
X202562Y81700
X218062Y74500
X227762Y74600
X233662Y74700
X236062Y79200
X245062Y79200
X222062Y79200
X222062Y66200
X213562Y66200
X201362Y63800
X213562Y55700
X222062Y55200
X230062Y55300
X237562Y54200
X246062Y62200
X248562Y65900
X238362Y66200
X233062Y65700
T02
X239462Y59800
X210862Y56000
X189062Y62200
X198662Y66000
X199062Y69400
X81362Y92100
X73062Y73200
T03
X68732Y77638
X68732Y82638
X68732Y87638
X68732Y92638
X89599Y92638
X89599Y87638
X89599Y82638
X89599Y77638
T04
X213523Y84307
T05
X246200Y48874
M30
